<svg width="259" height="203" viewBox="0 0 259 203" fill="none" xmlns="http://www.w3.org/2000/svg">
<path d="M100.186 110.791L91.6913 105.358L76.3037 115.431V25.6828C84.3198 17.6073 91.7895 9.0543 100.186 1.32617V110.791Z" fill="#003660"/>
<path d="M61.709 134.007L92.0401 114.57L112.873 127.655L151.069 103.49L171.221 115.766L171.45 110.431H185.341V124.443L199.696 134.007H189.277L152.442 110.657L151.341 110.413L113.802 134.007H103.382L107.082 131.11L92.0401 121.695L72.5928 134.007H61.709Z" fill="#003660"/>
<path d="M113.454 119.412L105.493 114.048V0L113.454 4.42844V119.412Z" fill="#E9BE74"/>
<path d="M116.107 5.30859L123.999 9.57982L124.068 110.923C123.768 112.657 117.673 115.375 116.107 116.76V5.30859Z" fill="#E9BE74"/>
<path d="M126.722 13.2676C129.006 14.5878 133.684 15.9203 135.599 17.3384C135.889 17.5523 136.07 17.6929 135.99 18.0474L135.94 103.076C135.599 104.72 128.586 107.666 126.722 108.797V13.2676Z" fill="#E9BE74"/>
<path d="M151.931 46.4375V94.1987L138.663 102.163V59.317L150.525 47.1763L151.931 46.4375Z" fill="#003660"/>
<path d="M163.873 49.2558V100.837L155.912 95.5408V45.1113L163.873 49.2558Z" fill="#E9BE74"/>
<path d="M174.487 102.164H166.526V51.7461C169.311 52.8779 172.071 54.3808 174.487 56.1373V102.158V102.164Z" fill="#E9BE74"/>
<path d="M186.428 62.4835V102.163H177.141V58.3789C180.134 59.7756 183.186 61.5809 186.428 62.4835Z" fill="#E9BE74"/>
<path d="M157.239 119.412H151.932V124.719H157.239V119.412Z" fill="#003660"/>
<path d="M157.239 127.371H151.932V132.678H157.239V127.371Z" fill="#003660"/>
<path d="M150.604 119.412H146.624V124.719H150.604V119.412Z" fill="#003660"/>
<path d="M150.604 127.371H146.624V132.678H150.604V127.371Z" fill="#003660"/>
<path d="M94.8792 126.047H92.2256V130.027H94.8792V126.047Z" fill="#003660"/>
<path d="M94.8792 130.025H92.2256V132.679H94.8792V130.025Z" fill="#003660"/>
<path d="M90.8987 126.047H88.2451V130.027H90.8987V126.047Z" fill="#003660"/>
<path d="M90.8987 130.025H88.2451V132.679H90.8987V130.025Z" fill="#003660"/>
<path d="M258.727 169.801V176.392H239.108V148.863H258.378V155.455H246.669V159.332H256.672V165.458H246.669V169.801H258.727Z" fill="#003660"/>
<path d="M211.354 176.392V148.863H221.939C224.99 148.863 227.536 149.484 229.578 150.724C231.646 151.939 233.196 153.594 234.23 155.687C235.29 157.755 235.82 160.056 235.82 162.589C235.82 165.38 235.239 167.81 234.075 169.878C232.938 171.946 231.322 173.549 229.229 174.686C227.161 175.823 224.731 176.392 221.939 176.392H211.354ZM228.143 162.589C228.143 161.167 227.898 159.926 227.406 158.867C226.915 157.781 226.204 156.941 225.274 156.346C224.343 155.752 223.232 155.455 221.939 155.455H218.915V169.801H221.939C223.258 169.801 224.369 169.49 225.274 168.87C226.204 168.25 226.915 167.397 227.406 166.311C227.898 165.199 228.143 163.959 228.143 162.589Z" fill="#003660"/>
<path d="M189.685 162.86V176.392H182.124V148.863H188.017L199.068 162.86V148.863H206.628V176.392H200.619L189.685 162.86Z" fill="#003660"/>
<path d="M162.622 148.863H171.074L179.837 176.392H172.16L170.493 171.002H163.165L161.536 176.392H153.82L162.622 148.863ZM169.291 165.962L166.848 156.269L164.289 165.962H169.291Z" fill="#003660"/>
<path d="M130.099 176.392V148.863H142.739C144.083 148.863 145.323 149.135 146.461 149.678C147.598 150.22 148.58 150.957 149.407 151.888C150.235 152.792 150.868 153.813 151.307 154.951C151.773 156.088 152.005 157.238 152.005 158.401C152.005 159.461 151.85 160.482 151.54 161.464C151.23 162.447 150.777 163.351 150.183 164.178C149.588 164.98 148.878 165.678 148.05 166.272L153.866 176.392H145.569L140.722 167.939H137.659V176.392H130.099ZM137.659 161.348H142.428C142.739 161.348 143.036 161.232 143.32 160.999C143.604 160.766 143.837 160.43 144.018 159.991C144.225 159.552 144.328 159.022 144.328 158.401C144.328 157.755 144.212 157.225 143.979 156.812C143.773 156.372 143.501 156.036 143.165 155.804C142.855 155.571 142.545 155.455 142.235 155.455H137.659V161.348Z" fill="#003660"/>
<path d="M113.339 176.586C111.556 176.586 109.85 176.276 108.221 175.656C106.619 175.009 105.197 174.079 103.956 172.864C102.716 171.623 101.734 170.137 101.01 168.405C100.312 166.648 99.9629 164.644 99.9629 162.395C99.9629 160.457 100.325 158.66 101.049 157.006C101.772 155.352 102.767 153.904 104.034 152.664C105.326 151.397 106.826 150.415 108.532 149.717C110.238 149.019 112.086 148.67 114.076 148.67C116.558 148.67 118.806 149.213 120.823 150.298C122.839 151.358 124.338 152.819 125.32 154.68L119.698 158.983C119.155 157.898 118.341 157.032 117.256 156.386C116.17 155.714 115.02 155.378 113.805 155.378C112.9 155.378 112.073 155.559 111.323 155.92C110.574 156.282 109.915 156.786 109.346 157.433C108.803 158.079 108.377 158.854 108.066 159.759C107.782 160.638 107.64 161.607 107.64 162.667C107.64 163.752 107.795 164.735 108.105 165.614C108.415 166.492 108.842 167.255 109.385 167.901C109.953 168.522 110.625 169.013 111.401 169.375C112.176 169.711 113.042 169.879 113.999 169.879C115.214 169.879 116.377 169.581 117.488 168.987C118.6 168.366 119.608 167.501 120.512 166.389V173.756C118.445 175.643 116.054 176.586 113.339 176.586ZM120.125 167.164H115.046V161.736H126.367V176.392H120.125V167.164Z" fill="#003660"/>
<path d="M83.07 148.863H91.5224L100.285 176.392H92.6081L90.9408 171.002H83.6128L81.9843 176.392H74.2686L83.07 148.863ZM89.7389 165.962L87.2962 156.269L84.7372 165.962H89.7389Z" fill="#003660"/>
<path d="M70.134 157.859C70.134 157.859 69.9143 157.73 69.4748 157.471C69.0354 157.213 68.4538 156.928 67.7301 156.618C67.0063 156.282 66.2179 155.985 65.3649 155.726C64.5119 155.468 63.6718 155.339 62.8447 155.339C62.1985 155.339 61.6686 155.442 61.255 155.649C60.8414 155.855 60.6346 156.204 60.6346 156.696C60.6346 157.161 60.8414 157.536 61.255 157.82C61.6686 158.104 62.2502 158.363 62.9998 158.595C63.7752 158.828 64.6929 159.112 65.7526 159.448C67.4586 159.965 68.932 160.56 70.1727 161.232C71.4135 161.904 72.3699 162.77 73.0419 163.83C73.714 164.864 74.05 166.247 74.05 167.978C74.05 169.633 73.7528 171.029 73.1582 172.166C72.5637 173.277 71.7624 174.169 70.7543 174.841C69.7462 175.513 68.6218 176.004 67.3811 176.315C66.1404 176.599 64.8738 176.741 63.5814 176.741C62.2631 176.741 60.8802 176.612 59.4327 176.353C58.011 176.069 56.6281 175.694 55.284 175.229C53.9399 174.738 52.7121 174.169 51.6006 173.523L54.8575 166.893C54.8575 166.893 55.116 167.048 55.633 167.358C56.1499 167.668 56.8349 168.017 57.6879 168.405C58.5409 168.793 59.4844 169.142 60.5183 169.452C61.5781 169.762 62.6379 169.917 63.6977 169.917C64.5248 169.917 65.0935 169.814 65.4037 169.607C65.7397 169.374 65.9077 169.077 65.9077 168.715C65.9077 168.172 65.6234 167.759 65.0547 167.474C64.4861 167.164 63.7365 166.88 62.8059 166.621C61.9012 166.337 60.8931 166.014 59.7816 165.652C58.179 165.109 56.8608 164.502 55.8268 163.83C54.7929 163.132 54.0303 162.318 53.5392 161.387C53.0481 160.431 52.8025 159.28 52.8025 157.936C52.8025 155.894 53.2807 154.188 54.2371 152.818C55.1935 151.448 56.4472 150.414 57.9981 149.716C59.5749 148.993 61.2679 148.631 63.0773 148.631C64.4214 148.631 65.7139 148.799 66.9546 149.135C68.2212 149.445 69.3973 149.833 70.4829 150.298C71.5944 150.763 72.5637 151.203 73.3909 151.616L70.134 157.859Z" fill="#003660"/>
<path d="M34.2633 148.863H42.7158L51.4784 176.392H43.8014L42.1342 171.002H34.8062L33.1777 176.392H25.4619L34.2633 148.863ZM40.9322 165.962L38.4896 156.269L35.9306 165.962H40.9322Z" fill="#003660"/>
<path d="M0 162.394C0 160.714 0.310182 159.072 0.930546 157.47C1.57676 155.841 2.50731 154.368 3.72219 153.05C4.93707 151.731 6.41043 150.684 8.14228 149.909C9.89998 149.108 11.8774 148.707 14.0745 148.707C16.7111 148.707 19.0116 149.263 20.9761 150.374C22.9406 151.46 24.401 152.907 25.3574 154.717L19.5802 158.827C19.2442 157.922 18.7531 157.224 18.1069 156.733C17.4865 156.242 16.8015 155.906 16.0519 155.725C15.3282 155.518 14.6173 155.415 13.9194 155.415C12.8338 155.415 11.8903 155.634 11.089 156.074C10.3136 156.487 9.66734 157.043 9.15037 157.741C8.65925 158.439 8.28445 159.214 8.02596 160.067C7.79333 160.92 7.67701 161.773 7.67701 162.626C7.67701 163.583 7.81917 164.5 8.10351 165.379C8.38784 166.258 8.80142 167.047 9.34424 167.744C9.88706 168.416 10.5462 168.946 11.3216 169.334C12.123 169.722 13.0147 169.916 13.997 169.916C14.6949 169.916 15.4057 169.812 16.1295 169.605C16.8532 169.373 17.5124 169.011 18.1069 168.52C18.7014 168.029 19.1537 167.37 19.4639 166.542L25.6288 170.226C25.086 171.57 24.1813 172.72 22.9147 173.677C21.6481 174.633 20.2135 175.37 18.6109 175.887C17.0083 176.378 15.4186 176.623 13.8419 176.623C11.7998 176.623 9.92583 176.223 8.21983 175.421C6.53967 174.594 5.07923 173.509 3.8385 172.164C2.62362 170.795 1.68015 169.269 1.00809 167.589C0.336031 165.883 0 164.151 0 162.394Z" fill="#003660"/>
<path d="M249.434 182.812H252.48L258.159 198.26H255.069L253.633 194.409H248.237L246.823 198.26H243.733L249.434 182.812ZM253.089 192.299L250.957 185.924L248.738 192.299H253.089Z" fill="#003660"/>
<path d="M229.596 190.425C229.596 189.482 229.762 188.561 230.096 187.662C230.444 186.748 230.945 185.921 231.597 185.181C232.25 184.427 233.048 183.832 233.991 183.397C234.934 182.947 236.007 182.723 237.211 182.723C238.632 182.723 239.858 183.035 240.888 183.658C241.932 184.282 242.708 185.094 243.216 186.095L240.91 187.683C240.648 187.103 240.308 186.646 239.887 186.313C239.466 185.964 239.017 185.725 238.538 185.595C238.059 185.45 237.588 185.377 237.124 185.377C236.369 185.377 235.71 185.529 235.144 185.834C234.593 186.139 234.128 186.537 233.751 187.031C233.374 187.524 233.091 188.075 232.903 188.684C232.729 189.293 232.642 189.903 232.642 190.512C232.642 191.194 232.751 191.853 232.968 192.492C233.186 193.115 233.49 193.674 233.882 194.167C234.288 194.646 234.767 195.03 235.318 195.32C235.884 195.596 236.5 195.734 237.167 195.734C237.646 195.734 238.132 195.654 238.625 195.494C239.118 195.335 239.575 195.081 239.996 194.733C240.416 194.385 240.743 193.935 240.975 193.384L243.433 194.798C243.129 195.567 242.628 196.219 241.932 196.756C241.25 197.293 240.482 197.699 239.626 197.975C238.77 198.25 237.922 198.388 237.08 198.388C235.978 198.388 234.97 198.163 234.056 197.713C233.142 197.249 232.352 196.64 231.684 195.886C231.032 195.117 230.517 194.261 230.14 193.318C229.777 192.361 229.596 191.397 229.596 190.425Z" fill="#003660"/>
<path d="M224.306 198.26V182.812H227.308V198.26H224.306Z" fill="#003660"/>
<path d="M220.167 186.859C220.065 186.757 219.877 186.619 219.601 186.445C219.34 186.271 219.014 186.105 218.622 185.945C218.245 185.785 217.831 185.648 217.382 185.532C216.932 185.401 216.475 185.336 216.011 185.336C215.199 185.336 214.582 185.488 214.162 185.793C213.756 186.097 213.553 186.525 213.553 187.076C213.553 187.497 213.683 187.831 213.944 188.077C214.205 188.324 214.597 188.534 215.119 188.708C215.641 188.882 216.294 189.071 217.077 189.274C218.093 189.52 218.97 189.825 219.71 190.188C220.464 190.536 221.037 191 221.429 191.58C221.835 192.146 222.038 192.9 222.038 193.843C222.038 194.67 221.886 195.38 221.581 195.975C221.276 196.555 220.856 197.027 220.319 197.389C219.782 197.752 219.173 198.02 218.491 198.194C217.81 198.354 217.084 198.434 216.316 198.434C215.547 198.434 214.778 198.354 214.009 198.194C213.241 198.035 212.501 197.81 211.79 197.52C211.079 197.215 210.427 196.853 209.832 196.432L211.159 193.843C211.29 193.973 211.522 194.147 211.855 194.365C212.189 194.568 212.595 194.778 213.074 194.996C213.553 195.199 214.075 195.373 214.64 195.518C215.206 195.663 215.779 195.736 216.359 195.736C217.172 195.736 217.788 195.598 218.209 195.322C218.629 195.047 218.84 194.655 218.84 194.147C218.84 193.683 218.673 193.321 218.339 193.06C218.006 192.799 217.541 192.574 216.947 192.385C216.352 192.182 215.649 191.964 214.836 191.732C213.864 191.457 213.052 191.152 212.399 190.819C211.747 190.47 211.261 190.035 210.942 189.513C210.623 188.991 210.463 188.338 210.463 187.555C210.463 186.496 210.71 185.611 211.203 184.901C211.71 184.175 212.392 183.631 213.248 183.269C214.104 182.892 215.054 182.703 216.098 182.703C216.823 182.703 217.505 182.783 218.143 182.942C218.796 183.102 219.405 183.312 219.971 183.573C220.537 183.835 221.044 184.117 221.494 184.422L220.167 186.859Z" fill="#003660"/>
<path d="M204.738 198.26V182.812H207.741V198.26H204.738Z" fill="#003660"/>
<path d="M192.244 198.26V182.812H202.622V185.445H195.247V189.427H201.382V191.864H195.247V198.26H192.244Z" fill="#003660"/>
<path d="M182.391 198.368C181.26 198.368 180.23 198.151 179.302 197.716C178.388 197.281 177.597 196.693 176.93 195.953C176.278 195.199 175.77 194.358 175.407 193.429C175.045 192.487 174.863 191.522 174.863 190.536C174.863 189.506 175.052 188.527 175.429 187.599C175.821 186.656 176.35 185.822 177.017 185.096C177.699 184.357 178.497 183.776 179.411 183.356C180.339 182.921 181.354 182.703 182.457 182.703C183.573 182.703 184.589 182.928 185.503 183.378C186.431 183.827 187.221 184.429 187.874 185.183C188.527 185.938 189.035 186.779 189.397 187.707C189.76 188.636 189.941 189.593 189.941 190.579C189.941 191.595 189.753 192.574 189.375 193.517C188.998 194.445 188.469 195.279 187.787 196.019C187.12 196.744 186.322 197.317 185.394 197.737C184.48 198.158 183.479 198.368 182.391 198.368ZM177.909 190.536C177.909 191.203 178.011 191.848 178.214 192.472C178.417 193.096 178.707 193.654 179.084 194.147C179.476 194.626 179.947 195.011 180.498 195.301C181.064 195.576 181.702 195.714 182.413 195.714C183.138 195.714 183.784 195.569 184.349 195.279C184.915 194.974 185.387 194.575 185.764 194.082C186.141 193.575 186.424 193.016 186.612 192.407C186.815 191.783 186.917 191.159 186.917 190.536C186.917 189.869 186.808 189.23 186.591 188.621C186.387 187.997 186.09 187.446 185.698 186.968C185.321 186.474 184.85 186.09 184.284 185.814C183.733 185.524 183.109 185.379 182.413 185.379C181.673 185.379 181.021 185.532 180.455 185.836C179.904 186.126 179.44 186.518 179.062 187.011C178.685 187.504 178.395 188.055 178.192 188.665C178.004 189.274 177.909 189.898 177.909 190.536Z" fill="#003660"/>
<path d="M173.733 195.628V198.26H163.007V182.812H173.537V185.445H166.009V189.166H172.515V191.602H166.009V195.628H173.733Z" fill="#003660"/>
<path d="M153.66 198.368C152.66 198.368 151.709 198.165 150.81 197.759C149.925 197.353 149.142 196.795 148.46 196.084C147.793 195.359 147.271 194.517 146.894 193.56C146.517 192.603 146.328 191.566 146.328 190.449C146.328 189.39 146.517 188.396 146.894 187.468C147.271 186.525 147.8 185.698 148.482 184.988C149.164 184.277 149.962 183.718 150.875 183.312C151.789 182.906 152.783 182.703 153.856 182.703C155.307 182.703 156.547 183.015 157.577 183.639C158.621 184.248 159.404 185.06 159.926 186.076L157.685 187.729C157.294 186.96 156.743 186.373 156.032 185.967C155.336 185.561 154.574 185.358 153.747 185.358C153.095 185.358 152.5 185.495 151.963 185.771C151.427 186.047 150.962 186.424 150.571 186.902C150.179 187.381 149.875 187.932 149.657 188.556C149.454 189.18 149.352 189.84 149.352 190.536C149.352 191.276 149.461 191.957 149.679 192.581C149.911 193.205 150.23 193.749 150.636 194.213C151.057 194.677 151.543 195.047 152.094 195.322C152.645 195.583 153.254 195.714 153.921 195.714C154.705 195.714 155.452 195.511 156.162 195.105C156.888 194.699 157.562 194.104 158.186 193.321V196.28C156.895 197.672 155.386 198.368 153.66 198.368ZM157.968 192.516H154.857V190.318H160.449V198.26H157.968V192.516Z" fill="#003660"/>
<path d="M130.2 182.812L134.008 190.079L137.88 182.812H141.122L135.509 192.864V198.26H132.528V192.821L126.937 182.812H130.2Z" fill="#003660"/>
<path d="M114.301 182.812H117.347L123.026 198.26H119.936L118.5 194.409H113.104L111.69 198.26H108.601L114.301 182.812ZM117.956 192.299L115.824 185.924L113.605 192.299H117.956Z" fill="#003660"/>
<path d="M103.876 198.26V182.812H106.878V198.26H103.876Z" fill="#003660"/>
<path d="M90.2847 188.339V198.26H87.2822V182.812H89.6755L97.6605 192.995V182.834H100.663V198.26H98.1609L90.2847 188.339Z" fill="#003660"/>
<path d="M71.4307 190.425C71.4307 189.482 71.5975 188.561 71.9311 187.662C72.2792 186.748 72.7796 185.921 73.4323 185.181C74.0851 184.427 74.8828 183.832 75.8257 183.397C76.7685 182.947 77.8418 182.723 79.0457 182.723C80.4672 182.723 81.6929 183.035 82.7227 183.658C83.7671 184.282 84.5431 185.094 85.0508 186.095L82.7445 187.683C82.4834 187.103 82.1426 186.646 81.7219 186.313C81.3013 185.964 80.8516 185.725 80.373 185.595C79.8943 185.45 79.4229 185.377 78.9587 185.377C78.2045 185.377 77.5445 185.529 76.9788 185.834C76.4276 186.139 75.9635 186.537 75.5863 187.031C75.2092 187.524 74.9263 188.075 74.7378 188.684C74.5637 189.293 74.4767 189.903 74.4767 190.512C74.4767 191.194 74.5855 191.853 74.8031 192.492C75.0206 193.115 75.3252 193.674 75.7169 194.167C76.123 194.646 76.6017 195.03 77.1529 195.32C77.7185 195.596 78.335 195.734 79.0022 195.734C79.4809 195.734 79.9668 195.654 80.46 195.494C80.9531 195.335 81.41 195.081 81.8307 194.733C82.2513 194.385 82.5777 193.935 82.8098 193.384L85.2684 194.798C84.9638 195.567 84.4633 196.219 83.7671 196.756C83.0854 197.293 82.3166 197.699 81.4608 197.975C80.605 198.25 79.7565 198.388 78.9152 198.388C77.8128 198.388 76.8047 198.163 75.8909 197.713C74.9771 197.249 74.1866 196.64 73.5194 195.886C72.8667 195.117 72.3517 194.261 71.9746 193.318C71.612 192.361 71.4307 191.397 71.4307 190.425Z" fill="#003660"/>
<path d="M70.3016 195.628V198.26H59.5752V182.812H70.1058V185.445H62.5777V189.166H69.0832V191.602H62.5777V195.628H70.3016Z" fill="#003660"/>
<path d="M57.6574 185.445H52.7185V198.26H49.7378V185.445H44.7988V182.812H57.6574V185.445Z" fill="#003660"/>
<path d="M36.6335 198.368C35.5021 198.368 34.4723 198.151 33.544 197.716C32.6302 197.281 31.8396 196.693 31.1724 195.953C30.5197 195.199 30.012 194.358 29.6494 193.429C29.2868 192.487 29.1055 191.522 29.1055 190.536C29.1055 189.506 29.294 188.527 29.6712 187.599C30.0628 186.656 30.5922 185.822 31.2594 185.096C31.9412 184.357 32.739 183.776 33.6528 183.356C34.5811 182.921 35.5964 182.703 36.6988 182.703C37.8157 182.703 38.831 182.928 39.7448 183.378C40.6731 183.827 41.4637 184.429 42.1164 185.183C42.7691 185.938 43.2768 186.779 43.6394 187.707C44.002 188.636 44.1833 189.593 44.1833 190.579C44.1833 191.595 43.9948 192.574 43.6176 193.517C43.2405 194.445 42.7111 195.279 42.0294 196.019C41.3621 196.744 40.5644 197.317 39.636 197.737C38.7222 198.158 37.7214 198.368 36.6335 198.368ZM32.1515 190.536C32.1515 191.203 32.253 191.848 32.4561 192.472C32.6592 193.096 32.9493 193.654 33.3264 194.147C33.718 194.626 34.1894 195.011 34.7406 195.301C35.3063 195.576 35.9445 195.714 36.6553 195.714C37.3805 195.714 38.026 195.569 38.5917 195.279C39.1574 194.974 39.6288 194.575 40.0059 194.082C40.383 193.575 40.6659 193.016 40.8545 192.407C41.0575 191.783 41.1591 191.159 41.1591 190.536C41.1591 189.869 41.0503 189.23 40.8327 188.621C40.6296 187.997 40.3323 187.446 39.9406 186.968C39.5635 186.474 39.0921 186.09 38.5264 185.814C37.9752 185.524 37.3515 185.379 36.6553 185.379C35.9155 185.379 35.2628 185.532 34.6971 185.836C34.1459 186.126 33.6818 186.518 33.3046 187.011C32.9275 187.504 32.6374 188.055 32.4343 188.665C32.2458 189.274 32.1515 189.898 32.1515 190.536Z" fill="#003660"/>
<path d="M27.9774 195.628V198.26H17.251V182.812H27.7816V185.445H20.2535V189.166H26.759V191.602H20.2535V195.628H27.9774Z" fill="#003660"/>
<path d="M7.90353 198.368C6.90269 198.368 5.95261 198.165 5.05331 197.759C4.16851 197.353 3.38524 196.795 2.70351 196.084C2.03629 195.359 1.51411 194.517 1.13698 193.56C0.759853 192.603 0.571289 191.566 0.571289 190.449C0.571289 189.39 0.759853 188.396 1.13698 187.468C1.51411 186.525 2.04354 185.698 2.72527 184.988C3.407 184.277 4.20477 183.718 5.11858 183.312C6.03239 182.906 7.02598 182.703 8.09934 182.703C9.54983 182.703 10.79 183.015 11.8199 183.639C12.8642 184.248 13.6475 185.06 14.1697 186.076L11.9286 187.729C11.537 186.96 10.9858 186.373 10.2751 185.967C9.57885 185.561 8.81734 185.358 7.99056 185.358C7.33783 185.358 6.74313 185.495 6.20645 185.771C5.66977 186.047 5.20561 186.424 4.81398 186.902C4.42235 187.381 4.11774 187.932 3.90017 188.556C3.6971 189.18 3.59556 189.84 3.59556 190.536C3.59556 191.276 3.70435 191.957 3.92193 192.581C4.154 193.205 4.47311 193.749 4.87925 194.213C5.29989 194.677 5.78581 195.047 6.337 195.322C6.88818 195.583 7.49739 195.714 8.16461 195.714C8.94788 195.714 9.69489 195.511 10.4056 195.105C11.1309 194.699 11.8054 194.104 12.4291 193.321V196.28C11.1381 197.672 9.62961 198.368 7.90353 198.368ZM12.2115 192.516H9.10018V190.318H14.6918V198.26H12.2115V192.516Z" fill="#003660"/>
<path d="M55.0752 200.346H205.004V202.999H55.0752V200.346Z" fill="#003660"/>
</svg>
