<svg width="1398" height="285" viewBox="0 0 1398 285" fill="none" xmlns="http://www.w3.org/2000/svg">
<path d="M128.066 185.138C119.325 188.001 102.818 193.361 102.818 193.361C101.6 193.787 100.534 193.909 99.1942 193.726L83.4792 188.701C75.713 186.234 67.9773 183.767 67.9773 183.767L67.0027 183.036L66.8809 104.826V103.486C83.5705 98.0653 99.8643 91.5783 99.8643 91.5783C99.8643 91.5783 117.224 83.9644 133.518 78.6651C133.518 89.7509 133.518 103.943 133.518 103.943L133.335 183.371L128.036 185.107L128.066 185.138Z" fill="#182C45"/>
<path d="M213.28 263.657V265.21L214.194 266.55L244.132 284.854C245.411 285.189 246.416 284.945 247.604 284.153L262.222 275.017C269.562 270.418 276.902 265.819 276.902 265.819C276.902 265.819 276.201 177.163 276.293 103.795C257.167 96.09 247.39 92.6485 247.39 92.6485C247.39 92.6485 231.706 86.527 213.128 78.9131V121.368C213.128 121.368 213.25 248.124 213.28 263.657Z" fill="#182C45"/>
<path d="M172.926 60.8216L203.108 75.9885L203.199 80.8918V221.627C203.199 221.627 196.346 225.982 189.433 230.398L175.454 239.291C174.327 240.053 173.383 240.296 172.165 239.961L143.811 222.328L142.927 221.048L142.592 73.0343" fill="#182C45"/>
<path d="M54.8201 100.443L55.0942 129.193L0 104.432V72.3321L171.374 4.57764e-05L299.044 57.2261L347.194 76.2609V105.102L286.283 129.467V96.2702L174.663 46.9626L54.8201 100.443Z" fill="#182C45"/>
<path d="M1344.35 48.627C1350.3 48.627 1356.36 48.627 1362.52 48.627C1368.78 48.627 1374.89 48.7809 1380.84 49.0889C1386.9 49.2942 1392.44 49.7048 1397.47 50.3207L1396.08 70.9543H1356.36C1354.1 70.9543 1352.35 71.5702 1351.12 72.802C1349.89 73.9312 1349.27 75.5224 1349.27 77.5755V126.85C1349.27 128.903 1349.89 130.545 1351.12 131.777C1352.35 132.906 1354.1 133.471 1356.36 133.471H1396.08L1397.47 154.104C1392.44 154.618 1386.9 155.028 1380.84 155.336C1374.89 155.541 1368.78 155.644 1362.52 155.644C1356.36 155.747 1350.3 155.798 1344.35 155.798C1337.26 155.798 1331.52 153.694 1327.1 149.485C1322.69 145.276 1320.48 139.784 1320.48 133.009V71.4162C1320.48 64.5384 1322.69 59.0464 1327.1 54.9402C1331.52 50.7314 1337.26 48.627 1344.35 48.627ZM1323.25 90.8179H1390.54V110.373H1323.25V90.8179Z" fill="#182C45"/>
<path d="M1258.22 47.5518C1266.94 47.5518 1274.33 48.4243 1280.39 50.1694C1286.55 51.9146 1291.48 54.8402 1295.17 58.9464C1298.97 63.0526 1301.69 68.6472 1303.33 75.7304C1305.08 82.7109 1305.95 91.5391 1305.95 102.215C1305.95 112.891 1305.08 121.771 1303.33 128.854C1301.69 135.834 1298.97 141.378 1295.17 145.484C1291.48 149.59 1286.55 152.516 1280.39 154.261C1274.33 156.006 1266.94 156.879 1258.22 156.879C1249.7 156.879 1241.84 156.725 1234.66 156.417C1227.57 156.109 1220.85 155.749 1214.49 155.339L1226.34 134.551C1230.04 134.859 1234.61 135.116 1240.05 135.321C1245.49 135.424 1251.54 135.475 1258.22 135.475C1262.63 135.475 1266.07 134.551 1268.53 132.703C1271.1 130.856 1272.9 127.519 1273.92 122.695C1274.95 117.87 1275.46 111.043 1275.46 102.215C1275.46 93.3869 1274.95 86.5604 1273.92 81.7356C1272.9 76.9109 1271.1 73.5746 1268.53 71.7268C1266.07 69.8791 1262.63 68.9552 1258.22 68.9552C1251.95 68.9552 1246.36 68.9552 1241.43 68.9552C1236.61 68.9552 1231.94 68.9552 1227.42 68.9552L1214.49 49.0916C1220.95 48.681 1227.68 48.3217 1234.66 48.0137C1241.74 47.7057 1249.59 47.5518 1258.22 47.5518ZM1243.43 49.0916V155.339H1214.49V49.0916H1243.43Z" fill="#182C45"/>
<path d="M1195.94 49.0918V145.176C1195.94 151.951 1192.6 155.339 1185.93 155.339H1173C1169.92 155.339 1167.61 154.62 1166.07 153.183C1164.63 151.746 1163.14 149.642 1161.6 146.87L1135.58 101.599C1134.35 99.0331 1133.11 96.2614 1131.88 93.2845C1130.65 90.3075 1129.62 87.3305 1128.8 84.3535H1127.42C1127.83 87.3305 1128.14 90.4102 1128.34 93.5924C1128.65 96.6721 1128.8 99.649 1128.8 102.523V155.339H1101.86V59.2546C1101.86 52.4794 1105.24 49.0918 1112.02 49.0918H1124.8C1127.88 49.0918 1130.14 49.8104 1131.57 51.2475C1133.01 52.6847 1134.55 54.7891 1136.19 57.5608L1161.14 101.138C1162.58 103.601 1163.96 106.322 1165.3 109.299C1166.63 112.276 1167.91 115.406 1169.15 118.691H1170.53C1170.22 115.509 1169.97 112.378 1169.76 109.299C1169.56 106.219 1169.45 103.139 1169.45 100.06L1169.3 49.0918H1195.94Z" fill="#182C45"/>
<path d="M1054.44 49.0918C1056.8 49.0918 1058.85 49.759 1060.6 51.0936C1062.44 52.4281 1063.68 54.2758 1064.29 56.6369L1093.4 155.339H1063.83L1045.2 82.0438C1044.79 80.2987 1044.43 78.4509 1044.12 76.5005C1043.81 74.4474 1043.51 72.5483 1043.2 70.8032H1039.04C1038.83 72.5483 1038.53 74.4474 1038.12 76.5005C1037.81 78.4509 1037.45 80.2987 1037.04 82.0438L1018.41 155.339H988.842L1017.94 56.6369C1018.56 54.2758 1019.74 52.4281 1021.49 51.0936C1023.33 49.759 1025.44 49.0918 1027.8 49.0918H1054.44ZM1069.07 109.299V130.086H1013.17V109.299H1069.07Z" fill="#182C45"/>
<path d="M939.863 47.5518C949.821 47.5518 957.93 48.527 964.192 50.4774C970.454 52.4278 975.022 55.7128 977.897 60.3322C980.874 64.849 982.362 71.2649 982.362 79.5799C982.362 84.0967 981.695 88.2029 980.36 91.8984C979.129 95.594 976.973 98.6223 973.893 100.983C970.814 103.242 966.605 104.679 961.267 105.295V106.219C963.217 106.424 965.27 107.04 967.426 108.066C969.684 109.093 971.737 110.787 973.585 113.148C975.536 115.406 976.922 118.537 977.743 122.541L986.52 155.339H956.185L948.64 123.465C947.922 120.18 946.792 118.024 945.253 116.997C943.713 115.868 941.454 115.304 938.477 115.304C931.086 115.201 924.978 115.15 920.154 115.15C915.329 115.15 911.223 115.098 907.835 114.996C904.55 114.893 901.419 114.739 898.442 114.534L898.904 94.3621H939.247C942.943 94.3621 945.766 94.0028 947.716 93.2842C949.769 92.5657 951.207 91.2825 952.028 89.4347C952.849 87.4843 953.26 84.8153 953.26 81.4277C953.26 77.9374 952.849 75.2684 952.028 73.4206C951.207 71.5729 949.769 70.2897 947.716 69.5711C945.766 68.8525 942.943 68.4932 939.247 68.4932C929.085 68.4932 920.462 68.5446 913.379 68.6472C906.398 68.7499 901.625 68.9039 899.058 69.1092L896.749 49.0916C901.265 48.5783 905.525 48.219 909.529 48.0137C913.533 47.8084 917.895 47.7057 922.617 47.7057C927.442 47.6031 933.191 47.5518 939.863 47.5518ZM925.081 49.0916V155.339H896.749V49.0916H925.081Z" fill="#182C45"/>
<path d="M840.672 46.9346C845.907 46.9346 850.527 47.0886 854.53 47.3965C858.636 47.7045 862.435 48.1664 865.925 48.7824C869.518 49.2956 873.059 50.0655 876.549 51.0921L874.394 72.0336C870.698 71.9309 867.105 71.8796 863.615 71.8796C860.125 71.7769 856.583 71.7256 852.99 71.7256C849.397 71.6229 845.394 71.5716 840.98 71.5716C837.387 71.5716 834.359 71.9822 831.895 72.8035C829.534 73.6247 827.635 75.1645 826.198 77.4229C824.863 79.6813 823.888 82.8636 823.272 86.9697C822.656 90.9733 822.348 96.106 822.348 102.368C822.348 110.272 822.81 116.432 823.734 120.846C824.76 125.26 826.403 128.339 828.661 130.085C830.92 131.83 834.051 132.702 838.054 132.702C840.723 132.702 843.136 132.548 845.291 132.24C847.55 131.83 849.551 131.316 851.297 130.7C853.144 129.982 854.735 129.366 856.07 128.853L858.996 141.479C857.661 143.532 855.505 145.842 852.528 148.408C849.654 150.872 846.061 153.028 841.75 154.876C837.438 156.621 832.459 157.493 826.813 157.493C818.806 157.493 812.185 155.645 806.95 151.95C801.817 148.152 798.019 142.198 795.555 134.088C793.194 125.978 792.014 115.354 792.014 102.214C792.014 88.4582 793.553 77.5769 796.633 69.5698C799.815 61.4602 804.948 55.6602 812.031 52.1699C819.217 48.6797 828.764 46.9346 840.672 46.9346ZM880.707 94.2069V155.338H859.458L855.608 139.015L852.99 133.934V94.2069H880.707Z" fill="#182C45"/>
<path d="M748.882 49.0918C751.243 49.0918 753.296 49.759 755.041 51.0936C756.889 52.4281 758.121 54.2758 758.737 56.6369L787.84 155.339H758.275L739.643 82.0438C739.233 80.2987 738.873 78.4509 738.565 76.5005C738.257 74.4474 737.95 72.5483 737.642 70.8032H733.484C733.279 72.5483 732.971 74.4474 732.56 76.5005C732.252 78.4509 731.893 80.2987 731.482 82.0438L712.851 155.339H683.286L712.389 56.6369C713.005 54.2758 714.185 52.4281 715.93 51.0936C717.778 49.759 719.882 49.0918 722.243 49.0918H748.882ZM763.51 109.299V130.086H707.615V109.299H763.51Z" fill="#182C45"/>
<path d="M638.995 46.9346C644.436 47.0372 650.441 47.3965 657.011 48.0124C663.581 48.6284 669.946 49.9115 676.105 51.862L674.257 70.6477C669.74 70.5451 664.197 70.4424 657.627 70.3397C651.16 70.2371 644.795 70.1858 638.533 70.1858C636.172 70.1858 634.171 70.2884 632.528 70.4937C630.988 70.5964 629.705 70.9044 628.679 71.4176C627.755 71.8282 627.088 72.4955 626.677 73.4194C626.266 74.2406 626.061 75.4211 626.061 76.961C626.061 79.4247 626.78 81.3238 628.217 82.6583C629.757 83.8901 632.426 85.1733 636.224 86.5078L656.087 93.8989C664.71 97.2865 670.716 101.495 674.103 106.525C677.593 111.453 679.339 117.869 679.339 125.773C679.339 131.727 678.62 136.757 677.183 140.863C675.746 144.969 673.385 148.203 670.1 150.564C666.917 152.925 662.657 154.67 657.319 155.799C652.084 156.929 645.565 157.493 637.764 157.493C634.171 157.493 628.884 157.237 621.903 156.723C615.026 156.21 607.224 154.876 598.498 152.72L600.192 132.394C606.351 132.497 611.792 132.651 616.514 132.856C621.339 132.959 625.496 133.062 628.987 133.164C632.58 133.164 635.402 133.164 637.456 133.164C640.946 133.164 643.615 133.01 645.463 132.702C647.31 132.292 648.594 131.624 649.312 130.7C650.031 129.674 650.39 128.237 650.39 126.389C650.39 124.644 650.133 123.258 649.62 122.231C649.107 121.205 648.183 120.332 646.848 119.614C645.617 118.895 643.923 118.177 641.767 117.458L620.518 108.989C612.1 105.499 606.146 101.341 602.656 96.5166C599.166 91.6918 597.42 85.3786 597.42 77.5769C597.42 71.4176 598.19 66.3876 599.73 62.4867C601.27 58.5858 603.631 55.5062 606.813 53.2478C610.098 50.9894 614.41 49.3983 619.748 48.4744C625.086 47.4478 631.502 46.9346 638.995 46.9346Z" fill="#182C45"/>
<path d="M553.698 49.0918C556.059 49.0918 558.112 49.759 559.857 51.0936C561.705 52.4281 562.937 54.2758 563.553 56.6369L592.655 155.339H563.091L544.459 82.0438C544.049 80.2987 543.689 78.4509 543.381 76.5005C543.073 74.4474 542.765 72.5483 542.457 70.8032H538.3C538.095 72.5483 537.787 74.4474 537.376 76.5005C537.068 78.4509 536.709 80.2987 536.298 82.0438L517.666 155.339H488.102L517.205 56.6369C517.82 54.2758 519.001 52.4281 520.746 51.0936C522.594 49.759 524.698 49.0918 527.059 49.0918H553.698ZM568.326 109.299V130.086H512.431V109.299H568.326Z" fill="#182C45"/>
<path d="M449.656 47.2451C454.994 47.2451 459.511 47.3991 463.207 47.7071C467.005 48.015 470.444 48.4256 473.523 48.9389C476.706 49.4522 479.939 50.1708 483.224 51.0946L481.069 72.3441C477.578 72.1388 474.345 72.0361 471.368 72.0361C468.391 71.9335 465.208 71.8821 461.821 71.8821C458.433 71.7795 454.378 71.7282 449.656 71.7282C445.448 71.7282 442.111 72.6007 439.648 74.3458C437.287 76.091 435.644 79.1706 434.72 83.5847C433.796 87.9989 433.334 94.2094 433.334 102.216C433.334 110.224 433.796 116.434 434.72 120.848C435.644 125.262 437.287 128.342 439.648 130.087C442.111 131.832 445.448 132.705 449.656 132.705C457.15 132.705 463.361 132.602 468.288 132.397C473.318 132.192 478.348 131.832 483.378 131.319L485.534 152.414C480.401 154.16 475.115 155.391 469.674 156.11C464.336 156.829 457.663 157.188 449.656 157.188C438.262 157.188 429.126 155.443 422.248 151.952C415.472 148.36 410.545 142.56 407.465 134.553C404.488 126.546 403 115.767 403 102.216C403 88.6661 404.488 77.8874 407.465 69.8804C410.545 61.8733 415.472 56.1247 422.248 52.6345C429.126 49.0416 438.262 47.2451 449.656 47.2451Z" fill="#182C45"/>
<path d="M488.045 185.384C490.731 185.384 493.101 185.463 495.155 185.621C497.262 185.779 499.21 186.016 501.001 186.332C502.844 186.595 504.661 186.99 506.452 187.517L505.346 198.261C503.45 198.208 501.607 198.182 499.816 198.182C498.025 198.129 496.208 198.103 494.365 198.103C492.522 198.05 490.468 198.024 488.203 198.024C486.36 198.024 484.806 198.235 483.542 198.656C482.331 199.077 481.356 199.867 480.619 201.026C479.934 202.185 479.434 203.817 479.118 205.924C478.802 207.978 478.644 210.611 478.644 213.824C478.644 217.879 478.881 221.039 479.355 223.304C479.882 225.569 480.724 227.149 481.883 228.044C483.042 228.939 484.648 229.387 486.702 229.387C488.071 229.387 489.309 229.308 490.415 229.15C491.574 228.939 492.601 228.676 493.496 228.36C494.444 227.991 495.26 227.675 495.945 227.412L497.446 233.89C496.761 234.943 495.655 236.128 494.128 237.445C492.653 238.709 490.81 239.815 488.598 240.763C486.386 241.658 483.832 242.106 480.935 242.106C476.827 242.106 473.43 241.158 470.744 239.262C468.111 237.313 466.162 234.259 464.898 230.098C463.687 225.937 463.081 220.486 463.081 213.745C463.081 206.688 463.871 201.105 465.451 196.997C467.084 192.836 469.717 189.861 473.351 188.07C477.038 186.279 481.936 185.384 488.045 185.384ZM508.585 209.637V241H497.683L495.708 232.626L494.365 230.019V209.637H508.585ZM528.665 186.253C531.72 186.253 534.827 186.253 537.987 186.253C541.2 186.253 544.334 186.332 547.388 186.49C550.496 186.595 553.34 186.806 555.92 187.122L555.209 197.708H534.827C533.669 197.708 532.773 198.024 532.141 198.656C531.509 199.235 531.193 200.052 531.193 201.105V226.385C531.193 227.438 531.509 228.281 532.141 228.913C532.773 229.492 533.669 229.782 534.827 229.782H555.209L555.92 240.368C553.34 240.631 550.496 240.842 547.388 241C544.334 241.105 541.2 241.158 537.987 241.158C534.827 241.211 531.72 241.237 528.665 241.237C525.031 241.237 522.082 240.157 519.817 237.998C517.553 235.839 516.42 233.021 516.42 229.545V197.945C516.42 194.416 517.553 191.599 519.817 189.492C522.082 187.333 525.031 186.253 528.665 186.253ZM517.842 207.899H552.365V217.932H517.842V207.899ZM585.55 185.384C590.079 185.384 593.897 185.832 597.005 186.727C600.112 187.622 602.64 189.15 604.589 191.309C606.537 193.416 607.933 196.286 608.776 199.92C609.618 203.554 610.04 208.162 610.04 213.745C610.04 219.275 609.618 223.883 608.776 227.57C607.933 231.204 606.537 234.101 604.589 236.26C602.64 238.367 600.112 239.868 597.005 240.763C593.897 241.658 590.079 242.106 585.55 242.106C581.073 242.106 577.255 241.658 574.095 240.763C570.987 239.868 568.459 238.367 566.511 236.26C564.562 234.101 563.166 231.204 562.324 227.57C561.481 223.883 561.06 219.275 561.06 213.745C561.06 208.162 561.481 203.554 562.324 199.92C563.166 196.286 564.562 193.416 566.511 191.309C568.459 189.15 570.987 187.622 574.095 186.727C577.255 185.832 581.073 185.384 585.55 185.384ZM585.55 196.681C583.232 196.681 581.415 197.155 580.099 198.103C578.835 199.051 577.939 200.763 577.413 203.238C576.886 205.713 576.623 209.216 576.623 213.745C576.623 218.274 576.886 221.777 577.413 224.252C577.939 226.727 578.835 228.439 580.099 229.387C581.415 230.335 583.232 230.809 585.55 230.809C587.867 230.809 589.658 230.335 590.922 229.387C592.238 228.439 593.134 226.727 593.608 224.252C594.134 221.777 594.398 218.274 594.398 213.745C594.398 209.216 594.134 205.713 593.608 203.238C593.134 200.763 592.238 199.051 590.922 198.103C589.658 197.155 587.867 196.681 585.55 196.681ZM644.279 186.49V241H629.427V186.49H644.279ZM660 186.49V197.787H613.627V186.49H660ZM677.639 186.253C680.693 186.253 683.801 186.253 686.961 186.253C690.173 186.253 693.307 186.332 696.362 186.49C699.469 186.595 702.313 186.806 704.894 187.122L704.183 197.708H683.801C682.642 197.708 681.747 198.024 681.115 198.656C680.483 199.235 680.167 200.052 680.167 201.105V226.385C680.167 227.438 680.483 228.281 681.115 228.913C681.747 229.492 682.642 229.782 683.801 229.782H704.183L704.894 240.368C702.313 240.631 699.469 240.842 696.362 241C693.307 241.105 690.173 241.158 686.961 241.158C683.801 241.211 680.693 241.237 677.639 241.237C674.005 241.237 671.055 240.157 668.791 237.998C666.526 235.839 665.394 233.021 665.394 229.545V197.945C665.394 194.416 666.526 191.599 668.791 189.492C671.055 187.333 674.005 186.253 677.639 186.253ZM666.816 207.899H701.339V217.932H666.816V207.899ZM733.97 185.542C736.709 185.542 739.026 185.621 740.922 185.779C742.871 185.937 744.635 186.148 746.215 186.411C747.848 186.674 749.507 187.043 751.192 187.517L750.086 198.419C748.295 198.314 746.636 198.261 745.109 198.261C743.582 198.208 741.949 198.182 740.211 198.182C738.473 198.129 736.393 198.103 733.97 198.103C731.811 198.103 730.099 198.551 728.835 199.446C727.624 200.341 726.781 201.921 726.307 204.186C725.833 206.451 725.596 209.637 725.596 213.745C725.596 217.853 725.833 221.039 726.307 223.304C726.781 225.569 727.624 227.149 728.835 228.044C730.099 228.939 731.811 229.387 733.97 229.387C737.815 229.387 741.001 229.334 743.529 229.229C746.11 229.124 748.69 228.939 751.271 228.676L752.377 239.499C749.744 240.394 747.031 241.026 744.24 241.395C741.501 241.764 738.078 241.948 733.97 241.948C728.124 241.948 723.437 241.053 719.908 239.262C716.432 237.419 713.904 234.443 712.324 230.335C710.797 226.227 710.033 220.697 710.033 213.745C710.033 206.793 710.797 201.263 712.324 197.155C713.904 193.047 716.432 190.098 719.908 188.307C723.437 186.464 728.124 185.542 733.97 185.542ZM807.099 186.49V235.786C807.099 239.262 805.387 241 801.964 241H795.328C793.748 241 792.563 240.631 791.773 239.894C791.036 239.157 790.272 238.077 789.482 236.655L776.131 213.429C775.499 212.112 774.867 210.69 774.235 209.163C773.603 207.636 773.076 206.108 772.655 204.581H771.944C772.155 206.108 772.313 207.688 772.418 209.321C772.576 210.901 772.655 212.428 772.655 213.903V241H758.83V191.704C758.83 188.228 760.568 186.49 764.044 186.49H770.601C772.181 186.49 773.34 186.859 774.077 187.596C774.814 188.333 775.604 189.413 776.447 190.835L789.245 213.192C789.982 214.456 790.693 215.852 791.378 217.379C792.063 218.906 792.721 220.513 793.353 222.198H794.064C793.906 220.565 793.774 218.959 793.669 217.379C793.564 215.799 793.511 214.219 793.511 212.639L793.432 186.49H807.099ZM831.387 186.49V241H816.693V186.49H831.387ZM869.435 186.49C870.646 186.49 871.699 186.832 872.595 187.517C873.543 188.202 874.175 189.15 874.491 190.361L889.422 241H874.254L864.695 203.396C864.484 202.501 864.3 201.553 864.142 200.552C863.984 199.499 863.826 198.524 863.668 197.629H861.535C861.429 198.524 861.271 199.499 861.061 200.552C860.903 201.553 860.718 202.501 860.508 203.396L850.949 241H835.781L850.712 190.361C851.028 189.15 851.633 188.202 852.529 187.517C853.477 186.832 854.556 186.49 855.768 186.49H869.435ZM876.94 217.379V228.044H848.263V217.379H876.94ZM931.244 216.431V225.121H907.939V216.431H931.244ZM980.021 185.384C982.707 185.384 985.077 185.463 987.131 185.621C989.237 185.779 991.186 186.016 992.977 186.332C994.82 186.595 996.637 186.99 998.428 187.517L997.322 198.261C995.426 198.208 993.582 198.182 991.792 198.182C990.001 198.129 988.184 198.103 986.341 198.103C984.497 198.05 982.443 198.024 980.179 198.024C978.335 198.024 976.782 198.235 975.518 198.656C974.306 199.077 973.332 199.867 972.595 201.026C971.91 202.185 971.41 203.817 971.094 205.924C970.778 207.978 970.62 210.611 970.62 213.824C970.62 217.879 970.857 221.039 971.331 223.304C971.857 225.569 972.7 227.149 973.859 228.044C975.017 228.939 976.624 229.387 978.678 229.387C980.047 229.387 981.285 229.308 982.391 229.15C983.549 228.939 984.576 228.676 985.472 228.36C986.42 227.991 987.236 227.675 987.921 227.412L989.422 233.89C988.737 234.943 987.631 236.128 986.104 237.445C984.629 238.709 982.786 239.815 980.574 240.763C978.362 241.658 975.807 242.106 972.911 242.106C968.803 242.106 965.406 241.158 962.72 239.262C960.086 237.313 958.138 234.259 956.874 230.098C955.662 225.937 955.057 220.486 955.057 213.745C955.057 206.688 955.847 201.105 957.427 196.997C959.059 192.836 961.693 189.861 965.327 188.07C969.013 186.279 973.911 185.384 980.021 185.384ZM1000.56 209.637V241H989.659L987.684 232.626L986.341 230.019V209.637H1000.56ZM1020.64 186.253C1023.7 186.253 1026.8 186.253 1029.96 186.253C1033.18 186.253 1036.31 186.332 1039.36 186.49C1042.47 186.595 1045.32 186.806 1047.9 187.122L1047.18 197.708H1026.8C1025.64 197.708 1024.75 198.024 1024.12 198.656C1023.48 199.235 1023.17 200.052 1023.17 201.105V226.385C1023.17 227.438 1023.48 228.281 1024.12 228.913C1024.75 229.492 1025.64 229.782 1026.8 229.782H1047.18L1047.9 240.368C1045.32 240.631 1042.47 240.842 1039.36 241C1036.31 241.105 1033.18 241.158 1029.96 241.158C1026.8 241.211 1023.7 241.237 1020.64 241.237C1017.01 241.237 1014.06 240.157 1011.79 237.998C1009.53 235.839 1008.4 233.021 1008.4 229.545V197.945C1008.4 194.416 1009.53 191.599 1011.79 189.492C1014.06 187.333 1017.01 186.253 1020.64 186.253ZM1009.82 207.899H1044.34V217.932H1009.82V207.899ZM1077.53 185.384C1082.05 185.384 1085.87 185.832 1088.98 186.727C1092.09 187.622 1094.62 189.15 1096.56 191.309C1098.51 193.416 1099.91 196.286 1100.75 199.92C1101.59 203.554 1102.02 208.162 1102.02 213.745C1102.02 219.275 1101.59 223.883 1100.75 227.57C1099.91 231.204 1098.51 234.101 1096.56 236.26C1094.62 238.367 1092.09 239.868 1088.98 240.763C1085.87 241.658 1082.05 242.106 1077.53 242.106C1073.05 242.106 1069.23 241.658 1066.07 240.763C1062.96 239.868 1060.43 238.367 1058.49 236.26C1056.54 234.101 1055.14 231.204 1054.3 227.57C1053.46 223.883 1053.04 219.275 1053.04 213.745C1053.04 208.162 1053.46 203.554 1054.3 199.92C1055.14 196.286 1056.54 193.416 1058.49 191.309C1060.43 189.15 1062.96 187.622 1066.07 186.727C1069.23 185.832 1073.05 185.384 1077.53 185.384ZM1077.53 196.681C1075.21 196.681 1073.39 197.155 1072.07 198.103C1070.81 199.051 1069.91 200.763 1069.39 203.238C1068.86 205.713 1068.6 209.216 1068.6 213.745C1068.6 218.274 1068.86 221.777 1069.39 224.252C1069.91 226.727 1070.81 228.439 1072.07 229.387C1073.39 230.335 1075.21 230.809 1077.53 230.809C1079.84 230.809 1081.63 230.335 1082.9 229.387C1084.21 228.439 1085.11 226.727 1085.58 224.252C1086.11 221.777 1086.37 218.274 1086.37 213.745C1086.37 209.216 1086.11 205.713 1085.58 203.238C1085.11 200.763 1084.21 199.051 1082.9 198.103C1081.63 197.155 1079.84 196.681 1077.53 196.681ZM1122.1 186.253C1125.05 186.253 1128.08 186.279 1131.19 186.332C1134.29 186.332 1137.32 186.411 1140.27 186.569C1143.27 186.674 1145.98 186.885 1148.41 187.201L1147.7 197.708H1128.34C1127.13 197.708 1126.18 198.024 1125.5 198.656C1124.87 199.235 1124.55 200.052 1124.55 201.105V241H1109.7V198.024C1109.7 194.495 1110.83 191.651 1113.09 189.492C1115.41 187.333 1118.41 186.253 1122.1 186.253ZM1111.12 208.926H1144.77V218.959H1111.12V208.926ZM1169.37 186.49V241H1154.68V186.49H1169.37ZM1198.34 185.384C1201.13 185.437 1204.21 185.621 1207.58 185.937C1210.95 186.253 1214.22 186.911 1217.38 187.912L1216.43 197.55C1214.11 197.497 1211.27 197.445 1207.9 197.392C1204.58 197.339 1201.31 197.313 1198.1 197.313C1196.89 197.313 1195.86 197.366 1195.02 197.471C1194.23 197.524 1193.57 197.682 1193.04 197.945C1192.57 198.156 1192.23 198.498 1192.02 198.972C1191.81 199.393 1191.7 199.999 1191.7 200.789C1191.7 202.053 1192.07 203.027 1192.81 203.712C1193.6 204.344 1194.97 205.002 1196.92 205.687L1207.11 209.479C1211.53 211.217 1214.61 213.376 1216.35 215.957C1218.14 218.485 1219.04 221.777 1219.04 225.832C1219.04 228.887 1218.67 231.467 1217.93 233.574C1217.19 235.681 1215.98 237.34 1214.3 238.551C1212.66 239.762 1210.48 240.658 1207.74 241.237C1205.05 241.816 1201.71 242.106 1197.71 242.106C1195.86 242.106 1193.15 241.974 1189.57 241.711C1186.04 241.448 1182.04 240.763 1177.56 239.657L1178.43 229.229C1181.59 229.282 1184.38 229.361 1186.8 229.466C1189.28 229.519 1191.41 229.571 1193.2 229.624C1195.05 229.624 1196.49 229.624 1197.55 229.624C1199.34 229.624 1200.71 229.545 1201.66 229.387C1202.6 229.176 1203.26 228.834 1203.63 228.36C1204 227.833 1204.18 227.096 1204.18 226.148C1204.18 225.253 1204.05 224.542 1203.79 224.015C1203.52 223.488 1203.05 223.041 1202.37 222.672C1201.73 222.303 1200.87 221.935 1199.76 221.566L1188.86 217.221C1184.54 215.43 1181.48 213.297 1179.69 210.822C1177.9 208.347 1177.01 205.108 1177.01 201.105C1177.01 197.945 1177.4 195.364 1178.19 193.363C1178.98 191.362 1180.19 189.782 1181.83 188.623C1183.51 187.464 1185.72 186.648 1188.46 186.174C1191.2 185.647 1194.49 185.384 1198.34 185.384ZM1240.97 186.49V241H1226.27V186.49H1240.97ZM1272.77 185.542C1275.51 185.542 1277.83 185.621 1279.73 185.779C1281.68 185.937 1283.44 186.148 1285.02 186.411C1286.65 186.674 1288.31 187.043 1290 187.517L1288.89 198.419C1287.1 198.314 1285.44 198.261 1283.91 198.261C1282.39 198.208 1280.75 198.182 1279.02 198.182C1277.28 198.129 1275.2 198.103 1272.77 198.103C1270.62 198.103 1268.9 198.551 1267.64 199.446C1266.43 200.341 1265.59 201.921 1265.11 204.186C1264.64 206.451 1264.4 209.637 1264.4 213.745C1264.4 217.853 1264.64 221.039 1265.11 223.304C1265.59 225.569 1266.43 227.149 1267.64 228.044C1268.9 228.939 1270.62 229.387 1272.77 229.387C1276.62 229.387 1279.81 229.334 1282.33 229.229C1284.91 229.124 1287.5 228.939 1290.08 228.676L1291.18 239.499C1288.55 240.394 1285.84 241.026 1283.04 241.395C1280.31 241.764 1276.88 241.948 1272.77 241.948C1266.93 241.948 1262.24 241.053 1258.71 239.262C1255.24 237.419 1252.71 234.443 1251.13 230.335C1249.6 226.227 1248.84 220.697 1248.84 213.745C1248.84 206.793 1249.6 201.263 1251.13 197.155C1252.71 193.047 1255.24 190.098 1258.71 188.307C1262.24 186.464 1266.93 185.542 1272.77 185.542ZM1326.15 186.49C1327.36 186.49 1328.42 186.832 1329.31 187.517C1330.26 188.202 1330.89 189.15 1331.21 190.361L1346.14 241H1330.97L1321.41 203.396C1321.2 202.501 1321.02 201.553 1320.86 200.552C1320.7 199.499 1320.54 198.524 1320.39 197.629H1318.25C1318.15 198.524 1317.99 199.499 1317.78 200.552C1317.62 201.553 1317.44 202.501 1317.23 203.396L1307.67 241H1292.5L1307.43 190.361C1307.75 189.15 1308.35 188.202 1309.25 187.517C1310.2 186.832 1311.28 186.49 1312.49 186.49H1326.15ZM1333.66 217.379V228.044H1304.98V217.379H1333.66Z" fill="#182C45"/>
</svg>
