<svg width="1164" height="233" viewBox="0 0 1164 233" fill="none" xmlns="http://www.w3.org/2000/svg">
<path d="M1163.91 155.27V178.705H1094.15V80.8271H1162.67V104.263H1121.03V118.048H1156.6V139.83H1121.03V155.27H1163.91Z" fill="#003660"/>
<path d="M995.471 178.705V80.8271H1033.11C1043.95 80.8271 1053 83.0329 1060.26 87.4443C1067.62 91.7638 1073.13 97.6456 1076.81 105.09C1080.57 112.442 1082.46 120.622 1082.46 129.628C1082.46 139.554 1080.39 148.193 1076.25 155.545C1072.21 162.898 1066.47 168.596 1059.02 172.64C1051.67 176.683 1043.03 178.705 1033.11 178.705H995.471ZM1055.16 129.628C1055.16 124.574 1054.29 120.162 1052.54 116.394C1050.8 112.534 1048.27 109.547 1044.96 107.433C1041.65 105.32 1037.7 104.263 1033.11 104.263H1022.35V155.27H1033.11C1037.79 155.27 1041.74 154.167 1044.96 151.961C1048.27 149.755 1050.8 146.723 1052.54 142.863C1054.29 138.911 1055.16 134.499 1055.16 129.628Z" fill="#003660"/>
<path d="M918.423 130.593V178.705H891.541V80.8271H912.495L951.784 130.593V80.8271H978.666V178.705H957.299L918.423 130.593Z" fill="#003660"/>
<path d="M822.2 80.8271H852.252L883.408 178.705H856.112L850.185 159.543H824.13L818.34 178.705H790.906L822.2 80.8271ZM845.911 141.622L837.226 107.158L828.128 141.622H845.911Z" fill="#003660"/>
<path d="M706.564 178.705V80.8271H751.506C756.285 80.8271 760.696 81.7921 764.74 83.7221C768.784 85.6521 772.276 88.2714 775.217 91.58C778.158 94.7966 780.41 98.4268 781.972 102.471C783.626 106.514 784.453 110.604 784.453 114.74C784.453 118.508 783.902 122.138 782.799 125.631C781.696 129.123 780.088 132.34 777.974 135.28C775.86 138.13 773.333 140.611 770.392 142.725L791.07 178.705H761.569L744.337 148.653H733.446V178.705H706.564ZM733.446 125.217H750.403C751.506 125.217 752.563 124.803 753.574 123.976C754.584 123.149 755.412 121.954 756.055 120.392C756.79 118.83 757.158 116.946 757.158 114.74C757.158 112.442 756.744 110.558 755.917 109.088C755.182 107.525 754.217 106.331 753.022 105.503C751.919 104.676 750.816 104.263 749.714 104.263H733.446V125.217Z" fill="#003660"/>
<path d="M646.977 179.394C640.635 179.394 634.569 178.292 628.779 176.086C623.081 173.788 618.027 170.48 613.615 166.16C609.204 161.749 605.711 156.464 603.138 150.307C600.657 144.057 599.416 136.935 599.416 128.939C599.416 122.046 600.703 115.659 603.276 109.777C605.849 103.895 609.388 98.7483 613.891 94.3369C618.486 89.8336 623.817 86.3412 629.882 83.8598C635.948 81.3784 642.519 80.1377 649.596 80.1377C658.419 80.1377 666.414 82.0677 673.583 85.9277C680.751 89.6957 686.082 94.8883 689.574 101.505L669.585 116.808C667.655 112.948 664.76 109.869 660.9 107.571C657.04 105.182 652.95 103.987 648.631 103.987C645.414 103.987 642.473 104.63 639.808 105.917C637.143 107.204 634.799 108.996 632.777 111.293C630.847 113.591 629.331 116.348 628.228 119.565C627.217 122.689 626.712 126.136 626.712 129.904C626.712 133.764 627.263 137.256 628.366 140.381C629.469 143.506 630.985 146.217 632.915 148.515C634.937 150.72 637.327 152.466 640.084 153.753C642.841 154.948 645.92 155.545 649.32 155.545C653.64 155.545 657.775 154.488 661.727 152.375C665.679 150.169 669.263 147.09 672.48 143.138V169.331C665.128 176.04 656.626 179.394 646.977 179.394ZM671.101 145.895H653.042V126.595H693.296V178.705H671.101V145.895Z" fill="#003660"/>
<path d="M539.352 80.8271H569.405L600.56 178.705H573.265L567.337 159.543H541.282L535.492 178.705H508.059L539.352 80.8271ZM563.063 141.622L554.378 107.158L545.28 141.622H563.063Z" fill="#003660"/>
<path d="M493.362 112.81C493.362 112.81 492.581 112.35 491.019 111.431C489.456 110.512 487.388 109.501 484.815 108.398C482.242 107.204 479.439 106.147 476.406 105.228C473.373 104.309 470.386 103.849 467.445 103.849C465.148 103.849 463.264 104.217 461.793 104.952C460.323 105.687 459.587 106.928 459.587 108.674C459.587 110.328 460.323 111.661 461.793 112.672C463.264 113.683 465.331 114.602 467.997 115.429C470.754 116.256 474.016 117.267 477.784 118.462C483.85 120.3 489.089 122.414 493.5 124.803C497.911 127.193 501.312 130.272 503.701 134.04C506.091 137.716 507.286 142.633 507.286 148.79C507.286 154.672 506.229 159.635 504.115 163.679C502.001 167.631 499.152 170.802 495.568 173.191C491.984 175.581 487.986 177.327 483.574 178.43C479.163 179.441 474.66 179.946 470.064 179.946C465.377 179.946 460.46 179.486 455.314 178.567C450.259 177.556 445.342 176.224 440.563 174.57C435.784 172.823 431.419 170.801 427.467 168.504L439.047 144.93C439.047 144.93 439.966 145.482 441.804 146.585C443.642 147.688 446.077 148.928 449.11 150.307C452.143 151.685 455.498 152.926 459.174 154.029C462.942 155.132 466.71 155.683 470.478 155.683C473.419 155.683 475.441 155.316 476.544 154.58C477.738 153.753 478.336 152.696 478.336 151.41C478.336 149.48 477.325 148.009 475.303 146.998C473.281 145.895 470.616 144.884 467.307 143.965C464.091 142.954 460.506 141.806 456.555 140.519C450.856 138.589 446.169 136.429 442.493 134.04C438.817 131.558 436.106 128.663 434.36 125.355C432.613 121.954 431.74 117.865 431.74 113.086C431.74 105.825 433.441 99.7594 436.841 94.8885C440.241 90.0176 444.699 86.3414 450.213 83.86C455.819 81.2867 461.839 80 468.272 80C473.051 80 477.647 80.5974 482.058 81.7921C486.561 82.895 490.743 84.2735 494.603 85.9278C498.555 87.5821 502.001 89.1445 504.942 90.6149L493.362 112.81Z" fill="#003660"/>
<path d="M365.819 80.8271H395.872L427.027 178.705H399.732L393.804 159.543H367.749L361.959 178.705H334.525L365.819 80.8271ZM389.53 141.622L380.845 107.158L371.747 141.622H389.53Z" fill="#003660"/>
<path d="M244 128.939C244 122.965 245.103 117.13 247.309 111.431C249.606 105.641 252.915 100.403 257.234 95.7158C261.554 91.0287 266.792 87.3066 272.95 84.5494C279.199 81.7004 286.23 80.2759 294.042 80.2759C303.416 80.2759 311.596 82.2518 318.58 86.2037C325.565 90.0637 330.758 95.2103 334.158 101.644L313.618 116.256C312.423 113.04 310.677 110.558 308.379 108.812C306.173 107.066 303.738 105.871 301.073 105.228C298.499 104.493 295.972 104.125 293.49 104.125C289.631 104.125 286.276 104.906 283.427 106.469C280.67 107.939 278.372 109.915 276.534 112.396C274.788 114.878 273.455 117.635 272.536 120.668C271.709 123.701 271.296 126.734 271.296 129.766C271.296 133.167 271.801 136.429 272.812 139.554C273.823 142.679 275.293 145.482 277.223 147.963C279.153 150.353 281.497 152.237 284.254 153.616C287.103 154.994 290.274 155.683 293.766 155.683C296.248 155.683 298.775 155.316 301.348 154.581C303.922 153.753 306.265 152.467 308.379 150.721C310.493 148.974 312.101 146.631 313.204 143.69L335.123 156.786C333.193 161.565 329.977 165.655 325.473 169.055C320.97 172.456 315.869 175.075 310.171 176.913C304.473 178.659 298.821 179.533 293.215 179.533C285.954 179.533 279.291 178.108 273.226 175.259C267.252 172.318 262.059 168.458 257.648 163.679C253.328 158.808 249.974 153.386 247.584 147.412C245.195 141.346 244 135.189 244 128.939Z" fill="#003660"/>
<path d="M1019.5 231.888C1016.6 231.888 1013.96 231.33 1011.59 230.215C1009.25 229.101 1007.22 227.595 1005.51 225.7C1003.84 223.768 1002.54 221.612 1001.61 219.234C1000.68 216.819 1000.21 214.347 1000.21 211.82C1000.21 209.182 1000.7 206.673 1001.66 204.295C1002.67 201.88 1004.02 199.743 1005.73 197.885C1007.48 195.989 1009.52 194.503 1011.87 193.425C1014.24 192.31 1016.84 191.753 1019.67 191.753C1022.53 191.753 1025.13 192.329 1027.47 193.481C1029.85 194.633 1031.88 196.175 1033.55 198.108C1035.22 200.04 1036.52 202.195 1037.45 204.574C1038.38 206.952 1038.84 209.405 1038.84 211.932C1038.84 214.533 1038.36 217.042 1037.4 219.457C1036.43 221.835 1035.07 223.972 1033.33 225.867C1031.62 227.726 1029.57 229.193 1027.19 230.271C1024.85 231.349 1022.29 231.888 1019.5 231.888ZM1008.02 211.82C1008.02 213.53 1008.28 215.183 1008.8 216.781C1009.32 218.379 1010.06 219.81 1011.03 221.074C1012.03 222.3 1013.24 223.285 1014.65 224.028C1016.1 224.734 1017.74 225.087 1019.56 225.087C1021.42 225.087 1023.07 224.715 1024.52 223.972C1025.97 223.192 1027.18 222.17 1028.14 220.906C1029.11 219.606 1029.83 218.175 1030.32 216.614C1030.84 215.016 1031.1 213.418 1031.1 211.82C1031.1 210.111 1030.82 208.476 1030.26 206.915C1029.74 205.317 1028.98 203.905 1027.97 202.678C1027.01 201.415 1025.8 200.43 1024.35 199.724C1022.94 198.981 1021.34 198.609 1019.56 198.609C1017.66 198.609 1015.99 198.999 1014.54 199.78C1013.13 200.523 1011.94 201.526 1010.97 202.79C1010.01 204.053 1009.26 205.466 1008.74 207.026C1008.26 208.587 1008.02 210.185 1008.02 211.82Z" fill="#003660"/>
<path d="M998.626 198.777H985.972V231.609H978.335V198.777H965.682V192.032H998.626V198.777Z" fill="#003660"/>
<path d="M963.028 224.864V231.609H935.547V192.032H962.526V198.777H943.239V208.309H959.906V214.552H943.239V224.864H963.028Z" fill="#003660"/>
<path d="M898.477 231.609V192.032H915.98C917.801 192.032 919.473 192.403 920.997 193.147C922.557 193.89 923.895 194.893 925.01 196.157C926.162 197.42 927.035 198.832 927.63 200.393C928.262 201.954 928.578 203.552 928.578 205.187C928.578 206.859 928.28 208.476 927.686 210.037C927.128 211.56 926.311 212.898 925.233 214.05C924.155 215.202 922.892 216.094 921.443 216.726L930.473 231.609H922L913.862 218.342H906.169V231.609H898.477ZM906.169 211.597H915.813C916.779 211.597 917.633 211.319 918.377 210.761C919.12 210.167 919.715 209.386 920.16 208.42C920.606 207.454 920.829 206.376 920.829 205.187C920.829 203.924 920.569 202.827 920.049 201.898C919.529 200.932 918.86 200.17 918.042 199.613C917.262 199.055 916.407 198.777 915.478 198.777H906.169V211.597Z" fill="#003660"/>
<path d="M857.867 211.542C857.867 209.126 858.295 206.766 859.149 204.462C860.041 202.121 861.323 200.003 862.995 198.108C864.668 196.175 866.712 194.651 869.127 193.537C871.543 192.385 874.293 191.809 877.377 191.809C881.019 191.809 884.159 192.608 886.798 194.206C889.473 195.803 891.461 197.885 892.762 200.449L886.853 204.518C886.184 203.031 885.311 201.861 884.233 201.006C883.156 200.114 882.004 199.501 880.777 199.167C879.551 198.795 878.343 198.609 877.154 198.609C875.222 198.609 873.531 198.999 872.082 199.78C870.669 200.56 869.48 201.582 868.514 202.846C867.548 204.109 866.823 205.521 866.34 207.082C865.894 208.643 865.671 210.204 865.671 211.764C865.671 213.511 865.95 215.202 866.507 216.837C867.065 218.435 867.845 219.866 868.848 221.129C869.889 222.356 871.115 223.34 872.527 224.084C873.977 224.79 875.556 225.143 877.266 225.143C878.492 225.143 879.737 224.938 881 224.53C882.264 224.121 883.434 223.47 884.512 222.579C885.59 221.687 886.426 220.535 887.021 219.123L893.32 222.746C892.539 224.715 891.257 226.388 889.473 227.763C887.727 229.138 885.757 230.178 883.565 230.884C881.372 231.59 879.198 231.943 877.043 231.943C874.218 231.943 871.636 231.367 869.294 230.215C866.953 229.026 864.928 227.465 863.218 225.533C861.546 223.563 860.227 221.371 859.261 218.955C858.332 216.503 857.867 214.031 857.867 211.542Z" fill="#003660"/>
<path d="M825.441 206.19V231.609H817.748V192.032H823.88L844.337 218.119V192.087H852.03V231.609H845.619L825.441 206.19Z" fill="#003660"/>
<path d="M792.504 231.888C789.605 231.888 786.967 231.33 784.588 230.215C782.247 229.101 780.222 227.595 778.512 225.7C776.84 223.768 775.539 221.612 774.61 219.234C773.681 216.819 773.217 214.347 773.217 211.82C773.217 209.182 773.7 206.673 774.666 204.295C775.669 201.88 777.026 199.743 778.735 197.885C780.482 195.989 782.526 194.503 784.867 193.425C787.245 192.31 789.847 191.753 792.671 191.753C795.532 191.753 798.134 192.329 800.475 193.481C802.853 194.633 804.879 196.175 806.551 198.108C808.223 200.04 809.524 202.195 810.453 204.574C811.382 206.952 811.846 209.405 811.846 211.932C811.846 214.533 811.363 217.042 810.397 219.457C809.431 221.835 808.075 223.972 806.328 225.867C804.619 227.726 802.575 229.193 800.196 230.271C797.855 231.349 795.291 231.888 792.504 231.888ZM781.021 211.82C781.021 213.53 781.281 215.183 781.801 216.781C782.321 218.379 783.065 219.81 784.031 221.074C785.034 222.3 786.242 223.285 787.654 224.028C789.103 224.734 790.739 225.087 792.559 225.087C794.418 225.087 796.071 224.715 797.521 223.972C798.97 223.192 800.178 222.17 801.144 220.906C802.11 219.606 802.835 218.175 803.318 216.614C803.838 215.016 804.098 213.418 804.098 211.82C804.098 210.111 803.82 208.476 803.262 206.915C802.742 205.317 801.98 203.905 800.977 202.678C800.01 201.415 798.803 200.43 797.353 199.724C795.941 198.981 794.343 198.609 792.559 198.609C790.664 198.609 788.992 198.999 787.543 199.78C786.13 200.523 784.941 201.526 783.975 202.79C783.009 204.053 782.266 205.466 781.745 207.026C781.262 208.587 781.021 210.185 781.021 211.82Z" fill="#003660"/>
<path d="M735.492 211.542C735.492 209.126 735.92 206.766 736.774 204.462C737.666 202.121 738.948 200.003 740.621 198.108C742.293 196.175 744.337 194.651 746.752 193.537C749.168 192.385 751.918 191.809 755.002 191.809C758.644 191.809 761.784 192.608 764.423 194.206C767.098 195.803 769.086 197.885 770.387 200.449L764.478 204.518C763.809 203.031 762.936 201.861 761.858 201.006C760.781 200.114 759.629 199.501 758.402 199.167C757.176 198.795 755.968 198.609 754.779 198.609C752.847 198.609 751.156 198.999 749.707 199.78C748.294 200.56 747.105 201.582 746.139 202.846C745.173 204.109 744.448 205.521 743.965 207.082C743.519 208.643 743.296 210.204 743.296 211.764C743.296 213.511 743.575 215.202 744.132 216.837C744.69 218.435 745.47 219.866 746.473 221.129C747.514 222.356 748.74 223.34 750.152 224.084C751.602 224.79 753.181 225.143 754.891 225.143C756.117 225.143 757.362 224.938 758.625 224.53C759.889 224.121 761.059 223.47 762.137 222.579C763.215 221.687 764.051 220.535 764.646 219.123L770.945 222.746C770.164 224.715 768.882 226.388 767.098 227.763C765.352 229.138 763.382 230.178 761.19 230.884C758.997 231.59 756.823 231.943 754.668 231.943C751.843 231.943 749.261 231.367 746.919 230.215C744.578 229.026 742.553 227.465 740.843 225.533C739.171 223.563 737.852 221.371 736.886 218.955C735.957 216.503 735.492 214.031 735.492 211.542Z" fill="#003660"/>
<path d="M694.227 192.032L703.982 210.65L713.904 192.032H722.209L707.828 217.785V231.609H700.191V217.673L685.865 192.032H694.227Z" fill="#003660"/>
<path d="M653.493 192.032H661.297L675.846 231.609H667.931L664.252 221.743H650.427L646.804 231.609H638.889L653.493 192.032ZM662.858 216.336L657.395 200.003L651.709 216.336H662.858Z" fill="#003660"/>
<path d="M626.785 231.609V192.032H634.478V231.609H626.785Z" fill="#003660"/>
<path d="M591.962 206.19V231.609H584.27V192.032H590.401L610.859 218.119V192.087H618.551V231.609H612.141L591.962 206.19Z" fill="#003660"/>
<path d="M543.658 211.542C543.658 209.126 544.086 206.766 544.94 204.462C545.832 202.121 547.114 200.003 548.787 198.108C550.459 196.175 552.503 194.651 554.918 193.537C557.334 192.385 560.084 191.809 563.168 191.809C566.81 191.809 569.95 192.608 572.589 194.206C575.264 195.803 577.252 197.885 578.553 200.449L572.644 204.518C571.976 203.031 571.102 201.861 570.024 201.006C568.947 200.114 567.795 199.501 566.568 199.167C565.342 198.795 564.134 198.609 562.945 198.609C561.013 198.609 559.322 198.999 557.873 199.78C556.46 200.56 555.271 201.582 554.305 202.846C553.339 204.109 552.614 205.521 552.131 207.082C551.685 208.643 551.462 210.204 551.462 211.764C551.462 213.511 551.741 215.202 552.298 216.837C552.856 218.435 553.636 219.866 554.64 221.129C555.68 222.356 556.906 223.34 558.319 224.084C559.768 224.79 561.347 225.143 563.057 225.143C564.283 225.143 565.528 224.938 566.791 224.53C568.055 224.121 569.226 223.47 570.303 222.579C571.381 221.687 572.217 220.535 572.812 219.123L579.111 222.746C578.33 224.715 577.048 226.388 575.264 227.763C573.518 229.138 571.548 230.178 569.356 230.884C567.163 231.59 564.989 231.943 562.834 231.943C560.009 231.943 557.427 231.367 555.085 230.215C552.744 229.026 550.719 227.465 549.009 225.533C547.337 223.563 546.018 221.371 545.052 218.955C544.123 216.503 543.658 214.031 543.658 211.542Z" fill="#003660"/>
<path d="M540.766 224.864V231.609H513.285V192.032H540.265V198.777H520.978V208.309H537.645V214.552H520.978V224.864H540.766Z" fill="#003660"/>
<path d="M508.372 198.777H495.718V231.609H488.081V198.777H475.428V192.032H508.372V198.777Z" fill="#003660"/>
<path d="M454.51 231.888C451.611 231.888 448.973 231.33 446.594 230.215C444.253 229.101 442.228 227.595 440.518 225.7C438.846 223.768 437.545 221.612 436.616 219.234C435.687 216.819 435.223 214.347 435.223 211.82C435.223 209.182 435.706 206.673 436.672 204.295C437.675 201.88 439.032 199.743 440.741 197.885C442.488 195.989 444.532 194.503 446.873 193.425C449.251 192.31 451.853 191.753 454.677 191.753C457.538 191.753 460.14 192.329 462.481 193.481C464.859 194.633 466.885 196.175 468.557 198.108C470.229 200.04 471.53 202.195 472.459 204.574C473.388 206.952 473.852 209.405 473.852 211.932C473.852 214.533 473.369 217.042 472.403 219.457C471.437 221.835 470.08 223.972 468.334 225.867C466.624 227.726 464.58 229.193 462.202 230.271C459.861 231.349 457.297 231.888 454.51 231.888ZM443.027 211.82C443.027 213.53 443.287 215.183 443.807 216.781C444.327 218.379 445.071 219.81 446.037 221.074C447.04 222.3 448.248 223.285 449.66 224.028C451.109 224.734 452.744 225.087 454.565 225.087C456.423 225.087 458.077 224.715 459.526 223.972C460.976 223.192 462.184 222.17 463.15 220.906C464.116 219.606 464.841 218.175 465.324 216.614C465.844 215.016 466.104 213.418 466.104 211.82C466.104 210.111 465.825 208.476 465.268 206.915C464.748 205.317 463.986 203.905 462.983 202.678C462.016 201.415 460.809 200.43 459.359 199.724C457.947 198.981 456.349 198.609 454.565 198.609C452.67 198.609 450.998 198.999 449.549 199.78C448.136 200.523 446.947 201.526 445.981 202.79C445.015 204.053 444.272 205.466 443.751 207.026C443.268 208.587 443.027 210.185 443.027 211.82Z" fill="#003660"/>
<path d="M432.331 224.864V231.609H404.85V192.032H431.829V198.777H412.542V208.309H429.209V214.552H412.542V224.864H432.331Z" fill="#003660"/>
<path d="M380.901 231.888C378.336 231.888 375.902 231.367 373.598 230.327C371.331 229.286 369.325 227.856 367.578 226.035C365.869 224.177 364.531 222.021 363.565 219.569C362.598 217.116 362.115 214.459 362.115 211.597C362.115 208.885 362.598 206.339 363.565 203.961C364.531 201.545 365.887 199.427 367.634 197.606C369.38 195.785 371.424 194.354 373.765 193.314C376.107 192.273 378.652 191.753 381.402 191.753C385.118 191.753 388.296 192.552 390.934 194.15C393.61 195.711 395.617 197.792 396.954 200.393L391.213 204.629C390.21 202.66 388.797 201.155 386.976 200.114C385.193 199.074 383.242 198.554 381.123 198.554C379.451 198.554 377.928 198.907 376.553 199.613C375.178 200.319 373.988 201.285 372.985 202.511C371.982 203.738 371.201 205.15 370.644 206.748C370.124 208.346 369.863 210.037 369.863 211.82C369.863 213.716 370.142 215.462 370.7 217.06C371.294 218.658 372.112 220.052 373.152 221.241C374.23 222.43 375.475 223.378 376.887 224.084C378.299 224.753 379.86 225.087 381.569 225.087C383.576 225.087 385.49 224.567 387.311 223.526C389.169 222.486 390.897 220.962 392.495 218.955V226.536C389.188 230.104 385.323 231.888 380.901 231.888ZM391.938 216.893H383.966V211.263H398.292V231.609H391.938V216.893Z" fill="#003660"/>
<path d="M66.8996 192.633L52.1296 183.187L25.375 200.7V44.6543C39.3126 30.6134 52.3004 15.7421 66.8996 2.30518V192.633Z" fill="#003660"/>
<path d="M0 233L52.737 199.206L88.96 221.956L155.371 179.941L190.41 201.285L190.808 192.009H214.961V216.372L239.92 233H221.803L157.759 192.402L155.844 191.978L90.5738 233H72.4569L78.8903 227.964L52.737 211.594L18.9238 233H0Z" fill="#003660"/>
<path d="M89.9685 207.622L76.127 198.296V0L89.9685 7.69976V207.622Z" fill="#E9BE74"/>
<path d="M94.582 9.22852L108.304 16.6549L108.424 192.862C107.901 195.876 97.3046 200.603 94.582 203.009V9.22852Z" fill="#E9BE74"/>
<path d="M113.039 23.0679C117.011 25.3634 125.145 27.6802 128.474 30.1458C128.978 30.5178 129.293 30.7622 129.155 31.3786L129.066 179.218C128.474 182.077 116.28 187.2 113.039 189.166V23.0679Z" fill="#E9BE74"/>
<path d="M156.874 80.7417V163.784L133.805 177.632V103.135L154.429 82.0263L156.874 80.7417Z" fill="#003660"/>
<path d="M177.633 85.6425V175.327L163.791 166.119V78.4365L177.633 85.6425Z" fill="#E9BE74"/>
<path d="M196.088 177.634H182.246V89.9707C187.088 91.9386 191.887 94.5517 196.088 97.6057V177.623V177.634Z" fill="#E9BE74"/>
<path d="M216.852 108.641V177.633H200.703V101.504C205.908 103.933 211.215 107.072 216.852 108.641Z" fill="#E9BE74"/>
<path d="M166.101 207.624H156.873V216.851H166.101V207.624Z" fill="#003660"/>
<path d="M166.101 221.462H156.873V230.69H166.101V221.462Z" fill="#003660"/>
<path d="M154.565 207.624H147.645V216.851H154.565V207.624Z" fill="#003660"/>
<path d="M154.565 221.462H147.645V230.69H154.565V221.462Z" fill="#003660"/>
<path d="M57.6763 219.157H53.0625V226.078H57.6763V219.157Z" fill="#003660"/>
<path d="M57.6763 226.077H53.0625V230.691H57.6763V226.077Z" fill="#003660"/>
<path d="M50.7506 219.157H46.1367V226.078H50.7506V219.157Z" fill="#003660"/>
<path d="M50.7506 226.077H46.1367V230.691H50.7506V226.077Z" fill="#003660"/>
</svg>
