<svg width="1156" height="222" viewBox="0 0 1156 222" fill="none" xmlns="http://www.w3.org/2000/svg">
<path d="M1155.56 106.859V128.299H1091.75V38.7567H1154.43V60.1964H1116.34V72.808H1148.88V92.7343H1116.34V106.859H1155.56Z" fill="#182C45"/>
<path d="M1001.47 128.299V38.7567H1035.9C1045.82 38.7567 1054.11 40.7746 1060.75 44.8103C1067.47 48.7619 1072.52 54.1429 1075.88 60.9531C1079.33 67.6793 1081.05 75.1622 1081.05 83.4017C1081.05 92.4821 1079.16 100.385 1075.38 107.112C1071.68 113.838 1066.42 119.05 1059.61 122.75C1052.89 126.449 1044.98 128.299 1035.9 128.299H1001.47ZM1056.08 83.4017C1056.08 78.7775 1055.28 74.7418 1053.68 71.2946C1052.09 67.7634 1049.78 65.0309 1046.75 63.0971C1043.72 61.1633 1040.11 60.1964 1035.9 60.1964H1026.07V106.859H1035.9C1040.19 106.859 1043.81 105.85 1046.75 103.833C1049.78 101.815 1052.09 99.0401 1053.68 95.5089C1055.28 91.8935 1056.08 87.8578 1056.08 83.4017Z" fill="#182C45"/>
<path d="M930.985 84.2846V128.299H906.393V38.7567H925.562L961.505 84.2846V38.7567H986.098V128.299H966.55L930.985 84.2846Z" fill="#182C45"/>
<path d="M842.956 38.7567H870.45L898.952 128.299H873.981L868.558 110.769H844.722L839.425 128.299H814.328L842.956 38.7567ZM864.648 94.3738L856.703 62.8448L848.379 94.3738H864.648Z" fill="#182C45"/>
<path d="M737.17 128.299V38.7567H778.284C782.656 38.7567 786.691 39.6395 790.391 41.4051C794.09 43.1708 797.285 45.567 799.976 48.5938C802.666 51.5365 804.726 54.8575 806.155 58.5569C807.669 62.2563 808.425 65.9978 808.425 69.7812C808.425 73.2284 807.921 76.5494 806.912 79.7444C805.903 82.9393 804.432 85.882 802.498 88.5725C800.564 91.1789 798.252 93.449 795.562 95.3828L814.479 128.299H787.49L771.726 100.806H761.763V128.299H737.17ZM761.763 79.366H777.275C778.284 79.366 779.251 78.9877 780.175 78.231C781.1 77.4743 781.857 76.3813 782.446 74.952C783.118 73.5227 783.454 71.7991 783.454 69.7812C783.454 67.6793 783.076 65.9557 782.319 64.6105C781.647 63.1812 780.764 62.0882 779.671 61.3315C778.662 60.5748 777.653 60.1964 776.644 60.1964H761.763V79.366Z" fill="#182C45"/>
<path d="M682.656 128.93C676.855 128.93 671.306 127.921 666.009 125.903C660.796 123.801 656.172 120.774 652.136 116.822C648.101 112.787 644.906 107.952 642.552 102.319C640.282 96.6018 639.146 90.0859 639.146 82.7711C639.146 76.4653 640.324 70.622 642.678 65.241C645.032 59.8601 648.269 55.1517 652.389 51.116C656.593 46.9963 661.469 43.8013 667.018 41.5312C672.567 39.2611 678.579 38.1261 685.053 38.1261C693.124 38.1261 700.439 39.8917 706.997 43.423C713.555 46.8701 718.431 51.6205 721.626 57.6741L703.339 71.6729C701.574 68.1417 698.925 65.3251 695.394 63.2232C691.863 61.0372 688.121 59.9441 684.17 59.9441C681.227 59.9441 678.537 60.5327 676.098 61.7098C673.66 62.8869 671.516 64.5264 669.667 66.6283C667.901 68.7302 666.514 71.2525 665.505 74.1952C664.58 77.0539 664.117 80.2068 664.117 83.6539C664.117 87.1852 664.622 90.3801 665.631 93.2387C666.64 96.0974 668.027 98.5777 669.793 100.68C671.642 102.697 673.828 104.295 676.351 105.472C678.873 106.565 681.69 107.111 684.8 107.111C688.752 107.111 692.536 106.145 696.151 104.211C699.766 102.193 703.045 99.3764 705.988 95.7611V119.723C699.262 125.861 691.485 128.93 682.656 128.93ZM704.727 98.2834H688.206V80.6272H725.031V128.299H704.727V98.2834Z" fill="#182C45"/>
<path d="M584.199 38.7567H611.692L640.194 128.299H615.223L609.8 110.769H585.964L580.667 128.299H555.57L584.199 38.7567ZM605.891 94.3738L597.945 62.8448L589.622 94.3738H605.891Z" fill="#182C45"/>
<path d="M542.125 68.0156C542.125 68.0156 541.411 67.5952 539.981 66.7544C538.552 65.9137 536.66 64.9888 534.306 63.9799C531.952 62.8869 529.387 61.92 526.613 61.0792C523.838 60.2384 521.106 59.8181 518.415 59.8181C516.313 59.8181 514.59 60.1544 513.245 60.827C511.899 61.4996 511.227 62.6346 511.227 64.2321C511.227 65.7455 511.899 66.9646 513.245 67.8895C514.59 68.8143 516.482 69.6551 518.92 70.4118C521.442 71.1685 524.427 72.0933 527.874 73.1863C533.423 74.8679 538.216 76.8017 542.251 78.9877C546.287 81.1737 549.398 83.9903 551.584 87.4374C553.77 90.8005 554.863 95.2987 554.863 100.932C554.863 106.313 553.896 110.853 551.962 114.552C550.028 118.168 547.422 121.068 544.143 123.254C540.864 125.44 537.207 127.038 533.171 128.047C529.135 128.972 525.015 129.434 520.812 129.434C516.524 129.434 512.026 129.014 507.317 128.173C502.693 127.248 498.195 126.029 493.823 124.516C489.451 122.918 485.457 121.068 481.842 118.966L492.436 97.4006C492.436 97.4006 493.276 97.9051 494.958 98.914C496.639 99.9229 498.867 101.058 501.642 102.319C504.417 103.58 507.485 104.715 510.848 105.724C514.296 106.733 517.743 107.238 521.19 107.238C523.88 107.238 525.73 106.901 526.739 106.229C527.832 105.472 528.379 104.505 528.379 103.328C528.379 101.562 527.454 100.217 525.604 99.2923C523.754 98.2834 521.316 97.3586 518.289 96.5178C515.347 95.5929 512.068 94.542 508.452 93.3649C503.239 91.5993 498.952 89.6234 495.588 87.4374C492.225 85.1674 489.745 82.5189 488.148 79.4921C486.55 76.3813 485.751 72.6398 485.751 68.2678C485.751 61.6257 487.307 56.0766 490.418 51.6205C493.529 47.1644 497.606 43.8013 502.651 41.5312C507.78 39.1771 513.287 38 519.172 38C523.544 38 527.748 38.5465 531.784 39.6395C535.903 40.6484 539.729 41.9096 543.26 43.423C546.876 44.9364 550.028 46.3657 552.719 47.7109L542.125 68.0156Z" fill="#182C45"/>
<path d="M425.445 38.7567H452.938L481.44 128.299H456.469L451.046 110.769H427.21L421.913 128.299H396.816L425.445 38.7567ZM447.137 94.3738L439.191 62.8448L430.868 94.3738H447.137Z" fill="#182C45"/>
<path d="M314 82.7712C314 77.3062 315.009 71.9673 317.027 66.7545C319.129 61.4577 322.155 56.6652 326.107 52.3773C330.059 48.0894 334.851 44.6842 340.484 42.1619C346.202 39.5555 352.634 38.2523 359.78 38.2523C368.356 38.2523 375.839 40.06 382.229 43.6753C388.619 47.2066 393.369 51.9149 396.48 57.8003L377.689 71.1686C376.596 68.2259 374.998 65.9558 372.896 64.3583C370.878 62.7608 368.65 61.6678 366.212 61.0793C363.858 60.4067 361.546 60.0704 359.276 60.0704C355.744 60.0704 352.676 60.785 350.069 62.2143C347.547 63.5596 345.445 65.3672 343.763 67.6373C342.166 69.9074 340.947 72.4297 340.106 75.2043C339.349 77.9788 338.971 80.7534 338.971 83.5279C338.971 86.6388 339.433 89.6235 340.358 92.4822C341.283 95.3408 342.628 97.9051 344.394 100.175C346.16 102.361 348.304 104.085 350.826 105.346C353.432 106.607 356.333 107.238 359.528 107.238C361.798 107.238 364.11 106.901 366.464 106.229C368.818 105.472 370.962 104.295 372.896 102.698C374.83 101.1 376.301 98.9561 377.31 96.2656L397.363 108.247C395.597 112.619 392.654 116.36 388.534 119.471C384.415 122.582 379.748 124.978 374.536 126.66C369.323 128.257 364.152 129.056 359.023 129.056C352.381 129.056 346.286 127.753 340.737 125.146C335.272 122.456 330.521 118.924 326.485 114.552C322.534 110.096 319.465 105.136 317.279 99.6708C315.093 94.1217 314 88.4885 314 82.7712Z" fill="#182C45"/>
<path d="M1100.63 183.936C1097.3 183.936 1094.27 183.296 1091.54 182.016C1088.85 180.737 1086.53 179.009 1084.57 176.833C1082.65 174.615 1081.15 172.141 1080.09 169.411C1079.02 166.638 1078.49 163.801 1078.49 160.9C1078.49 157.872 1079.04 154.992 1080.15 152.262C1081.3 149.489 1082.86 147.036 1084.82 144.903C1086.83 142.728 1089.17 141.021 1091.86 139.784C1094.59 138.505 1097.58 137.865 1100.82 137.865C1104.1 137.865 1107.09 138.526 1109.78 139.848C1112.51 141.171 1114.83 142.941 1116.75 145.159C1118.67 147.378 1120.16 149.852 1121.23 152.582C1122.3 155.312 1122.83 158.128 1122.83 161.028C1122.83 164.014 1122.28 166.894 1121.17 169.667C1120.06 172.397 1118.5 174.85 1116.5 177.025C1114.53 179.158 1112.19 180.843 1109.46 182.08C1106.77 183.317 1103.83 183.936 1100.63 183.936ZM1087.44 160.9C1087.44 162.863 1087.74 164.761 1088.34 166.595C1088.94 168.43 1089.79 170.072 1090.9 171.522C1092.05 172.93 1093.44 174.061 1095.06 174.914C1096.72 175.724 1098.6 176.129 1100.69 176.129C1102.82 176.129 1104.72 175.703 1106.39 174.85C1108.05 173.954 1109.44 172.781 1110.54 171.33C1111.65 169.837 1112.49 168.195 1113.04 166.403C1113.64 164.569 1113.94 162.735 1113.94 160.9C1113.94 158.938 1113.62 157.061 1112.98 155.269C1112.38 153.435 1111.5 151.814 1110.35 150.406C1109.24 148.956 1107.86 147.825 1106.19 147.015C1104.57 146.162 1102.74 145.735 1100.69 145.735C1098.51 145.735 1096.59 146.183 1094.93 147.079C1093.31 147.932 1091.95 149.084 1090.84 150.534C1089.73 151.985 1088.87 153.606 1088.28 155.397C1087.72 157.189 1087.44 159.023 1087.44 160.9Z" fill="#182C45"/>
<path d="M1076.66 145.927H1062.14V183.616H1053.37V145.927H1038.84V138.185H1076.66V145.927Z" fill="#182C45"/>
<path d="M1035.8 175.874V183.616H1004.25V138.185H1035.22V145.927H1013.08V156.869H1032.21V164.036H1013.08V175.874H1035.8Z" fill="#182C45"/>
<path d="M961.697 183.616V138.185H981.79C983.88 138.185 985.799 138.611 987.548 139.464C989.34 140.318 990.876 141.469 992.156 142.92C993.478 144.37 994.481 145.991 995.163 147.783C995.888 149.574 996.251 151.409 996.251 153.286C996.251 155.205 995.91 157.061 995.227 158.853C994.587 160.602 993.649 162.137 992.412 163.46C991.174 164.782 989.724 165.806 988.06 166.531L998.426 183.616H988.7L979.358 168.387H970.528V183.616H961.697ZM970.528 160.644H981.598C982.707 160.644 983.688 160.324 984.541 159.685C985.394 159.002 986.077 158.106 986.589 156.997C987.101 155.888 987.356 154.651 987.356 153.286C987.356 151.835 987.058 150.577 986.461 149.51C985.863 148.401 985.096 147.527 984.157 146.887C983.261 146.247 982.28 145.927 981.214 145.927H970.528V160.644Z" fill="#182C45"/>
<path d="M915.082 160.58C915.082 157.808 915.573 155.099 916.554 152.454C917.578 149.766 919.049 147.335 920.969 145.159C922.889 142.941 925.235 141.192 928.008 139.912C930.78 138.59 933.937 137.929 937.478 137.929C941.658 137.929 945.263 138.846 948.292 140.68C951.363 142.514 953.646 144.903 955.139 147.847L948.356 152.518C947.588 150.812 946.585 149.468 945.348 148.487C944.111 147.463 942.789 146.759 941.381 146.375C939.973 145.948 938.587 145.735 937.222 145.735C935.004 145.735 933.063 146.183 931.399 147.079C929.778 147.975 928.413 149.148 927.304 150.598C926.195 152.049 925.363 153.67 924.808 155.461C924.296 157.253 924.04 159.045 924.04 160.836C924.04 162.841 924.36 164.782 925 166.659C925.64 168.494 926.536 170.136 927.688 171.586C928.882 172.994 930.29 174.125 931.911 174.978C933.575 175.788 935.388 176.193 937.35 176.193C938.758 176.193 940.187 175.959 941.637 175.49C943.087 175.02 944.431 174.274 945.668 173.25C946.905 172.226 947.865 170.904 948.548 169.283L955.778 173.442C954.883 175.703 953.411 177.623 951.363 179.201C949.358 180.779 947.097 181.974 944.581 182.784C942.064 183.595 939.568 184 937.094 184C933.852 184 930.887 183.339 928.2 182.016C925.512 180.651 923.187 178.86 921.225 176.641C919.305 174.38 917.791 171.864 916.682 169.091C915.615 166.275 915.082 163.439 915.082 160.58Z" fill="#182C45"/>
<path d="M877.858 154.438V183.616H869.027V138.185H876.066L899.55 168.131V138.249H908.38V183.616H901.021L877.858 154.438Z" fill="#182C45"/>
<path d="M840.052 183.936C836.725 183.936 833.696 183.296 830.966 182.016C828.278 180.737 825.953 179.009 823.991 176.833C822.071 174.615 820.578 172.141 819.512 169.411C818.445 166.638 817.912 163.801 817.912 160.9C817.912 157.872 818.467 154.992 819.576 152.262C820.728 149.489 822.285 147.036 824.247 144.903C826.252 142.728 828.598 141.021 831.286 139.784C834.016 138.505 837.002 137.865 840.244 137.865C843.529 137.865 846.515 138.526 849.202 139.848C851.932 141.171 854.257 142.941 856.177 145.159C858.097 147.378 859.59 149.852 860.656 152.582C861.723 155.312 862.256 158.128 862.256 161.028C862.256 164.014 861.701 166.894 860.592 169.667C859.483 172.397 857.926 174.85 855.921 177.025C853.959 179.158 851.612 180.843 848.882 182.08C846.195 183.317 843.251 183.936 840.052 183.936ZM826.87 160.9C826.87 162.863 827.169 164.761 827.766 166.595C828.363 168.43 829.217 170.072 830.326 171.522C831.478 172.93 832.864 174.061 834.485 174.914C836.149 175.724 838.026 176.129 840.116 176.129C842.249 176.129 844.147 175.703 845.811 174.85C847.475 173.954 848.861 172.781 849.97 171.33C851.079 169.837 851.911 168.195 852.466 166.403C853.063 164.569 853.361 162.735 853.361 160.9C853.361 158.938 853.042 157.061 852.402 155.269C851.804 153.435 850.93 151.814 849.778 150.406C848.669 148.956 847.283 147.825 845.619 147.015C843.998 146.162 842.164 145.735 840.116 145.735C837.94 145.735 836.021 146.183 834.357 147.079C832.736 147.932 831.371 149.084 830.262 150.534C829.153 151.985 828.299 153.606 827.702 155.397C827.148 157.189 826.87 159.023 826.87 160.9Z" fill="#182C45"/>
<path d="M774.607 160.58C774.607 157.808 775.098 155.099 776.079 152.454C777.103 149.766 778.575 147.335 780.494 145.159C782.414 142.941 784.76 141.192 787.533 139.912C790.306 138.59 793.463 137.929 797.003 137.929C801.184 137.929 804.788 138.846 807.817 140.68C810.889 142.514 813.171 144.903 814.664 147.847L807.881 152.518C807.113 150.812 806.111 149.468 804.874 148.487C803.637 147.463 802.314 146.759 800.907 146.375C799.499 145.948 798.112 145.735 796.747 145.735C794.529 145.735 792.588 146.183 790.924 147.079C789.303 147.975 787.938 149.148 786.829 150.598C785.72 152.049 784.888 153.67 784.334 155.461C783.822 157.253 783.566 159.045 783.566 160.836C783.566 162.841 783.886 164.782 784.526 166.659C785.165 168.494 786.061 170.136 787.213 171.586C788.407 172.994 789.815 174.125 791.436 174.978C793.1 175.788 794.913 176.193 796.875 176.193C798.283 176.193 799.712 175.959 801.162 175.49C802.613 175.02 803.957 174.274 805.194 173.25C806.431 172.226 807.391 170.904 808.073 169.283L815.304 173.442C814.408 175.703 812.936 177.623 810.889 179.201C808.884 180.779 806.623 181.974 804.106 182.784C801.589 183.595 799.094 184 796.619 184C793.377 184 790.412 183.339 787.725 182.016C785.037 180.651 782.713 178.86 780.75 176.641C778.831 174.38 777.316 171.864 776.207 169.091C775.141 166.275 774.607 163.439 774.607 160.58Z" fill="#182C45"/>
<path d="M727.235 138.185L738.433 159.557L749.823 138.185H759.357L742.848 167.747V183.616H734.082V167.619L717.637 138.185H727.235Z" fill="#182C45"/>
<path d="M680.478 138.185H689.436L706.137 183.616H697.051L692.827 172.29H676.958L672.799 183.616H663.713L680.478 138.185ZM691.228 166.083L684.957 147.335L678.43 166.083H691.228Z" fill="#182C45"/>
<path d="M649.82 183.616V138.185H658.651V183.616H649.82Z" fill="#182C45"/>
<path d="M609.846 154.438V183.616H601.016V138.185H608.054L631.538 168.131V138.249H640.368V183.616H633.01L609.846 154.438Z" fill="#182C45"/>
<path d="M554.398 160.58C554.398 157.808 554.889 155.099 555.87 152.454C556.894 149.766 558.366 147.335 560.285 145.159C562.205 142.941 564.551 141.192 567.324 139.912C570.097 138.59 573.254 137.929 576.794 137.929C580.975 137.929 584.579 138.846 587.608 140.68C590.68 142.514 592.962 144.903 594.455 147.847L587.672 152.518C586.904 150.812 585.902 149.468 584.665 148.487C583.428 147.463 582.105 146.759 580.698 146.375C579.29 145.948 577.903 145.735 576.538 145.735C574.32 145.735 572.379 146.183 570.715 147.079C569.094 147.975 567.729 149.148 566.62 150.598C565.511 152.049 564.679 153.67 564.125 155.461C563.613 157.253 563.357 159.045 563.357 160.836C563.357 162.841 563.677 164.782 564.317 166.659C564.956 168.494 565.852 170.136 567.004 171.586C568.199 172.994 569.606 174.125 571.227 174.978C572.891 175.788 574.704 176.193 576.666 176.193C578.074 176.193 579.503 175.959 580.954 175.49C582.404 175.02 583.748 174.274 584.985 173.25C586.222 172.226 587.182 170.904 587.864 169.283L595.095 173.442C594.199 175.703 592.727 177.623 590.68 179.201C588.675 180.779 586.414 181.974 583.897 182.784C581.38 183.595 578.885 184 576.41 184C573.168 184 570.204 183.339 567.516 182.016C564.829 180.651 562.504 178.86 560.541 176.641C558.622 174.38 557.107 171.864 555.998 169.091C554.932 166.275 554.398 163.439 554.398 160.58Z" fill="#182C45"/>
<path d="M551.079 175.874V183.616H519.533V138.185H550.503V145.927H528.364V156.869H547.496V164.036H528.364V175.874H551.079Z" fill="#182C45"/>
<path d="M513.889 145.927H499.364V183.616H490.598V145.927H476.072V138.185H513.889V145.927Z" fill="#182C45"/>
<path d="M452.06 183.936C448.732 183.936 445.704 183.296 442.973 182.016C440.286 180.737 437.961 179.009 435.999 176.833C434.079 174.615 432.586 172.141 431.52 169.411C430.453 166.638 429.92 163.801 429.92 160.9C429.92 157.872 430.474 154.992 431.584 152.262C432.735 149.489 434.292 147.036 436.255 144.903C438.26 142.728 440.606 141.021 443.293 139.784C446.024 138.505 449.01 137.865 452.252 137.865C455.536 137.865 458.523 138.526 461.21 139.848C463.94 141.171 466.265 142.941 468.185 145.159C470.104 147.378 471.597 149.852 472.664 152.582C473.73 155.312 474.264 158.128 474.264 161.028C474.264 164.014 473.709 166.894 472.6 169.667C471.491 172.397 469.934 174.85 467.929 177.025C465.967 179.158 463.62 180.843 460.89 182.08C458.203 183.317 455.259 183.936 452.06 183.936ZM438.878 160.9C438.878 162.863 439.177 164.761 439.774 166.595C440.371 168.43 441.224 170.072 442.334 171.522C443.485 172.93 444.872 174.061 446.493 174.914C448.157 175.724 450.034 176.129 452.124 176.129C454.257 176.129 456.155 175.703 457.819 174.85C459.482 173.954 460.869 172.781 461.978 171.33C463.087 169.837 463.919 168.195 464.473 166.403C465.071 164.569 465.369 162.735 465.369 160.9C465.369 158.938 465.049 157.061 464.409 155.269C463.812 153.435 462.938 151.814 461.786 150.406C460.677 148.956 459.29 147.825 457.627 147.015C456.006 146.162 454.171 145.735 452.124 145.735C449.948 145.735 448.029 146.183 446.365 147.079C444.744 147.932 443.379 149.084 442.27 150.534C441.16 151.985 440.307 153.606 439.71 155.397C439.156 157.189 438.878 159.023 438.878 160.9Z" fill="#182C45"/>
<path d="M426.603 175.874V183.616H395.057V138.185H426.027V145.927H403.887V156.869H423.019V164.036H403.887V175.874H426.603Z" fill="#182C45"/>
<path d="M367.564 183.936C364.621 183.936 361.826 183.339 359.182 182.144C356.579 180.95 354.276 179.308 352.271 177.217C350.309 175.084 348.773 172.61 347.664 169.795C346.555 166.979 346 163.929 346 160.644C346 157.53 346.555 154.608 347.664 151.878C348.773 149.105 350.33 146.674 352.335 144.583C354.34 142.493 356.686 140.851 359.374 139.656C362.061 138.462 364.983 137.865 368.14 137.865C372.406 137.865 376.053 138.782 379.082 140.616C382.153 142.408 384.457 144.797 385.993 147.783L379.402 152.646C378.25 150.385 376.629 148.657 374.539 147.463C372.491 146.268 370.251 145.671 367.82 145.671C365.9 145.671 364.151 146.076 362.573 146.887C360.995 147.697 359.629 148.807 358.478 150.214C357.326 151.622 356.43 153.243 355.79 155.077C355.193 156.912 354.894 158.853 354.894 160.9C354.894 163.076 355.214 165.081 355.854 166.915C356.537 168.75 357.475 170.349 358.67 171.714C359.907 173.079 361.336 174.167 362.957 174.978C364.578 175.746 366.37 176.129 368.332 176.129C370.635 176.129 372.832 175.532 374.923 174.338C377.056 173.143 379.039 171.394 380.874 169.091V177.793C377.077 181.888 372.64 183.936 367.564 183.936ZM380.234 166.723H371.083V160.26H387.528V183.616H380.234V166.723Z" fill="#182C45"/>
<path d="M99.7562 144.215C92.9476 146.445 80.0894 150.62 80.0894 150.62C79.1405 150.953 78.3102 151.047 77.2663 150.905L65.025 146.991C58.9755 145.069 52.9498 143.147 52.9498 143.147L52.1906 142.578L52.0957 81.6562V80.6124C65.0962 76.3896 77.7882 71.3365 77.7882 71.3365C77.7882 71.3365 91.3106 65.4056 104.003 61.2777C104.003 69.9131 104.003 80.9682 104.003 80.9682L103.86 142.839L99.7325 144.191L99.7562 144.215Z" fill="#182C45"/>
<path d="M166.132 205.375V206.584L166.844 207.628L190.164 221.886C191.161 222.147 191.943 221.957 192.869 221.34L204.256 214.223C209.973 210.641 215.691 207.059 215.691 207.059C215.691 207.059 215.145 138 215.216 80.85C200.318 74.8479 192.703 72.1672 192.703 72.1672C192.703 72.1672 180.485 67.3987 166.014 61.4679V94.5384C166.014 94.5384 166.109 193.276 166.132 205.375Z" fill="#182C45"/>
<path d="M134.701 47.376L158.211 59.1903L158.282 63.0098V172.636C158.282 172.636 152.944 176.029 147.559 179.468L136.67 186.396C135.792 186.989 135.057 187.179 134.108 186.918L112.021 173.182L111.333 172.185L111.072 56.8892" fill="#182C45"/>
<path d="M42.7023 78.2401L42.9158 100.635L0 81.3479V56.3434L133.492 6.06069e-05L232.941 44.5765L270.448 59.4037V81.8698L223.001 100.849V74.99L136.054 36.5817L42.7023 78.2401Z" fill="#182C45"/>
</svg>
