<svg width="1428" height="285" viewBox="0 0 1428 285" fill="none" xmlns="http://www.w3.org/2000/svg">
<path d="M128.066 185.138C119.325 188.001 102.818 193.361 102.818 193.361C101.6 193.787 100.534 193.909 99.1942 193.726L83.4792 188.701C75.713 186.234 67.9773 183.767 67.9773 183.767L67.0027 183.036L66.8809 104.826V103.486C83.5705 98.0653 99.8643 91.5783 99.8643 91.5783C99.8643 91.5783 117.224 83.9644 133.518 78.6651C133.518 89.7509 133.518 103.943 133.518 103.943L133.335 183.371L128.036 185.107L128.066 185.138Z" fill="#182C45"/>
<path d="M213.28 263.657V265.21L214.194 266.55L244.132 284.854C245.411 285.189 246.416 284.945 247.604 284.153L262.222 275.017C269.562 270.418 276.902 265.819 276.902 265.819C276.902 265.819 276.201 177.163 276.293 103.795C257.167 96.09 247.39 92.6485 247.39 92.6485C247.39 92.6485 231.706 86.527 213.128 78.9131V121.368C213.128 121.368 213.25 248.124 213.28 263.657Z" fill="#182C45"/>
<path d="M172.926 60.8216L203.108 75.9885L203.199 80.8918V221.627C203.199 221.627 196.346 225.982 189.433 230.398L175.454 239.291C174.327 240.053 173.383 240.296 172.165 239.961L143.811 222.328L142.927 221.048L142.592 73.0343" fill="#182C45"/>
<path d="M54.8201 100.443L55.0942 129.193L0 104.432V72.3321L171.374 4.57764e-05L299.044 57.2261L347.194 76.2609V105.102L286.283 129.467V96.2702L174.663 46.9626L54.8201 100.443Z" fill="#182C45"/>
<path d="M1374.35 48.627C1380.3 48.627 1386.36 48.627 1392.52 48.627C1398.78 48.627 1404.89 48.7809 1410.84 49.0889C1416.9 49.2942 1422.44 49.7048 1427.47 50.3207L1426.08 70.9543H1386.36C1384.1 70.9543 1382.35 71.5702 1381.12 72.802C1379.89 73.9312 1379.27 75.5224 1379.27 77.5755V126.85C1379.27 128.903 1379.89 130.545 1381.12 131.777C1382.35 132.906 1384.1 133.471 1386.36 133.471H1426.08L1427.47 154.104C1422.44 154.618 1416.9 155.028 1410.84 155.336C1404.89 155.541 1398.78 155.644 1392.52 155.644C1386.36 155.747 1380.3 155.798 1374.35 155.798C1367.26 155.798 1361.52 153.694 1357.1 149.485C1352.69 145.276 1350.48 139.784 1350.48 133.009V71.4162C1350.48 64.5384 1352.69 59.0464 1357.1 54.9402C1361.52 50.7314 1367.26 48.627 1374.35 48.627ZM1353.25 90.8179H1420.54V110.373H1353.25V90.8179Z" fill="#182C45"/>
<path d="M1288.22 47.5518C1296.94 47.5518 1304.33 48.4243 1310.39 50.1694C1316.55 51.9146 1321.48 54.8402 1325.17 58.9464C1328.97 63.0526 1331.69 68.6472 1333.33 75.7304C1335.08 82.7109 1335.95 91.5391 1335.95 102.215C1335.95 112.891 1335.08 121.771 1333.33 128.854C1331.69 135.834 1328.97 141.378 1325.17 145.484C1321.48 149.59 1316.55 152.516 1310.39 154.261C1304.33 156.006 1296.94 156.879 1288.22 156.879C1279.7 156.879 1271.84 156.725 1264.66 156.417C1257.57 156.109 1250.85 155.749 1244.49 155.339L1256.34 134.551C1260.04 134.859 1264.61 135.116 1270.05 135.321C1275.49 135.424 1281.54 135.475 1288.22 135.475C1292.63 135.475 1296.07 134.551 1298.53 132.703C1301.1 130.856 1302.9 127.519 1303.92 122.695C1304.95 117.87 1305.46 111.043 1305.46 102.215C1305.46 93.3869 1304.95 86.5604 1303.92 81.7356C1302.9 76.9109 1301.1 73.5746 1298.53 71.7268C1296.07 69.8791 1292.63 68.9552 1288.22 68.9552C1281.95 68.9552 1276.36 68.9552 1271.43 68.9552C1266.61 68.9552 1261.94 68.9552 1257.42 68.9552L1244.49 49.0916C1250.95 48.681 1257.68 48.3217 1264.66 48.0137C1271.74 47.7057 1279.59 47.5518 1288.22 47.5518ZM1273.43 49.0916V155.339H1244.49V49.0916H1273.43Z" fill="#182C45"/>
<path d="M1225.94 49.0918V145.176C1225.94 151.951 1222.6 155.339 1215.93 155.339H1203C1199.92 155.339 1197.61 154.62 1196.07 153.183C1194.63 151.746 1193.14 149.642 1191.6 146.87L1165.58 101.599C1164.35 99.0331 1163.11 96.2614 1161.88 93.2845C1160.65 90.3075 1159.62 87.3305 1158.8 84.3535H1157.42C1157.83 87.3305 1158.14 90.4102 1158.34 93.5924C1158.65 96.6721 1158.8 99.649 1158.8 102.523V155.339H1131.86V59.2546C1131.86 52.4794 1135.24 49.0918 1142.02 49.0918H1154.8C1157.88 49.0918 1160.14 49.8104 1161.57 51.2475C1163.01 52.6847 1164.55 54.7891 1166.19 57.5608L1191.14 101.138C1192.58 103.601 1193.96 106.322 1195.3 109.299C1196.63 112.276 1197.91 115.406 1199.15 118.691H1200.53C1200.22 115.509 1199.97 112.378 1199.76 109.299C1199.56 106.219 1199.45 103.139 1199.45 100.06L1199.3 49.0918H1225.94Z" fill="#182C45"/>
<path d="M1084.44 49.0918C1086.8 49.0918 1088.85 49.759 1090.6 51.0936C1092.44 52.4281 1093.68 54.2758 1094.29 56.6369L1123.4 155.339H1093.83L1075.2 82.0438C1074.79 80.2987 1074.43 78.4509 1074.12 76.5005C1073.81 74.4474 1073.51 72.5483 1073.2 70.8032H1069.04C1068.83 72.5483 1068.53 74.4474 1068.12 76.5005C1067.81 78.4509 1067.45 80.2987 1067.04 82.0438L1048.41 155.339H1018.84L1047.94 56.6369C1048.56 54.2758 1049.74 52.4281 1051.49 51.0936C1053.33 49.759 1055.44 49.0918 1057.8 49.0918H1084.44ZM1099.07 109.299V130.086H1043.17V109.299H1099.07Z" fill="#182C45"/>
<path d="M969.863 47.5518C979.821 47.5518 987.93 48.527 994.192 50.4774C1000.45 52.4278 1005.02 55.7128 1007.9 60.3322C1010.87 64.849 1012.36 71.2649 1012.36 79.5799C1012.36 84.0967 1011.69 88.2029 1010.36 91.8984C1009.13 95.594 1006.97 98.6223 1003.89 100.983C1000.81 103.242 996.605 104.679 991.267 105.295V106.219C993.217 106.424 995.27 107.04 997.426 108.066C999.684 109.093 1001.74 110.787 1003.59 113.148C1005.54 115.406 1006.92 118.537 1007.74 122.541L1016.52 155.339H986.185L978.64 123.465C977.922 120.18 976.792 118.024 975.253 116.997C973.713 115.868 971.454 115.304 968.477 115.304C961.086 115.201 954.978 115.15 950.154 115.15C945.329 115.15 941.223 115.098 937.835 114.996C934.55 114.893 931.419 114.739 928.442 114.534L928.904 94.3621H969.247C972.943 94.3621 975.766 94.0028 977.716 93.2842C979.769 92.5657 981.207 91.2825 982.028 89.4347C982.849 87.4843 983.26 84.8153 983.26 81.4277C983.26 77.9374 982.849 75.2684 982.028 73.4206C981.207 71.5729 979.769 70.2897 977.716 69.5711C975.766 68.8525 972.943 68.4932 969.247 68.4932C959.085 68.4932 950.462 68.5446 943.379 68.6472C936.398 68.7499 931.625 68.9039 929.058 69.1092L926.749 49.0916C931.265 48.5783 935.525 48.219 939.529 48.0137C943.533 47.8084 947.895 47.7057 952.617 47.7057C957.442 47.6031 963.191 47.5518 969.863 47.5518ZM955.081 49.0916V155.339H926.749V49.0916H955.081Z" fill="#182C45"/>
<path d="M870.672 46.9346C875.907 46.9346 880.527 47.0886 884.53 47.3965C888.636 47.7045 892.435 48.1664 895.925 48.7824C899.518 49.2956 903.059 50.0655 906.549 51.0921L904.394 72.0336C900.698 71.9309 897.105 71.8796 893.615 71.8796C890.125 71.7769 886.583 71.7256 882.99 71.7256C879.397 71.6229 875.394 71.5716 870.98 71.5716C867.387 71.5716 864.359 71.9822 861.895 72.8035C859.534 73.6247 857.635 75.1645 856.198 77.4229C854.863 79.6813 853.888 82.8636 853.272 86.9697C852.656 90.9733 852.348 96.106 852.348 102.368C852.348 110.272 852.81 116.432 853.734 120.846C854.76 125.26 856.403 128.339 858.661 130.085C860.92 131.83 864.051 132.702 868.054 132.702C870.723 132.702 873.136 132.548 875.291 132.24C877.55 131.83 879.551 131.316 881.297 130.7C883.144 129.982 884.735 129.366 886.07 128.853L888.996 141.479C887.661 143.532 885.505 145.842 882.528 148.408C879.654 150.872 876.061 153.028 871.75 154.876C867.438 156.621 862.459 157.493 856.813 157.493C848.806 157.493 842.185 155.645 836.95 151.95C831.817 148.152 828.019 142.198 825.555 134.088C823.194 125.978 822.014 115.354 822.014 102.214C822.014 88.4582 823.553 77.5769 826.633 69.5698C829.815 61.4602 834.948 55.6602 842.031 52.1699C849.217 48.6797 858.764 46.9346 870.672 46.9346ZM910.707 94.2069V155.338H889.458L885.608 139.015L882.99 133.934V94.2069H910.707Z" fill="#182C45"/>
<path d="M778.882 49.0918C781.243 49.0918 783.296 49.759 785.041 51.0936C786.889 52.4281 788.121 54.2758 788.737 56.6369L817.84 155.339H788.275L769.643 82.0438C769.233 80.2987 768.873 78.4509 768.565 76.5005C768.257 74.4474 767.95 72.5483 767.642 70.8032H763.484C763.279 72.5483 762.971 74.4474 762.56 76.5005C762.252 78.4509 761.893 80.2987 761.482 82.0438L742.851 155.339H713.286L742.389 56.6369C743.005 54.2758 744.185 52.4281 745.93 51.0936C747.778 49.759 749.882 49.0918 752.243 49.0918H778.882ZM793.51 109.299V130.086H737.615V109.299H793.51Z" fill="#182C45"/>
<path d="M668.995 46.9346C674.436 47.0372 680.441 47.3965 687.011 48.0124C693.581 48.6284 699.946 49.9115 706.105 51.862L704.257 70.6477C699.74 70.5451 694.197 70.4424 687.627 70.3397C681.16 70.2371 674.795 70.1858 668.533 70.1858C666.172 70.1858 664.171 70.2884 662.528 70.4937C660.988 70.5964 659.705 70.9044 658.679 71.4176C657.755 71.8282 657.088 72.4955 656.677 73.4194C656.266 74.2406 656.061 75.4211 656.061 76.961C656.061 79.4247 656.78 81.3238 658.217 82.6583C659.757 83.8901 662.426 85.1733 666.224 86.5078L686.087 93.8989C694.71 97.2865 700.716 101.495 704.103 106.525C707.593 111.453 709.339 117.869 709.339 125.773C709.339 131.727 708.62 136.757 707.183 140.863C705.746 144.969 703.385 148.203 700.1 150.564C696.917 152.925 692.657 154.67 687.319 155.799C682.084 156.929 675.565 157.493 667.764 157.493C664.171 157.493 658.884 157.237 651.903 156.723C645.026 156.21 637.224 154.876 628.498 152.72L630.192 132.394C636.351 132.497 641.792 132.651 646.514 132.856C651.339 132.959 655.496 133.062 658.987 133.164C662.58 133.164 665.402 133.164 667.456 133.164C670.946 133.164 673.615 133.01 675.463 132.702C677.31 132.292 678.594 131.624 679.312 130.7C680.031 129.674 680.39 128.237 680.39 126.389C680.39 124.644 680.133 123.258 679.62 122.231C679.107 121.205 678.183 120.332 676.848 119.614C675.617 118.895 673.923 118.177 671.767 117.458L650.518 108.989C642.1 105.499 636.146 101.341 632.656 96.5166C629.166 91.6918 627.42 85.3786 627.42 77.5769C627.42 71.4176 628.19 66.3876 629.73 62.4867C631.27 58.5858 633.631 55.5062 636.813 53.2478C640.098 50.9894 644.41 49.3983 649.748 48.4744C655.086 47.4478 661.502 46.9346 668.995 46.9346Z" fill="#182C45"/>
<path d="M583.698 49.0918C586.059 49.0918 588.112 49.759 589.857 51.0936C591.705 52.4281 592.937 54.2758 593.553 56.6369L622.655 155.339H593.091L574.459 82.0438C574.049 80.2987 573.689 78.4509 573.381 76.5005C573.073 74.4474 572.765 72.5483 572.457 70.8032H568.3C568.095 72.5483 567.787 74.4474 567.376 76.5005C567.068 78.4509 566.709 80.2987 566.298 82.0438L547.666 155.339H518.102L547.205 56.6369C547.82 54.2758 549.001 52.4281 550.746 51.0936C552.594 49.759 554.698 49.0918 557.059 49.0918H583.698ZM598.326 109.299V130.086H542.431V109.299H598.326Z" fill="#182C45"/>
<path d="M479.656 47.2451C484.994 47.2451 489.511 47.3991 493.207 47.7071C497.005 48.015 500.444 48.4256 503.523 48.9389C506.706 49.4522 509.939 50.1708 513.224 51.0946L511.069 72.3441C507.578 72.1388 504.345 72.0361 501.368 72.0361C498.391 71.9335 495.208 71.8821 491.821 71.8821C488.433 71.7795 484.378 71.7282 479.656 71.7282C475.448 71.7282 472.111 72.6007 469.648 74.3458C467.287 76.091 465.644 79.1706 464.72 83.5847C463.796 87.9989 463.334 94.2094 463.334 102.216C463.334 110.224 463.796 116.434 464.72 120.848C465.644 125.262 467.287 128.342 469.648 130.087C472.111 131.832 475.448 132.705 479.656 132.705C487.15 132.705 493.361 132.602 498.288 132.397C503.318 132.192 508.348 131.832 513.378 131.319L515.534 152.414C510.401 154.16 505.115 155.391 499.674 156.11C494.336 156.829 487.663 157.188 479.656 157.188C468.262 157.188 459.126 155.443 452.248 151.952C445.472 148.36 440.545 142.56 437.465 134.553C434.488 126.546 433 115.767 433 102.216C433 88.6661 434.488 77.8874 437.465 69.8804C440.545 61.8733 445.472 56.1247 452.248 52.6345C459.126 49.0416 468.262 47.2451 479.656 47.2451Z" fill="#182C45"/>
<path d="M508.815 189.688C510.617 189.688 512.207 189.741 513.585 189.847C514.998 189.953 516.306 190.112 517.507 190.324C518.744 190.501 519.963 190.766 521.164 191.119L520.422 198.327C519.15 198.292 517.913 198.274 516.712 198.274C515.511 198.239 514.292 198.221 513.055 198.221C511.818 198.186 510.44 198.168 508.921 198.168C507.684 198.168 506.642 198.309 505.794 198.592C504.981 198.875 504.328 199.405 503.833 200.182C503.374 200.959 503.038 202.055 502.826 203.468C502.614 204.846 502.508 206.613 502.508 208.768C502.508 211.489 502.667 213.609 502.985 215.128C503.338 216.647 503.904 217.707 504.681 218.308C505.458 218.909 506.536 219.209 507.914 219.209C508.833 219.209 509.663 219.156 510.405 219.05C511.182 218.909 511.871 218.732 512.472 218.52C513.108 218.273 513.656 218.061 514.115 217.884L515.122 222.23C514.663 222.937 513.921 223.732 512.896 224.615C511.907 225.463 510.67 226.205 509.186 226.841C507.702 227.442 505.988 227.742 504.045 227.742C501.289 227.742 499.01 227.106 497.208 225.834C495.441 224.527 494.134 222.477 493.286 219.686C492.473 216.895 492.067 213.238 492.067 208.715C492.067 203.98 492.597 200.235 493.657 197.479C494.752 194.688 496.519 192.691 498.957 191.49C501.43 190.289 504.716 189.688 508.815 189.688ZM522.595 205.959V227H515.281L513.956 221.382L513.055 219.633V205.959H522.595ZM536.067 190.271C538.116 190.271 540.201 190.271 542.321 190.271C544.476 190.271 546.578 190.324 548.628 190.43C550.712 190.501 552.62 190.642 554.352 190.854L553.875 197.956H540.201C539.423 197.956 538.823 198.168 538.399 198.592C537.975 198.981 537.763 199.528 537.763 200.235V217.195C537.763 217.902 537.975 218.467 538.399 218.891C538.823 219.28 539.423 219.474 540.201 219.474H553.875L554.352 226.576C552.62 226.753 550.712 226.894 548.628 227C546.578 227.071 544.476 227.106 542.321 227.106C540.201 227.141 538.116 227.159 536.067 227.159C533.629 227.159 531.65 226.435 530.131 224.986C528.611 223.537 527.852 221.647 527.852 219.315V198.115C527.852 195.748 528.611 193.857 530.131 192.444C531.65 190.995 533.629 190.271 536.067 190.271ZM528.806 204.793H551.967V211.524H528.806V204.793ZM574.229 189.688C577.268 189.688 579.83 189.988 581.914 190.589C583.999 191.19 585.695 192.214 587.002 193.663C588.31 195.076 589.246 197.002 589.811 199.44C590.377 201.878 590.659 204.97 590.659 208.715C590.659 212.425 590.377 215.517 589.811 217.99C589.246 220.428 588.31 222.371 587.002 223.82C585.695 225.233 583.999 226.24 581.914 226.841C579.83 227.442 577.268 227.742 574.229 227.742C571.226 227.742 568.664 227.442 566.544 226.841C564.46 226.24 562.764 225.233 561.456 223.82C560.149 222.371 559.213 220.428 558.647 217.99C558.082 215.517 557.799 212.425 557.799 208.715C557.799 204.97 558.082 201.878 558.647 199.44C559.213 197.002 560.149 195.076 561.456 193.663C562.764 192.214 564.46 191.19 566.544 190.589C568.664 189.988 571.226 189.688 574.229 189.688ZM574.229 197.267C572.675 197.267 571.456 197.585 570.572 198.221C569.724 198.857 569.124 200.005 568.77 201.666C568.417 203.327 568.24 205.676 568.24 208.715C568.24 211.754 568.417 214.103 568.77 215.764C569.124 217.425 569.724 218.573 570.572 219.209C571.456 219.845 572.675 220.163 574.229 220.163C575.784 220.163 576.985 219.845 577.833 219.209C578.717 218.573 579.317 217.425 579.635 215.764C579.989 214.103 580.165 211.754 580.165 208.715C580.165 205.676 579.989 203.327 579.635 201.666C579.317 200.005 578.717 198.857 577.833 198.221C576.985 197.585 575.784 197.267 574.229 197.267ZM605.724 190.43V216.771C605.724 217.478 605.954 218.043 606.413 218.467C606.873 218.856 607.491 219.05 608.268 219.05H620.776L621.253 226.523C618.603 226.841 615.812 227.018 612.879 227.053C609.947 227.124 607.049 227.159 604.187 227.159C601.537 227.159 599.47 226.417 597.986 224.933C596.538 223.449 595.813 221.523 595.813 219.156V190.43H605.724ZM639.755 189.688C642.793 189.688 645.355 189.988 647.44 190.589C649.524 191.19 651.22 192.214 652.528 193.663C653.835 195.076 654.771 197.002 655.337 199.44C655.902 201.878 656.185 204.97 656.185 208.715C656.185 212.425 655.902 215.517 655.337 217.99C654.771 220.428 653.835 222.371 652.528 223.82C651.22 225.233 649.524 226.24 647.44 226.841C645.355 227.442 642.793 227.742 639.755 227.742C636.751 227.742 634.19 227.442 632.07 226.841C629.985 226.24 628.289 225.233 626.982 223.82C625.674 222.371 624.738 220.428 624.173 217.99C623.607 215.517 623.325 212.425 623.325 208.715C623.325 204.97 623.607 201.878 624.173 199.44C624.738 197.002 625.674 195.076 626.982 193.663C628.289 192.214 629.985 191.19 632.07 190.589C634.19 189.988 636.751 189.688 639.755 189.688ZM639.755 197.267C638.2 197.267 636.981 197.585 636.098 198.221C635.25 198.857 634.649 200.005 634.296 201.666C633.942 203.327 633.766 205.676 633.766 208.715C633.766 211.754 633.942 214.103 634.296 215.764C634.649 217.425 635.25 218.573 636.098 219.209C636.981 219.845 638.2 220.163 639.755 220.163C641.309 220.163 642.511 219.845 643.359 219.209C644.242 218.573 644.843 217.425 645.161 215.764C645.514 214.103 645.691 211.754 645.691 208.715C645.691 205.676 645.514 203.327 645.161 201.666C644.843 200.005 644.242 198.857 643.359 198.221C642.511 197.585 641.309 197.267 639.755 197.267ZM677.08 189.688C678.882 189.688 680.472 189.741 681.85 189.847C683.263 189.953 684.57 190.112 685.772 190.324C687.008 190.501 688.227 190.766 689.429 191.119L688.687 198.327C687.415 198.292 686.178 198.274 684.977 198.274C683.775 198.239 682.556 198.221 681.32 198.221C680.083 198.186 678.705 198.168 677.186 198.168C675.949 198.168 674.907 198.309 674.059 198.592C673.246 198.875 672.592 199.405 672.098 200.182C671.638 200.959 671.303 202.055 671.091 203.468C670.879 204.846 670.773 206.613 670.773 208.768C670.773 211.489 670.932 213.609 671.25 215.128C671.603 216.647 672.168 217.707 672.946 218.308C673.723 218.909 674.801 219.209 676.179 219.209C677.097 219.209 677.928 219.156 678.67 219.05C679.447 218.909 680.136 218.732 680.737 218.52C681.373 218.273 681.92 218.061 682.38 217.884L683.387 222.23C682.927 222.937 682.185 223.732 681.161 224.615C680.171 225.463 678.935 226.205 677.451 226.841C675.967 227.442 674.253 227.742 672.31 227.742C669.554 227.742 667.275 227.106 665.473 225.834C663.706 224.527 662.399 222.477 661.551 219.686C660.738 216.895 660.332 213.238 660.332 208.715C660.332 203.98 660.862 200.235 661.922 197.479C663.017 194.688 664.784 192.691 667.222 191.49C669.695 190.289 672.981 189.688 677.08 189.688ZM690.86 205.959V227H683.546L682.221 221.382L681.32 219.633V205.959H690.86ZM706.292 190.43V227H696.434V190.43H706.292ZM731.818 190.43C732.631 190.43 733.337 190.66 733.938 191.119C734.574 191.578 734.998 192.214 735.21 193.027L745.227 227H735.051L728.638 201.772C728.497 201.171 728.373 200.535 728.267 199.864C728.161 199.157 728.055 198.504 727.949 197.903H726.518C726.447 198.504 726.341 199.157 726.2 199.864C726.094 200.535 725.97 201.171 725.829 201.772L719.416 227H709.24L719.257 193.027C719.469 192.214 719.875 191.578 720.476 191.119C721.112 190.66 721.836 190.43 722.649 190.43H731.818ZM736.853 211.153V218.308H717.614V211.153H736.853ZM773.285 210.517V216.347H757.65V210.517H773.285ZM806.008 189.688C807.81 189.688 809.4 189.741 810.778 189.847C812.192 189.953 813.499 190.112 814.7 190.324C815.937 190.501 817.156 190.766 818.357 191.119L817.615 198.327C816.343 198.292 815.107 198.274 813.905 198.274C812.704 198.239 811.485 198.221 810.248 198.221C809.012 198.186 807.634 198.168 806.114 198.168C804.878 198.168 803.835 198.309 802.987 198.592C802.175 198.875 801.521 199.405 801.026 200.182C800.567 200.959 800.231 202.055 800.019 203.468C799.807 204.846 799.701 206.613 799.701 208.768C799.701 211.489 799.86 213.609 800.178 215.128C800.532 216.647 801.097 217.707 801.874 218.308C802.652 218.909 803.729 219.209 805.107 219.209C806.026 219.209 806.856 219.156 807.598 219.05C808.376 218.909 809.065 218.732 809.665 218.52C810.301 218.273 810.849 218.061 811.308 217.884L812.315 222.23C811.856 222.937 811.114 223.732 810.089 224.615C809.1 225.463 807.863 226.205 806.379 226.841C804.895 227.442 803.182 227.742 801.238 227.742C798.482 227.742 796.203 227.106 794.401 225.834C792.635 224.527 791.327 222.477 790.479 219.686C789.667 216.895 789.26 213.238 789.26 208.715C789.26 203.98 789.79 200.235 790.85 197.479C791.946 194.688 793.712 192.691 796.15 191.49C798.624 190.289 801.91 189.688 806.008 189.688ZM819.788 205.959V227H812.474L811.149 221.382L810.248 219.633V205.959H819.788ZM833.26 190.271C835.309 190.271 837.394 190.271 839.514 190.271C841.669 190.271 843.772 190.324 845.821 190.43C847.906 190.501 849.814 190.642 851.545 190.854L851.068 197.956H837.394C836.617 197.956 836.016 198.168 835.592 198.592C835.168 198.981 834.956 199.528 834.956 200.235V217.195C834.956 217.902 835.168 218.467 835.592 218.891C836.016 219.28 836.617 219.474 837.394 219.474H851.068L851.545 226.576C849.814 226.753 847.906 226.894 845.821 227C843.772 227.071 841.669 227.106 839.514 227.106C837.394 227.141 835.309 227.159 833.26 227.159C830.822 227.159 828.843 226.435 827.324 224.986C825.805 223.537 825.045 221.647 825.045 219.315V198.115C825.045 195.748 825.805 193.857 827.324 192.444C828.843 190.995 830.822 190.271 833.26 190.271ZM825.999 204.793H849.16V211.524H825.999V204.793ZM871.423 189.688C874.461 189.688 877.023 189.988 879.108 190.589C881.192 191.19 882.888 192.214 884.196 193.663C885.503 195.076 886.439 197.002 887.005 199.44C887.57 201.878 887.853 204.97 887.853 208.715C887.853 212.425 887.57 215.517 887.005 217.99C886.439 220.428 885.503 222.371 884.196 223.82C882.888 225.233 881.192 226.24 879.108 226.841C877.023 227.442 874.461 227.742 871.423 227.742C868.419 227.742 865.858 227.442 863.738 226.841C861.653 226.24 859.957 225.233 858.65 223.82C857.342 222.371 856.406 220.428 855.841 217.99C855.275 215.517 854.993 212.425 854.993 208.715C854.993 204.97 855.275 201.878 855.841 199.44C856.406 197.002 857.342 195.076 858.65 193.663C859.957 192.214 861.653 191.19 863.738 190.589C865.858 189.988 868.419 189.688 871.423 189.688ZM871.423 197.267C869.868 197.267 868.649 197.585 867.766 198.221C866.918 198.857 866.317 200.005 865.964 201.666C865.61 203.327 865.434 205.676 865.434 208.715C865.434 211.754 865.61 214.103 865.964 215.764C866.317 217.425 866.918 218.573 867.766 219.209C868.649 219.845 869.868 220.163 871.423 220.163C872.977 220.163 874.179 219.845 875.027 219.209C875.91 218.573 876.511 217.425 876.829 215.764C877.182 214.103 877.359 211.754 877.359 208.715C877.359 205.676 877.182 203.327 876.829 201.666C876.511 200.005 875.91 198.857 875.027 198.221C874.179 197.585 872.977 197.267 871.423 197.267ZM910.823 190.43V227H900.859V190.43H910.823ZM921.37 190.43V198.009H890.259V190.43H921.37ZM933.204 190.271C935.254 190.271 937.338 190.271 939.458 190.271C941.614 190.271 943.716 190.324 945.765 190.43C947.85 190.501 949.758 190.642 951.489 190.854L951.012 197.956H937.338C936.561 197.956 935.96 198.168 935.536 198.592C935.112 198.981 934.9 199.528 934.9 200.235V217.195C934.9 217.902 935.112 218.467 935.536 218.891C935.96 219.28 936.561 219.474 937.338 219.474H951.012L951.489 226.576C949.758 226.753 947.85 226.894 945.765 227C943.716 227.071 941.614 227.106 939.458 227.106C937.338 227.141 935.254 227.159 933.204 227.159C930.766 227.159 928.788 226.435 927.268 224.986C925.749 223.537 924.989 221.647 924.989 219.315V198.115C924.989 195.748 925.749 193.857 927.268 192.444C928.788 190.995 930.766 190.271 933.204 190.271ZM925.943 204.793H949.104V211.524H925.943V204.793ZM970.996 189.794C972.833 189.794 974.388 189.847 975.66 189.953C976.967 190.059 978.151 190.2 979.211 190.377C980.306 190.554 981.419 190.801 982.55 191.119L981.808 198.433C980.607 198.362 979.494 198.327 978.469 198.327C977.444 198.292 976.349 198.274 975.183 198.274C974.017 198.239 972.621 198.221 970.996 198.221C969.547 198.221 968.399 198.521 967.551 199.122C966.738 199.723 966.173 200.783 965.855 202.302C965.537 203.821 965.378 205.959 965.378 208.715C965.378 211.471 965.537 213.609 965.855 215.128C966.173 216.647 966.738 217.707 967.551 218.308C968.399 218.909 969.547 219.209 970.996 219.209C973.575 219.209 975.713 219.174 977.409 219.103C979.14 219.032 980.872 218.909 982.603 218.732L983.345 225.993C981.578 226.594 979.759 227.018 977.886 227.265C976.049 227.512 973.752 227.636 970.996 227.636C967.074 227.636 963.929 227.035 961.562 225.834C959.23 224.597 957.534 222.601 956.474 219.845C955.449 217.089 954.937 213.379 954.937 208.715C954.937 204.051 955.449 200.341 956.474 197.585C957.534 194.829 959.23 192.85 961.562 191.649C963.929 190.412 967.074 189.794 970.996 189.794ZM1020.06 190.43V223.502C1020.06 225.834 1018.91 227 1016.61 227H1012.16C1011.1 227 1010.31 226.753 1009.78 226.258C1009.28 225.763 1008.77 225.039 1008.24 224.085L999.281 208.503C998.857 207.62 998.433 206.666 998.009 205.641C997.585 204.616 997.232 203.592 996.949 202.567H996.472C996.613 203.592 996.719 204.652 996.79 205.747C996.896 206.807 996.949 207.832 996.949 208.821V227H987.674V193.928C987.674 191.596 988.84 190.43 991.172 190.43H995.571C996.631 190.43 997.408 190.677 997.903 191.172C998.398 191.667 998.928 192.391 999.493 193.345L1008.08 208.344C1008.57 209.192 1009.05 210.128 1009.51 211.153C1009.97 212.178 1010.41 213.255 1010.84 214.386H1011.31C1011.21 213.291 1011.12 212.213 1011.05 211.153C1010.98 210.093 1010.94 209.033 1010.94 207.973L1010.89 190.43H1020.06ZM1036.35 190.43V227H1026.49V190.43H1036.35ZM1061.88 190.43C1062.69 190.43 1063.4 190.66 1064 191.119C1064.63 191.578 1065.06 192.214 1065.27 193.027L1075.29 227H1065.11L1058.7 201.772C1058.56 201.171 1058.43 200.535 1058.33 199.864C1058.22 199.157 1058.11 198.504 1058.01 197.903H1056.58C1056.51 198.504 1056.4 199.157 1056.26 199.864C1056.15 200.535 1056.03 201.171 1055.89 201.772L1049.48 227H1039.3L1049.32 193.027C1049.53 192.214 1049.93 191.578 1050.54 191.119C1051.17 190.66 1051.9 190.43 1052.71 190.43H1061.88ZM1066.91 211.153V218.308H1047.67V211.153H1066.91ZM1103.34 210.517V216.347H1087.71V210.517H1103.34ZM1136.07 189.688C1137.87 189.688 1139.46 189.741 1140.84 189.847C1142.25 189.953 1143.56 190.112 1144.76 190.324C1146 190.501 1147.22 190.766 1148.42 191.119L1147.67 198.327C1146.4 198.292 1145.17 198.274 1143.96 198.274C1142.76 198.239 1141.54 198.221 1140.31 198.221C1139.07 198.186 1137.69 198.168 1136.17 198.168C1134.94 198.168 1133.89 198.309 1133.05 198.592C1132.23 198.875 1131.58 199.405 1131.09 200.182C1130.63 200.959 1130.29 202.055 1130.08 203.468C1129.87 204.846 1129.76 206.613 1129.76 208.768C1129.76 211.489 1129.92 213.609 1130.24 215.128C1130.59 216.647 1131.16 217.707 1131.93 218.308C1132.71 218.909 1133.79 219.209 1135.17 219.209C1136.09 219.209 1136.92 219.156 1137.66 219.05C1138.44 218.909 1139.12 218.732 1139.72 218.52C1140.36 218.273 1140.91 218.061 1141.37 217.884L1142.37 222.23C1141.92 222.937 1141.17 223.732 1140.15 224.615C1139.16 225.463 1137.92 226.205 1136.44 226.841C1134.95 227.442 1133.24 227.742 1131.3 227.742C1128.54 227.742 1126.26 227.106 1124.46 225.834C1122.69 224.527 1121.39 222.477 1120.54 219.686C1119.73 216.895 1119.32 213.238 1119.32 208.715C1119.32 203.98 1119.85 200.235 1120.91 197.479C1122.01 194.688 1123.77 192.691 1126.21 191.49C1128.68 190.289 1131.97 189.688 1136.07 189.688ZM1149.85 205.959V227H1142.53L1141.21 221.382L1140.31 219.633V205.959H1149.85ZM1163.32 190.271C1165.37 190.271 1167.45 190.271 1169.57 190.271C1171.73 190.271 1173.83 190.324 1175.88 190.43C1177.97 190.501 1179.87 190.642 1181.6 190.854L1181.13 197.956H1167.45C1166.68 197.956 1166.08 198.168 1165.65 198.592C1165.23 198.981 1165.02 199.528 1165.02 200.235V217.195C1165.02 217.902 1165.23 218.467 1165.65 218.891C1166.08 219.28 1166.68 219.474 1167.45 219.474H1181.13L1181.6 226.576C1179.87 226.753 1177.97 226.894 1175.88 227C1173.83 227.071 1171.73 227.106 1169.57 227.106C1167.45 227.141 1165.37 227.159 1163.32 227.159C1160.88 227.159 1158.9 226.435 1157.38 224.986C1155.86 223.537 1155.1 221.647 1155.1 219.315V198.115C1155.1 195.748 1155.86 193.857 1157.38 192.444C1158.9 190.995 1160.88 190.271 1163.32 190.271ZM1156.06 204.793H1179.22V211.524H1156.06V204.793ZM1201.48 189.688C1204.52 189.688 1207.08 189.988 1209.17 190.589C1211.25 191.19 1212.95 192.214 1214.26 193.663C1215.56 195.076 1216.5 197.002 1217.06 199.44C1217.63 201.878 1217.91 204.97 1217.91 208.715C1217.91 212.425 1217.63 215.517 1217.06 217.99C1216.5 220.428 1215.56 222.371 1214.26 223.82C1212.95 225.233 1211.25 226.24 1209.17 226.841C1207.08 227.442 1204.52 227.742 1201.48 227.742C1198.48 227.742 1195.92 227.442 1193.8 226.841C1191.71 226.24 1190.02 225.233 1188.71 223.82C1187.4 222.371 1186.47 220.428 1185.9 217.99C1185.34 215.517 1185.05 212.425 1185.05 208.715C1185.05 204.97 1185.34 201.878 1185.9 199.44C1186.47 197.002 1187.4 195.076 1188.71 193.663C1190.02 192.214 1191.71 191.19 1193.8 190.589C1195.92 189.988 1198.48 189.688 1201.48 189.688ZM1201.48 197.267C1199.93 197.267 1198.71 197.585 1197.83 198.221C1196.98 198.857 1196.38 200.005 1196.02 201.666C1195.67 203.327 1195.49 205.676 1195.49 208.715C1195.49 211.754 1195.67 214.103 1196.02 215.764C1196.38 217.425 1196.98 218.573 1197.83 219.209C1198.71 219.845 1199.93 220.163 1201.48 220.163C1203.04 220.163 1204.24 219.845 1205.09 219.209C1205.97 218.573 1206.57 217.425 1206.89 215.764C1207.24 214.103 1207.42 211.754 1207.42 208.715C1207.42 205.676 1207.24 203.327 1206.89 201.666C1206.57 200.005 1205.97 198.857 1205.09 198.221C1204.24 197.585 1203.04 197.267 1201.48 197.267ZM1231.39 190.271C1233.37 190.271 1235.4 190.289 1237.48 190.324C1239.57 190.324 1241.6 190.377 1243.58 190.483C1245.59 190.554 1247.41 190.695 1249.04 190.907L1248.56 197.956H1235.57C1234.76 197.956 1234.13 198.168 1233.67 198.592C1233.24 198.981 1233.03 199.528 1233.03 200.235V227H1223.07V198.168C1223.07 195.801 1223.83 193.893 1225.35 192.444C1226.9 190.995 1228.91 190.271 1231.39 190.271ZM1224.02 205.482H1246.6V212.213H1224.02V205.482ZM1263.1 190.43V227H1253.24V190.43H1263.1ZM1282.53 189.688C1284.41 189.723 1286.47 189.847 1288.73 190.059C1291 190.271 1293.19 190.713 1295.31 191.384L1294.67 197.85C1293.12 197.815 1291.21 197.779 1288.95 197.744C1286.72 197.709 1284.53 197.691 1282.37 197.691C1281.56 197.691 1280.87 197.726 1280.31 197.797C1279.78 197.832 1279.34 197.938 1278.98 198.115C1278.66 198.256 1278.43 198.486 1278.29 198.804C1278.15 199.087 1278.08 199.493 1278.08 200.023C1278.08 200.871 1278.33 201.525 1278.82 201.984C1279.35 202.408 1280.27 202.85 1281.58 203.309L1288.42 205.853C1291.38 207.019 1293.45 208.468 1294.62 210.199C1295.82 211.895 1296.42 214.103 1296.42 216.824C1296.42 218.873 1296.17 220.605 1295.68 222.018C1295.18 223.431 1294.37 224.544 1293.24 225.357C1292.14 226.17 1290.68 226.77 1288.84 227.159C1287.04 227.548 1284.79 227.742 1282.11 227.742C1280.87 227.742 1279.05 227.654 1276.65 227.477C1274.28 227.3 1271.6 226.841 1268.59 226.099L1269.18 219.103C1271.3 219.138 1273.17 219.191 1274.8 219.262C1276.46 219.297 1277.89 219.333 1279.09 219.368C1280.33 219.368 1281.3 219.368 1282 219.368C1283.2 219.368 1284.12 219.315 1284.76 219.209C1285.4 219.068 1285.84 218.838 1286.08 218.52C1286.33 218.167 1286.46 217.672 1286.46 217.036C1286.46 216.435 1286.37 215.958 1286.19 215.605C1286.01 215.252 1285.7 214.951 1285.24 214.704C1284.81 214.457 1284.23 214.209 1283.49 213.962L1276.17 211.047C1273.28 209.846 1271.23 208.415 1270.03 206.754C1268.82 205.093 1268.22 202.92 1268.22 200.235C1268.22 198.115 1268.49 196.384 1269.02 195.041C1269.55 193.698 1270.36 192.638 1271.46 191.861C1272.59 191.084 1274.07 190.536 1275.91 190.218C1277.75 189.865 1279.95 189.688 1282.53 189.688ZM1311.13 190.43V227H1301.28V190.43H1311.13ZM1332.47 189.794C1334.31 189.794 1335.86 189.847 1337.14 189.953C1338.44 190.059 1339.63 190.2 1340.69 190.377C1341.78 190.554 1342.9 190.801 1344.03 191.119L1343.28 198.433C1342.08 198.362 1340.97 198.327 1339.95 198.327C1338.92 198.292 1337.83 198.274 1336.66 198.274C1335.49 198.239 1334.1 198.221 1332.47 198.221C1331.02 198.221 1329.88 198.521 1329.03 199.122C1328.22 199.723 1327.65 200.783 1327.33 202.302C1327.01 203.821 1326.85 205.959 1326.85 208.715C1326.85 211.471 1327.01 213.609 1327.33 215.128C1327.65 216.647 1328.22 217.707 1329.03 218.308C1329.88 218.909 1331.02 219.209 1332.47 219.209C1335.05 219.209 1337.19 219.174 1338.89 219.103C1340.62 219.032 1342.35 218.909 1344.08 218.732L1344.82 225.993C1343.06 226.594 1341.24 227.018 1339.36 227.265C1337.53 227.512 1335.23 227.636 1332.47 227.636C1328.55 227.636 1325.41 227.035 1323.04 225.834C1320.71 224.597 1319.01 222.601 1317.95 219.845C1316.93 217.089 1316.41 213.379 1316.41 208.715C1316.41 204.051 1316.93 200.341 1317.95 197.585C1319.01 194.829 1320.71 192.85 1323.04 191.649C1325.41 190.412 1328.55 189.794 1332.47 189.794ZM1368.28 190.43C1369.1 190.43 1369.8 190.66 1370.4 191.119C1371.04 191.578 1371.46 192.214 1371.68 193.027L1381.69 227H1371.52L1365.1 201.772C1364.96 201.171 1364.84 200.535 1364.73 199.864C1364.63 199.157 1364.52 198.504 1364.41 197.903H1362.98C1362.91 198.504 1362.81 199.157 1362.67 199.864C1362.56 200.535 1362.44 201.171 1362.29 201.772L1355.88 227H1345.71L1355.72 193.027C1355.93 192.214 1356.34 191.578 1356.94 191.119C1357.58 190.66 1358.3 190.43 1359.11 190.43H1368.28ZM1373.32 211.153V218.308H1354.08V211.153H1373.32Z" fill="#182C45"/>
</svg>
