<svg width="999" height="201" viewBox="0 0 999 201" fill="none" xmlns="http://www.w3.org/2000/svg">
<path d="M70.3833 135.813C71.2216 135.923 71.8788 135.846 72.646 135.577V135.576L72.6567 135.573L72.6587 135.572C72.66 135.572 72.662 135.571 72.6646 135.57C72.6701 135.569 72.6789 135.566 72.6899 135.562C72.7119 135.555 72.7446 135.544 72.7876 135.53C72.8735 135.502 73.0002 135.461 73.1636 135.408C73.4907 135.302 73.9652 135.148 74.5532 134.957C75.7294 134.575 77.3615 134.044 79.1841 133.451C82.5313 132.362 86.5213 131.062 89.5142 130.083L89.4946 130.062L90.2681 129.81L93.6245 128.71L93.7524 73.5957V56.6357C88.2843 58.439 82.6969 60.5825 78.4194 62.3037C76.1959 63.1984 74.3274 63.9778 73.0151 64.5332C72.359 64.8109 71.8415 65.0324 71.4888 65.1846C71.3125 65.2606 71.1775 65.3197 71.0864 65.3594C71.0409 65.3792 71.006 65.3942 70.9829 65.4043C70.9718 65.4091 70.9632 65.4125 70.9575 65.415C70.9547 65.4163 70.9521 65.4173 70.9507 65.418L70.9409 65.4229L70.9331 65.4258H70.9321L70.9243 65.4297C70.9187 65.4319 70.9099 65.4351 70.8989 65.4395C70.8769 65.4482 70.8443 65.4615 70.8013 65.4785C70.7148 65.5127 70.5866 65.5632 70.4194 65.6289C70.0848 65.7605 69.5935 65.9521 68.9683 66.1943C67.7177 66.6788 65.929 67.3642 63.7759 68.168C59.5551 69.7436 53.9304 71.775 48.2114 73.6406V74.2139L48.2954 128.588L48.7085 128.897C48.7484 128.91 48.8031 128.927 48.8716 128.949C49.0299 129 49.2625 129.074 49.5581 129.168C50.1493 129.356 50.9941 129.626 52.0083 129.949C54.0369 130.595 56.7437 131.456 59.4556 132.317L59.4565 132.318L70.3833 135.813Z" fill="#182C45" stroke="#182C45"/>
<path d="M171.695 199.479C172.051 199.564 172.353 199.57 172.641 199.51C172.95 199.445 173.274 199.297 173.655 199.043L173.667 199.035L183.877 192.654C186.44 191.048 189.003 189.443 190.926 188.238C191.887 187.636 192.687 187.133 193.248 186.782C193.524 186.609 193.743 186.474 193.893 186.38C193.892 186.269 193.891 186.125 193.89 185.95C193.886 185.484 193.881 184.794 193.874 183.897C193.861 182.104 193.842 179.485 193.819 176.183C193.774 169.577 193.715 160.235 193.658 149.292C193.544 127.503 193.438 99.3646 193.469 73.832C186.948 71.2079 182.011 69.3031 178.69 68.0508C177.004 67.4147 175.735 66.9465 174.888 66.6377C174.464 66.4834 174.146 66.3689 173.935 66.293C173.829 66.2551 173.749 66.2268 173.696 66.208C173.67 66.1986 173.65 66.1912 173.637 66.1865C173.63 66.1843 173.625 66.1828 173.622 66.1816C173.62 66.1811 173.619 66.1809 173.618 66.1807L173.617 66.1797L173.602 66.1738H173.601L173.6 66.1729C173.598 66.1723 173.596 66.1719 173.594 66.1709C173.588 66.1688 173.58 66.1653 173.569 66.1611C173.548 66.1529 173.516 66.1413 173.475 66.125C173.391 66.0923 173.267 66.0431 173.104 65.9795C172.779 65.8521 172.3 65.6638 171.686 65.4219C170.455 64.9378 168.68 64.2371 166.499 63.3701C162.292 61.6977 156.577 59.4062 150.354 56.8594V85.7666H149.854C150.354 85.7661 150.354 85.7669 150.354 85.7676V86.0205C150.354 86.1883 150.354 86.4374 150.354 86.7627C150.355 87.4138 150.356 88.3708 150.357 89.5918C150.36 92.0337 150.363 95.5343 150.367 99.7686C150.375 108.238 150.386 119.643 150.398 131.387C150.422 154.875 150.449 179.72 150.46 185.144V186.075L150.95 186.795L171.695 199.479Z" fill="#182C45" stroke="#182C45"/>
<mask id="path-3-inside-1_515_548" fill="white">
<path d="M121.776 43.4812L142.855 54.0742L142.919 57.4988V155.791C142.919 155.791 138.133 158.833 133.304 161.918L123.541 168.129C122.754 168.66 122.095 168.831 121.244 168.597L101.441 156.281L100.824 155.387L100.59 52.0109"/>
</mask>
<path d="M121.776 43.4812L142.855 54.0742L142.919 57.4988V155.791C142.919 155.791 138.133 158.833 133.304 161.918L123.541 168.129C122.754 168.66 122.095 168.831 121.244 168.597L101.441 156.281L100.824 155.387L100.59 52.0109" fill="#182C45"/>
<path d="M142.855 54.0742L143.304 53.1806L143.844 53.4518L143.855 54.0555L142.855 54.0742ZM142.919 57.4988L143.919 57.4801L143.919 57.4895V57.4988H142.919ZM142.919 155.791H143.919V156.341L143.455 156.635L142.919 155.791ZM133.304 161.918L133.843 162.76L133.841 162.761L133.304 161.918ZM123.541 168.129L122.981 167.3L122.993 167.292L123.004 167.285L123.541 168.129ZM121.244 168.597L120.979 169.561L120.839 169.522L120.716 169.446L121.244 168.597ZM101.441 156.281L100.913 157.13L100.736 157.02L100.618 156.849L101.441 156.281ZM100.824 155.387L100.001 155.956L99.8245 155.7L99.8238 155.39L100.824 155.387ZM121.776 43.4812L122.225 42.5877L143.304 53.1806L142.855 54.0742L142.406 54.9677L121.327 44.3748L121.776 43.4812ZM142.855 54.0742L143.855 54.0555L143.919 57.4801L142.919 57.4988L141.919 57.5174L141.855 54.0928L142.855 54.0742ZM142.919 57.4988H143.919V155.791H142.919H141.919V57.4988H142.919ZM142.919 155.791C143.455 156.635 143.455 156.635 143.455 156.636C143.455 156.636 143.455 156.636 143.455 156.636C143.455 156.636 143.455 156.636 143.454 156.636C143.454 156.636 143.453 156.637 143.452 156.638C143.449 156.639 143.446 156.641 143.441 156.644C143.432 156.65 143.419 156.659 143.4 156.67C143.364 156.693 143.31 156.728 143.24 156.772C143.1 156.861 142.894 156.992 142.632 157.159C142.108 157.492 141.359 157.969 140.459 158.541C138.66 159.687 136.256 161.218 133.843 162.76L133.304 161.918L132.766 161.075C135.181 159.532 137.585 158 139.385 156.854C140.285 156.281 141.035 155.805 141.559 155.471C141.821 155.304 142.027 155.174 142.167 155.084C142.237 155.04 142.291 155.006 142.328 154.982C142.346 154.971 142.359 154.962 142.369 154.956C142.373 154.953 142.377 154.951 142.379 154.95C142.38 154.949 142.381 154.948 142.382 154.948C142.382 154.948 142.382 154.948 142.382 154.948C142.382 154.948 142.382 154.948 142.382 154.948C142.382 154.948 142.383 154.948 142.919 155.791ZM133.304 161.918L133.841 162.761L124.078 168.972L123.541 168.129L123.004 167.285L132.768 161.074L133.304 161.918ZM123.541 168.129L124.101 168.957C123.645 169.266 123.164 169.511 122.627 169.627C122.079 169.746 121.537 169.714 120.979 169.561L121.244 168.597L121.509 167.632C121.802 167.713 122.015 167.713 122.205 167.672C122.408 167.628 122.651 167.523 122.981 167.3L123.541 168.129ZM121.244 168.597L120.716 169.446L100.913 157.13L101.441 156.281L101.969 155.432L121.772 167.747L121.244 168.597ZM101.441 156.281L100.618 156.849L100.001 155.956L100.824 155.387L101.647 154.819L102.264 155.713L101.441 156.281ZM100.824 155.387L99.8238 155.39L99.5898 52.0131L100.59 52.0109L101.59 52.0086L101.824 155.385L100.824 155.387Z" fill="#182C45" mask="url(#path-3-inside-1_515_548)"/>
<path d="M39.2876 71.1517L39.479 91.2314L1 73.9382V51.5187L120.691 1.00033L209.859 40.9683L243.488 54.2626V74.4061L200.946 91.4229V68.2376L122.988 33.8L39.2876 71.1517Z" fill="#182C45" stroke="#182C45" stroke-miterlimit="10"/>
<path d="M972.776 34.6572C977.157 34.6572 981.432 34.7649 985.599 34.9805L985.598 34.9814C989.837 35.1253 993.721 35.4117 997.25 35.8438L997.719 35.9014L997.687 36.374L996.719 50.7842L996.688 51.251H968.474C966.988 51.251 965.912 51.6544 965.171 52.3955L965.164 52.4033L965.156 52.4102C964.422 53.0831 964.027 54.0477 964.027 55.376V64.124H992.849V78.7822H964.027V89.79C964.027 91.1099 964.417 92.1175 965.16 92.8662C965.899 93.542 966.98 93.914 968.474 93.9141H996.688L996.719 94.3809L997.687 108.791L997.72 109.273L997.24 109.322C993.717 109.682 989.836 109.969 985.599 110.185L985.591 110.186V110.185C981.429 110.328 977.16 110.399 972.784 110.399C968.479 110.471 964.246 110.508 960.085 110.508C955.032 110.508 950.887 109.003 947.696 105.961C944.503 102.916 942.917 98.9436 942.917 94.0918V51.0742L942.921 50.6152C943.017 45.9052 944.601 42.0834 947.701 39.2002C950.891 36.1609 955.035 34.6573 960.085 34.6572H972.776Z" fill="#182C45" stroke="#182C45"/>
<path d="M899.931 33.9072C906.055 33.9073 911.266 34.5193 915.555 35.7549H915.554C919.929 36.9946 923.455 39.0808 926.107 42.0264L926.361 42.3057C928.953 45.2232 930.801 49.1202 931.926 53.9668L932.149 54.9053C933.232 59.6764 933.769 65.5728 933.769 72.585C933.769 80.0618 933.158 86.3051 931.927 91.3037L931.928 91.3047C930.767 96.2381 928.835 100.192 926.111 103.139L926.112 103.14C923.459 106.088 919.931 108.175 915.554 109.415L915.555 109.416C911.266 110.652 906.055 111.264 899.931 111.264C893.974 111.264 888.482 111.156 883.455 110.94H883.454C878.51 110.725 873.815 110.475 869.371 110.188H868.888V110.156L868.557 110.136L868.888 109.555V35.6309L868.501 35.0381L868.888 35.0127V34.9824H869.372C873.887 34.6958 878.582 34.4454 883.454 34.2305L885.338 34.1543C889.791 33.9894 894.656 33.9072 899.931 33.9072ZM890.106 95.2529C893.135 95.2939 896.41 95.3145 899.931 95.3145C902.951 95.3144 905.232 94.6823 906.836 93.4795L906.844 93.4736C908.492 92.2871 909.706 90.0984 910.411 86.7852C911.117 83.4664 911.476 78.7386 911.476 72.585C911.476 66.4315 911.117 61.7044 910.411 58.3857C909.706 55.0725 908.492 52.8839 906.844 51.6973L906.836 51.6914C905.232 50.4886 902.951 49.8555 899.931 49.8555H890.106V95.2529Z" fill="#182C45" stroke="#182C45"/>
<path d="M806.749 34.9814C808.965 34.9815 810.698 35.4976 811.834 36.6338C812.749 37.5484 813.706 38.8179 814.706 40.4297L815.137 41.1416L815.141 41.1475V41.1484L832.563 71.583H832.562C833.576 73.3202 834.552 75.2353 835.489 77.3271C836.382 79.318 837.239 81.4067 838.065 83.5918H838.141C837.948 81.5526 837.784 79.5436 837.652 77.5645C837.508 75.403 837.437 73.2416 837.437 71.0801L837.329 35.4834L837.327 34.9814H856.934V102.589C856.934 105.03 856.333 106.954 855.043 108.264C853.751 109.575 851.852 110.187 849.443 110.187H840.41C838.191 110.187 836.433 109.67 835.229 108.547L835.223 108.541L835.217 108.535C834.168 107.487 833.104 105.975 832.019 104.021L813.844 72.4033L813.834 72.3867L813.178 70.9922C812.529 69.5875 811.881 68.103 811.233 66.5381C810.416 64.5632 809.728 62.5865 809.167 60.6094H809.147C809.397 62.5184 809.589 64.4858 809.72 66.5117C809.936 68.6777 810.045 70.7736 810.045 72.7988V110.187H790.225V42.5791C790.225 40.1362 790.836 38.2121 792.146 36.9023C793.455 35.5926 795.379 34.9815 797.822 34.9814H806.749Z" fill="#182C45" stroke="#182C45"/>
<path d="M757.606 34.9814C759.352 34.9814 760.891 35.4762 762.201 36.4746L762.457 36.667C763.703 37.6514 764.539 38.9733 764.969 40.6094L785.295 109.546L785.484 110.187H763.778L763.683 109.811L759.295 92.5498H737.313L732.926 109.811L732.83 110.187H711.124L711.313 109.546L731.635 40.625C732.09 38.8807 732.972 37.4897 734.289 36.4824L734.3 36.4736C735.679 35.4779 737.252 34.9814 739.002 34.9814H757.606ZM747.292 51.1455C747.149 52.2559 746.952 53.4488 746.697 54.7227C746.481 56.0884 746.23 57.3845 745.941 58.6104L745.938 58.6191L741.258 77.0312H755.351L750.67 58.6191L750.667 58.6104C750.377 57.3783 750.124 56.0754 749.907 54.7021V54.6982C749.717 53.4285 749.523 52.2447 749.333 51.1455H747.292Z" fill="#182C45" stroke="#182C45"/>
<path d="M677.585 33.9072C684.567 33.9072 690.286 34.5908 694.726 35.9736C699.189 37.3639 702.49 39.7212 704.573 43.0693H704.572C706.722 46.3379 707.768 50.9263 707.768 56.7764C707.768 59.9803 707.294 62.9068 706.34 65.5498C705.447 68.22 703.883 70.4145 701.656 72.1221L701.648 72.1279L701.353 71.7246L701.647 72.1279C699.64 73.5999 697.002 74.572 693.761 75.0732C694.826 75.3005 695.924 75.684 697.051 76.2207H697.05C698.711 76.9775 700.203 78.2164 701.531 79.9131C702.955 81.5701 703.943 83.8333 704.526 86.666L710.654 109.559L710.822 110.188H688.589L688.498 109.804L683.229 87.542L683.227 87.5332C682.732 85.272 681.979 83.9306 681.071 83.3252L681.062 83.3193L681.054 83.3125C680.1 82.6131 678.645 82.2266 676.617 82.2266H676.61C673.289 82.1804 670.339 82.1502 667.761 82.1338V110.188H646.973V35.5137L646.919 35.042L646.973 35.0352V34.9824H647.451C650.602 34.625 653.576 34.3739 656.373 34.2305C659.176 34.0867 662.228 34.0158 665.529 34.0156C668.904 33.9438 672.922 33.9072 677.585 33.9072ZM677.155 49.5332C673.78 49.5332 670.649 49.5424 667.761 49.5586V66.6006H677.155C679.715 66.6006 681.617 66.3502 682.896 65.8789L683.146 65.7852C684.329 65.3133 685.143 64.538 685.624 63.4561C686.158 62.1818 686.441 60.3963 686.441 58.0674C686.441 55.6561 686.156 53.8739 685.624 52.6777C685.143 51.5958 684.329 50.8205 683.146 50.3486L682.896 50.2549C681.617 49.7836 679.715 49.5332 677.155 49.5332Z" fill="#182C45" stroke="#182C45"/>
<path d="M608.308 33.4736C611.973 33.4736 615.212 33.5816 618.024 33.7979L618.023 33.7988C620.905 34.015 623.575 34.338 626.031 34.7715H626.03C628.558 35.1334 631.05 35.6752 633.506 36.3975L633.905 36.5146L633.862 36.9287L632.356 51.5547L632.31 52.0156L631.846 52.0029C629.269 51.9314 626.764 51.8955 624.331 51.8955H624.316C621.884 51.824 619.416 51.7881 616.911 51.7881H616.896C614.393 51.7166 611.602 51.6807 608.522 51.6807C606.051 51.6807 603.994 51.9625 602.341 52.5127C600.806 53.0466 599.568 54.0467 598.62 55.5361C597.739 57.0346 597.074 59.181 596.649 62.0088L596.648 62.0107C596.224 64.772 596.01 68.3293 596.01 72.6895C596.01 78.1971 596.332 82.459 596.967 85.4922C597.672 88.5188 598.78 90.5352 600.225 91.6514C601.685 92.7799 603.75 93.3759 606.479 93.376C608.093 93.376 609.567 93.2946 610.9 93.1328L611.463 93.0576C613.012 92.7751 614.378 92.4237 615.562 92.0059C615.854 91.8922 616.137 91.7831 616.411 91.6768V66.4893H636.769V110.185H621.032L620.94 109.8L619.327 102.958C618.627 103.683 617.824 104.439 616.914 105.224L616.913 105.225C614.859 106.985 612.304 108.515 609.257 109.821L609.248 109.825C606.166 111.073 602.622 111.69 598.628 111.69C592.959 111.69 588.227 110.381 584.467 107.728L584.458 107.721C580.763 104.986 578.06 100.722 576.318 94.9893L576.316 94.9834C574.649 89.2562 573.823 81.7832 573.823 72.582C573.823 62.9461 574.901 55.2771 577.083 49.6035L577.084 49.5996C579.347 43.8327 583.012 39.6802 588.083 37.1816L588.086 37.1807C593.198 34.6978 599.949 33.4736 608.308 33.4736Z" fill="#182C45" stroke="#182C45"/>
<path d="M544.199 34.9814C545.945 34.9814 547.484 35.4762 548.794 36.4746L549.05 36.667C550.296 37.6514 551.132 38.9733 551.562 40.6094L571.888 109.546L572.077 110.187H550.371L550.275 109.811L545.888 92.5498H523.906L519.519 109.811L519.423 110.187H497.717L497.906 109.546L518.228 40.625C518.683 38.8807 519.565 37.4897 520.882 36.4824L520.893 36.4736C522.271 35.4779 523.845 34.9814 525.595 34.9814H544.199ZM533.885 51.1455C533.742 52.2559 533.545 53.4488 533.29 54.7227C533.074 56.0884 532.823 57.3845 532.534 58.6104L532.531 58.6191L527.851 77.0312H541.943L537.263 58.6191L537.26 58.6104C536.97 57.3783 536.717 56.0754 536.5 54.7021V54.6982C536.31 53.4285 536.116 52.2447 535.926 51.1455H533.885Z" fill="#182C45" stroke="#182C45"/>
<path d="M467.46 33.4736L468.91 33.5088C472.333 33.6111 476.057 33.8513 480.081 34.2285C484.704 34.6619 489.185 35.5653 493.521 36.9385L493.907 37.0605L493.868 37.4639L492.577 50.584L492.532 51.0459L492.068 51.0352C488.915 50.9635 485.044 50.892 480.457 50.8203C475.942 50.7487 471.499 50.7129 467.128 50.7129C465.492 50.7129 464.116 50.7838 462.997 50.9238L462.982 50.9258L462.968 50.9268C461.938 50.9955 461.11 51.2001 460.469 51.5205L460.459 51.5254L460.449 51.5303C459.917 51.7667 459.542 52.1421 459.305 52.6738L459.295 52.6953C459.059 53.1675 458.918 53.901 458.917 54.9443C458.917 56.554 459.381 57.7282 460.248 58.542C461.256 59.3443 463.048 60.2155 465.681 61.1406L465.69 61.1436L479.563 66.3057L479.572 66.3096C485.636 68.6921 489.933 71.6775 492.379 75.3037C494.893 78.8523 496.128 83.4438 496.128 89.0361C496.128 93.2313 495.622 96.8038 494.594 99.7402C493.559 102.697 491.851 105.043 489.467 106.757L489.466 106.756C487.17 108.458 484.124 109.698 480.354 110.495C476.651 111.294 472.061 111.69 466.591 111.69C464.379 111.69 461.264 111.552 457.251 111.277L455.477 111.151C450.639 110.79 445.161 109.852 439.047 108.342L438.633 108.239L438.669 107.814L439.852 93.6191L439.891 93.1533L440.359 93.1611C444.664 93.2329 448.468 93.3398 451.772 93.4834H451.771C455.137 93.555 458.039 93.6266 460.476 93.6982H466.376C468.795 93.6982 470.621 93.5912 471.87 93.3848C473.097 93.1107 473.853 92.6869 474.252 92.1816C474.67 91.5802 474.91 90.6949 474.91 89.4668C474.91 88.2888 474.735 87.4069 474.424 86.7861C474.125 86.1869 473.569 85.6432 472.699 85.1748L472.692 85.1709L472.684 85.166C471.866 84.6886 470.719 84.1996 469.229 83.7031L469.202 83.6934L454.361 77.7783L454.355 77.7754C448.432 75.3196 444.179 72.3699 441.666 68.8955C439.15 65.4176 437.915 60.8964 437.915 55.375C437.915 51.0373 438.456 47.4558 439.563 44.6523C440.671 41.8449 442.378 39.6132 444.685 37.9756L444.692 37.9707C447.061 36.3422 450.143 35.2112 453.914 34.5576C457.682 33.8329 462.197 33.4736 467.452 33.4736H467.46Z" fill="#182C45" stroke="#182C45"/>
<path d="M407.878 34.9814C409.624 34.9814 411.163 35.4762 412.473 36.4746L412.729 36.667C413.975 37.6514 414.811 38.9733 415.241 40.6094L435.567 109.546L435.756 110.187H414.05L413.955 109.811L409.567 92.5498H387.585L383.198 109.811L383.102 110.187H361.396L361.585 109.546L381.907 40.625C382.362 38.8807 383.244 37.4897 384.561 36.4824L384.572 36.4736C385.951 35.4779 387.524 34.9814 389.274 34.9814H407.878ZM397.564 51.1455C397.421 52.2559 397.224 53.4488 396.969 54.7227C396.753 56.0884 396.502 57.3845 396.213 58.6104L396.21 58.6191L391.53 77.0312H405.623L400.942 58.6191L400.939 58.6104C400.649 57.3783 400.396 56.0754 400.179 54.7021V54.6982C399.989 53.4285 399.795 52.2447 399.605 51.1455H397.564Z" fill="#182C45" stroke="#182C45"/>
<path d="M335.213 33.6924C338.95 33.6924 342.119 33.8 344.718 34.0166L344.717 34.0176C347.381 34.2335 349.797 34.5207 351.964 34.8818H351.963C354.205 35.2435 356.482 35.7494 358.793 36.3994L359.198 36.5137L359.156 36.9316L357.65 51.7725L357.601 52.249L357.123 52.2217C354.693 52.0788 352.445 52.0068 350.377 52.0068H350.36C348.287 51.9354 346.07 51.8994 343.709 51.8994H343.694C341.335 51.8279 338.508 51.792 335.213 51.792C332.338 51.792 330.121 52.3888 328.512 53.5283C327.007 54.6449 325.903 56.6556 325.271 59.6748C324.636 62.7077 324.314 67.006 324.314 72.5859C324.314 78.1657 324.636 82.4632 325.271 85.4961C325.903 88.5157 327.007 90.5269 328.512 91.6436L328.821 91.8506C330.4 92.8551 332.518 93.3789 335.213 93.3789C340.443 93.3789 344.774 93.308 348.206 93.165L349.519 93.1064C352.584 92.9579 355.649 92.7268 358.714 92.4141L359.212 92.3633L359.263 92.8604L360.768 107.594L360.809 107.99L360.432 108.118C356.816 109.348 353.092 110.215 349.26 110.721C345.502 111.227 340.818 111.479 335.213 111.479C327.211 111.479 320.743 110.255 315.844 107.769L315.836 107.765L316.071 107.322L315.836 107.764C310.985 105.191 307.468 101.04 305.28 95.3496L305.278 95.3438C303.169 89.6729 302.127 82.0783 302.127 72.5859C302.127 63.0933 303.169 55.4981 305.278 49.8271L305.28 49.8223C307.469 44.1309 310.986 40.0127 315.841 37.5117C320.742 34.9525 327.211 33.6924 335.213 33.6924Z" fill="#182C45" stroke="#182C45"/>
<path d="M951.14 125.942C954.268 125.942 956.945 126.285 959.159 126.984H959.158C961.389 127.651 963.192 128.795 964.543 130.425H964.542C965.929 132.013 966.918 134.168 967.533 136.857L967.644 137.362C968.184 139.926 968.451 143.063 968.451 146.763C968.451 150.709 968.148 154.033 967.533 156.723V156.724C966.916 159.381 965.925 161.536 964.539 163.16C963.187 164.751 961.386 165.893 959.159 166.597L959.151 166.6C956.94 167.259 954.266 167.582 951.14 167.582C948.014 167.582 945.34 167.259 943.129 166.6L943.122 166.597C940.895 165.893 939.077 164.753 937.689 163.166L937.685 163.162C936.299 161.538 935.308 159.382 934.692 156.724L934.691 156.723C934.076 154.033 933.773 150.709 933.773 146.763C933.773 142.817 934.076 139.512 934.691 136.858C935.307 134.164 936.298 132.005 937.689 130.415C939.076 128.792 940.894 127.65 943.122 126.984C945.335 126.285 948.012 125.942 951.14 125.942ZM951.14 133.791C949.201 133.791 947.75 134.176 946.732 134.887C945.772 135.583 945.025 136.833 944.55 138.733L944.549 138.732C944.111 140.601 943.886 143.271 943.886 146.763C943.886 150.214 944.111 152.884 944.55 154.792L944.642 155.141C945.119 156.846 945.832 157.983 946.732 158.637C947.75 159.348 949.201 159.733 951.14 159.733C953.043 159.733 954.454 159.348 955.432 158.64L955.438 158.635C956.431 157.94 957.177 156.697 957.615 154.801L957.617 154.792C958.093 152.888 958.338 150.218 958.338 146.763C958.338 143.269 958.093 140.6 957.618 138.735L957.615 138.725C957.177 136.829 956.431 135.585 955.438 134.89L955.431 134.885V134.884C954.453 134.176 953.042 133.791 951.14 133.791Z" fill="#182C45" stroke="#182C45"/>
<path d="M931.729 126.734V134.526H919.957V166.789H910.297V134.526H898.58V126.734H931.729Z" fill="#182C45" stroke="#182C45"/>
<path d="M877.337 126.564C879.453 126.564 881.589 126.583 883.743 126.621L883.742 126.622C885.896 126.622 888.012 126.659 890.091 126.734C892.176 126.81 894.131 126.943 895.955 127.133L896.432 127.183L896.402 127.662L896.005 133.944L895.976 134.413H880.507C879.654 134.413 879.086 134.632 878.718 134.994C878.384 135.36 878.177 135.935 878.177 136.8V142.413H893.913V149.525H878.177V156.724C878.177 157.588 878.384 158.162 878.718 158.528C879.086 158.891 879.654 159.11 880.507 159.11H895.976L896.005 159.579L896.402 165.861L896.433 166.351L895.944 166.392C894.127 166.543 892.179 166.675 890.1 166.788L890.091 166.789C888.012 166.865 885.896 166.901 883.742 166.901L883.743 166.902C881.589 166.94 879.453 166.959 877.337 166.959C874.745 166.959 872.597 166.21 870.941 164.675L870.932 164.666C869.315 163.09 868.517 161.05 868.517 158.592V134.932C868.517 132.595 869.217 130.652 870.642 129.147L870.941 128.849C872.597 127.314 874.745 126.564 877.337 126.564Z" fill="#182C45" stroke="#182C45"/>
<path d="M847.708 126.168C851.171 126.168 854.005 126.528 856.19 127.27H856.189C858.43 127.979 860.101 129.234 861.153 131.048L861.35 131.388C862.302 133.124 862.755 135.433 862.755 138.271C862.755 140.127 862.505 141.788 861.992 143.248L861.991 143.247C861.507 144.694 860.678 145.871 859.501 146.764C858.634 147.422 857.553 147.891 856.276 148.188C856.541 148.304 856.806 148.439 857.072 148.593H857.071C857.894 149.047 858.64 149.718 859.312 150.588H859.311C860.008 151.452 860.501 152.594 860.813 153.985L864.208 166.154L864.385 166.789H854.225L854.129 166.411L851.129 154.525V154.524C850.803 153.296 850.337 152.54 849.793 152.147L849.783 152.14C849.26 151.74 848.477 151.507 847.37 151.507H841.7V166.789H832.153V127.266L832.088 126.798L832.153 126.79V126.734H832.62C834.204 126.546 835.697 126.415 837.097 126.339C838.501 126.263 840.034 126.226 841.698 126.226V126.225C843.363 126.187 845.367 126.168 847.708 126.168ZM847.539 133.677C845.391 133.677 843.445 133.684 841.7 133.698V143.997H847.539C849.017 143.997 850.14 143.849 850.931 143.575C851.717 143.28 852.228 142.79 852.51 142.101L852.513 142.092L852.517 142.083C852.852 141.346 853.039 140.276 853.039 138.837C853.039 137.356 852.851 136.293 852.521 135.6L852.515 135.587L852.51 135.574C852.23 134.888 851.724 134.42 850.947 134.161L850.935 134.157L850.922 134.152C850.137 133.845 849.019 133.677 847.539 133.677Z" fill="#182C45" stroke="#182C45"/>
<path d="M814.659 126.055C816.517 126.055 818.099 126.112 819.401 126.227L819.4 126.228C820.73 126.304 821.952 126.436 823.064 126.628C824.178 126.82 825.329 127.088 826.515 127.433L826.917 127.55L826.873 127.967L826.194 134.306L826.142 134.78L825.666 134.752C824.424 134.677 823.278 134.62 822.226 134.582H822.225C821.213 134.545 820.106 134.526 818.904 134.526H818.896L818.888 134.525C817.725 134.488 816.316 134.47 814.659 134.47C812.796 134.47 811.401 134.834 810.42 135.508L810.421 135.509C809.501 136.166 808.791 137.355 808.353 139.181L808.352 139.183C807.913 140.975 807.688 143.495 807.688 146.762C807.688 150.027 807.913 152.566 808.352 154.396C808.788 156.178 809.495 157.35 810.415 158.01L810.604 158.133C811.573 158.731 812.909 159.054 814.659 159.054C817.258 159.054 819.44 159.015 821.204 158.94C822.966 158.865 824.71 158.734 826.435 158.547L826.928 158.493L826.985 158.986L827.721 165.325L827.769 165.737L827.374 165.86C825.536 166.435 823.66 166.836 821.746 167.066L821.747 167.067C819.829 167.336 817.464 167.468 814.659 167.468C810.575 167.468 807.241 166.82 804.692 165.486L804.683 165.482V165.481C802.148 164.095 800.321 161.861 799.191 158.822L799.189 158.816C798.105 155.797 797.575 151.77 797.575 146.762C797.575 141.753 798.105 137.726 799.189 134.706L799.191 134.701C800.25 131.851 801.924 129.724 804.221 128.357L804.689 128.094C807.24 126.721 810.575 126.055 814.659 126.055Z" fill="#182C45" stroke="#182C45"/>
<path d="M766.396 126.734C767.378 126.734 768.207 126.98 768.787 127.56C769.333 128.032 769.831 128.724 770.291 129.604L780.763 149.472L780.764 149.474C781.221 150.349 781.695 151.319 782.188 152.381C782.542 153.143 782.885 153.926 783.22 154.727C783.155 154.011 783.097 153.312 783.048 152.628L783.047 152.618V152.609C783.009 151.51 782.989 150.429 782.989 149.367L782.933 127.235L782.932 126.734H792.084V163.177C792.084 164.291 791.805 165.219 791.159 165.864C790.514 166.51 789.585 166.789 788.471 166.789H783.716C782.708 166.789 781.857 166.569 781.242 166.049L781.234 166.041L781.226 166.034C780.676 165.527 780.194 164.812 779.765 163.919L768.953 143.43L768.952 143.428C768.493 142.547 768.035 141.572 767.578 140.506L767.572 140.492C767.374 139.986 767.187 139.489 767.014 138.999C767.052 139.439 767.089 139.882 767.121 140.329L767.171 141.103C767.214 141.876 767.235 142.65 767.235 143.423V166.789H758.028V130.348L758.042 129.938C758.106 129.003 758.396 128.221 758.971 127.656C759.626 127.013 760.567 126.734 761.698 126.734H766.396Z" fill="#182C45" stroke="#182C45"/>
<path d="M735.124 125.942C738.251 125.942 740.928 126.285 743.142 126.984H743.141C745.372 127.651 747.175 128.795 748.527 130.425H748.526C749.912 132.013 750.901 134.168 751.516 136.857L751.627 137.362C752.168 139.926 752.434 143.063 752.434 146.763C752.434 150.709 752.131 154.033 751.516 156.723V156.724C750.9 159.381 749.908 161.536 748.522 163.16C747.17 164.751 745.37 165.893 743.142 166.597L743.134 166.6C740.923 167.259 738.249 167.582 735.124 167.582C731.998 167.582 729.324 167.259 727.113 166.6L727.105 166.597C724.878 165.893 723.061 164.753 721.672 163.166L721.668 163.162C720.282 161.538 719.292 159.382 718.675 156.724L718.674 156.723C718.059 154.033 717.756 150.709 717.756 146.763C717.756 142.817 718.059 139.512 718.674 136.858C719.29 134.164 720.282 132.005 721.672 130.415C723.06 128.792 724.877 127.65 727.105 126.984C729.319 126.285 731.996 125.942 735.124 125.942ZM735.124 133.791C733.184 133.791 731.733 134.176 730.715 134.887C729.755 135.583 729.009 136.833 728.534 138.733L728.533 138.732C728.094 140.601 727.87 143.271 727.87 146.763C727.87 150.214 728.095 152.884 728.534 154.792L728.625 155.141C729.102 156.846 729.816 157.983 730.715 158.637C731.733 159.348 733.184 159.733 735.124 159.733C737.026 159.733 738.437 159.348 739.416 158.64L739.421 158.635C740.414 157.94 741.161 156.697 741.598 154.801L741.6 154.792C742.076 152.888 742.322 150.218 742.322 146.763C742.322 143.269 742.076 140.6 741.601 138.735L741.598 138.725C741.161 136.829 740.414 135.585 739.421 134.89L739.415 134.885V134.884C738.436 134.176 737.026 133.791 735.124 133.791Z" fill="#182C45" stroke="#182C45"/>
<path d="M702.117 126.055C703.975 126.055 705.557 126.112 706.859 126.227L706.858 126.228C708.189 126.304 709.411 126.436 710.522 126.628C711.637 126.82 712.788 127.088 713.974 127.433L714.376 127.55L714.331 127.967L713.652 134.306L713.601 134.78L713.124 134.752C711.883 134.677 710.736 134.62 709.685 134.582H709.684C708.672 134.545 707.565 134.526 706.362 134.526H706.354L706.347 134.525C705.184 134.488 703.774 134.47 702.117 134.47C700.255 134.47 698.86 134.834 697.879 135.508L697.88 135.509C696.96 136.166 696.25 137.355 695.812 139.181L695.811 139.183C695.372 140.975 695.146 143.495 695.146 146.762C695.146 150.027 695.371 152.566 695.811 154.396C696.247 156.178 696.954 157.35 697.873 158.01L698.062 158.133C699.031 158.731 700.368 159.054 702.117 159.054C704.717 159.054 706.898 159.015 708.662 158.94C710.425 158.865 712.169 158.734 713.894 158.547L714.387 158.493L714.443 158.986L715.18 165.325L715.228 165.737L714.832 165.86C712.994 166.435 711.118 166.836 709.204 167.066L709.205 167.067C707.288 167.336 704.923 167.468 702.117 167.468C698.033 167.468 694.7 166.82 692.15 165.486L692.142 165.482C689.606 164.096 687.779 161.861 686.649 158.822L686.647 158.816C685.563 155.797 685.033 151.77 685.033 146.762C685.033 141.753 685.563 137.726 686.647 134.706L686.649 134.701C687.709 131.851 689.383 129.724 691.68 128.357L692.147 128.094C694.698 126.721 698.033 126.055 702.117 126.055Z" fill="#182C45" stroke="#182C45"/>
<path d="M646.925 126.734L647.058 127.026L653.624 141.403L653.625 141.406C653.977 142.188 654.269 143.026 654.502 143.919C654.656 144.51 654.8 145.084 654.937 145.641C655.091 145.084 655.248 144.511 655.402 143.919C655.633 143.033 655.904 142.202 656.214 141.426L656.218 141.415L656.223 141.405L662.731 127.028L662.865 126.734H672.992L672.635 127.456L659.726 153.552V166.789H650.065V153.441L637.155 127.457L636.797 126.734H646.925Z" fill="#182C45" stroke="#182C45"/>
<path d="M613.867 126.734C614.688 126.734 615.421 126.975 616.044 127.464H616.043C616.689 127.942 617.126 128.576 617.345 129.352L628.665 166.143L628.864 166.789H618.978L618.876 166.424L616.112 156.488H603.414L600.651 166.424L600.55 166.789H590.605L590.806 166.142L602.183 129.351C602.399 128.58 602.814 127.945 603.427 127.464L603.434 127.459L603.439 127.454C604.093 126.975 604.839 126.734 605.66 126.734H613.867ZM609.411 134.243C609.315 134.732 609.21 135.243 609.092 135.776C608.976 136.427 608.822 137.076 608.631 137.726L608.632 137.727L605.503 148.979H614.024L610.895 137.727L610.893 137.717L610.89 137.707C610.739 137.066 610.588 136.424 610.438 135.782L610.436 135.776C610.317 135.243 610.212 134.732 610.116 134.243H609.411Z" fill="#182C45" stroke="#182C45"/>
<path d="M587.821 126.734V166.789H578.218V126.734H587.821Z" fill="#182C45" stroke="#182C45"/>
<path d="M545.68 126.734C546.662 126.734 547.492 126.98 548.071 127.56C548.617 128.032 549.116 128.724 549.575 129.604L560.047 149.472L560.048 149.474C560.505 150.349 560.98 151.319 561.473 152.381C561.827 153.143 562.17 153.926 562.504 154.727C562.439 154.011 562.381 153.312 562.332 152.628L562.331 152.618V152.609C562.293 151.51 562.273 150.429 562.273 149.367L562.217 127.235L562.216 126.734H571.368V163.177C571.368 164.291 571.089 165.219 570.443 165.864C569.798 166.51 568.87 166.789 567.755 166.789H563C561.992 166.789 561.141 166.569 560.526 166.049L560.519 166.041L560.51 166.034C559.961 165.527 559.478 164.812 559.049 163.919L548.237 143.43L548.236 143.428C547.777 142.547 547.319 141.572 546.862 140.506L546.856 140.492C546.658 139.986 546.471 139.489 546.298 138.999C546.336 139.439 546.373 139.882 546.405 140.329L546.455 141.103C546.498 141.876 546.52 142.65 546.52 143.423V166.789H537.312V130.348L537.326 129.938C537.39 129.003 537.68 128.221 538.255 127.656C538.91 127.013 539.851 126.734 540.982 126.734H545.68Z" fill="#182C45" stroke="#182C45"/>
<path d="M519.819 126.055C521.677 126.055 523.259 126.112 524.561 126.227L524.56 126.228C525.89 126.304 527.112 126.436 528.224 126.628C529.338 126.82 530.489 127.088 531.675 127.433L532.078 127.55L532.033 127.967L531.354 134.306L531.302 134.78L530.826 134.752C529.584 134.677 528.438 134.62 527.386 134.582H527.385C526.374 134.545 525.266 134.526 524.064 134.526H524.056L524.048 134.525C522.886 134.488 521.476 134.47 519.819 134.47C517.957 134.47 516.561 134.834 515.581 135.508L515.582 135.509C514.662 136.166 513.951 137.355 513.513 139.181L513.512 139.183C513.073 140.975 512.848 143.495 512.848 146.762C512.848 150.027 513.073 152.566 513.512 154.396C513.948 156.178 514.655 157.35 515.575 158.01L515.764 158.133C516.733 158.731 518.069 159.054 519.819 159.054C522.418 159.054 524.6 159.015 526.364 158.94C528.126 158.865 529.871 158.734 531.595 158.547L532.088 158.493L532.145 158.986L532.881 165.325L532.929 165.737L532.534 165.86C530.696 166.435 528.82 166.836 526.906 167.066L526.907 167.067C524.989 167.336 522.625 167.468 519.819 167.468C515.735 167.468 512.402 166.82 509.852 165.486L509.843 165.482C507.308 164.096 505.481 161.861 504.351 158.822L504.349 158.816C503.265 155.797 502.735 151.77 502.735 146.762C502.735 141.753 503.265 137.726 504.349 134.706L504.351 134.701C505.411 131.851 507.084 129.724 509.381 128.357L509.849 128.094C512.4 126.721 515.735 126.055 519.819 126.055Z" fill="#182C45" stroke="#182C45"/>
<path d="M480.238 126.564C482.354 126.564 484.489 126.583 486.643 126.621L486.642 126.622C488.796 126.622 490.913 126.659 492.992 126.734C495.077 126.81 497.031 126.943 498.855 127.133L499.333 127.183L499.302 127.662L498.906 133.944L498.876 134.413H483.408C482.555 134.413 481.986 134.632 481.619 134.994C481.284 135.36 481.078 135.935 481.078 136.8V142.413H496.813V149.525H481.078V156.724C481.078 157.588 481.284 158.162 481.619 158.528C481.986 158.891 482.554 159.11 483.408 159.11H498.876L498.906 159.579L499.302 165.861L499.333 166.351L498.844 166.392C497.028 166.543 495.08 166.675 493 166.788L492.992 166.789C490.913 166.865 488.796 166.901 486.642 166.901L486.643 166.902C484.489 166.94 482.354 166.959 480.238 166.959C477.646 166.959 475.497 166.21 473.841 164.675L473.833 164.666C472.216 163.09 471.418 161.05 471.417 158.592V134.932C471.418 132.595 472.117 130.652 473.542 129.147L473.841 128.849C475.497 127.314 477.646 126.564 480.238 126.564Z" fill="#182C45" stroke="#182C45"/>
<path d="M467.858 126.734V134.526H456.085V166.789H446.425V134.526H434.708V126.734H467.858Z" fill="#182C45" stroke="#182C45"/>
<path d="M415.245 125.942C418.372 125.942 421.049 126.285 423.263 126.984H423.262C425.493 127.651 427.296 128.795 428.648 130.425H428.647C430.033 132.013 431.022 134.168 431.637 136.857L431.749 137.362C432.289 139.926 432.555 143.063 432.555 146.763C432.555 150.709 432.252 154.033 431.637 156.723V156.724C431.021 159.381 430.029 161.536 428.643 163.16C427.291 164.751 425.491 165.893 423.263 166.597L423.255 166.6C421.044 167.259 418.37 167.582 415.245 167.582C412.119 167.582 409.445 167.259 407.234 166.6L407.226 166.597C404.999 165.893 403.182 164.753 401.793 163.166L401.79 163.162C400.403 161.538 399.413 159.382 398.796 156.724L398.795 156.723C398.181 154.033 397.877 150.709 397.877 146.763C397.877 142.817 398.18 139.512 398.795 136.858C399.411 134.164 400.403 132.005 401.793 130.415C403.181 128.792 404.999 127.65 407.226 126.984C409.44 126.285 412.117 125.942 415.245 125.942ZM415.245 133.791C413.305 133.791 411.854 134.176 410.836 134.887C409.877 135.583 409.13 136.833 408.655 138.733L408.654 138.732C408.215 140.601 407.991 143.271 407.991 146.763C407.991 150.214 408.216 152.884 408.655 154.792L408.747 155.141C409.224 156.846 409.937 157.983 410.836 158.637C411.854 159.348 413.305 159.733 415.245 159.733C417.147 159.733 418.558 159.348 419.537 158.64L419.542 158.635C420.535 157.94 421.282 156.697 421.719 154.801L421.721 154.792C422.197 152.888 422.443 150.218 422.443 146.763C422.443 143.269 422.197 140.6 421.722 138.735L421.719 138.725C421.282 136.829 420.535 135.585 419.542 134.89L419.536 134.885V134.884C418.557 134.176 417.147 133.791 415.245 133.791Z" fill="#182C45" stroke="#182C45"/>
<path d="M375.38 126.564C377.496 126.564 379.632 126.583 381.786 126.621L381.785 126.622C383.939 126.622 386.055 126.659 388.134 126.734C390.219 126.81 392.174 126.943 393.998 127.133L394.475 127.183L394.445 127.662L394.048 133.944L394.019 134.413H378.55C377.697 134.413 377.129 134.632 376.761 134.994C376.427 135.36 376.22 135.935 376.22 136.8V142.413H391.956V149.525H376.22V156.724C376.22 157.588 376.427 158.162 376.761 158.528C377.129 158.891 377.697 159.11 378.55 159.11H394.019L394.048 159.579L394.445 165.861L394.476 166.351L393.987 166.392C392.17 166.543 390.222 166.675 388.143 166.788L388.134 166.789C386.055 166.865 383.939 166.901 381.785 166.901L381.786 166.902C379.632 166.94 377.496 166.959 375.38 166.959C372.788 166.959 370.64 166.21 368.984 164.675L368.975 164.666C367.358 163.09 366.56 161.05 366.56 158.592V134.932C366.56 132.595 367.26 130.652 368.685 129.147L368.984 128.849C370.64 127.314 372.788 126.564 375.38 126.564Z" fill="#182C45" stroke="#182C45"/>
<path d="M346.772 125.942C348.481 125.942 350.042 126 351.454 126.114C352.86 126.228 354.192 126.38 355.45 126.57H355.449C356.757 126.763 358.027 127.051 359.26 127.437L359.652 127.56L359.608 127.968L358.928 134.251L358.877 134.723L358.403 134.696C357.087 134.621 355.808 134.564 354.568 134.526C353.328 134.489 352.087 134.471 350.847 134.471H350.839L350.832 134.47C349.592 134.432 348.295 134.414 346.942 134.414C345.353 134.414 344.048 134.579 343.018 134.898L343.019 134.899C342.072 135.204 341.314 135.775 340.733 136.629L340.727 136.637C340.146 137.456 339.693 138.695 339.397 140.396C339.139 142.057 339.008 144.215 339.008 146.876C339.008 150.106 339.215 152.611 339.619 154.407C340.019 156.192 340.676 157.387 341.53 158.082L341.696 158.204C342.549 158.794 343.699 159.111 345.187 159.111C346.286 159.111 347.284 159.001 348.183 158.785C349.093 158.567 349.925 158.276 350.681 157.917C350.994 157.753 351.297 157.591 351.592 157.434V143.263H360.969V166.79H353.664L353.583 166.388L352.943 163.189C352.594 163.516 352.208 163.847 351.788 164.184C350.647 165.128 349.261 165.926 347.638 166.583C345.984 167.253 344.107 167.582 342.017 167.582C338.994 167.582 336.468 166.864 334.475 165.39L334.471 165.387C332.511 163.907 331.104 161.611 330.216 158.562V158.561C329.331 155.48 328.895 151.523 328.895 146.706C328.895 141.585 329.444 137.498 330.568 134.476L330.57 134.47C331.668 131.615 333.415 129.504 335.817 128.174L336.306 127.918C338.967 126.589 342.467 125.942 346.772 125.942Z" fill="#182C45" stroke="#182C45"/>
</svg>
