<svg width="1164" height="233" viewBox="0 0 1164 233" fill="none" xmlns="http://www.w3.org/2000/svg">
<path d="M1163.91 135.27V158.705H1094.15V60.8271H1162.67V84.2627H1121.03V98.0484H1156.6V119.83H1121.03V135.27H1163.91Z" fill="#003660"/>
<path d="M995.471 158.705V60.8271H1033.11C1043.95 60.8271 1053 63.0328 1060.26 67.4442C1067.62 71.7637 1073.13 77.6456 1076.81 85.0899C1080.57 92.4422 1082.46 100.622 1082.46 109.628C1082.46 119.554 1080.39 128.193 1076.25 135.545C1072.21 142.898 1066.47 148.596 1059.02 152.64C1051.67 156.683 1043.03 158.705 1033.11 158.705H995.471ZM1055.16 109.628C1055.16 104.574 1054.29 100.162 1052.54 96.3941C1050.8 92.5341 1048.27 89.5472 1044.96 87.4334C1041.65 85.3196 1037.7 84.2627 1033.11 84.2627H1022.35V135.27H1033.11C1037.79 135.27 1041.74 134.167 1044.96 131.961C1048.27 129.755 1050.8 126.723 1052.54 122.863C1054.29 118.911 1055.16 114.499 1055.16 109.628Z" fill="#003660"/>
<path d="M918.423 110.593V158.705H891.541V60.8271H912.495L951.784 110.593V60.8271H978.666V158.705H957.299L918.423 110.593Z" fill="#003660"/>
<path d="M822.2 60.8271H852.252L883.408 158.705H856.112L850.185 139.543H824.13L818.34 158.705H790.906L822.2 60.8271ZM845.911 121.622L837.226 87.1577L828.128 121.622H845.911Z" fill="#003660"/>
<path d="M706.564 158.705V60.8271H751.506C756.285 60.8271 760.696 61.7921 764.74 63.7221C768.784 65.6521 772.276 68.2714 775.217 71.5799C778.158 74.7966 780.41 78.4268 781.972 82.4706C783.626 86.5144 784.453 90.6041 784.453 94.7398C784.453 98.5079 783.902 102.138 782.799 105.63C781.696 109.123 780.088 112.34 777.974 115.28C775.86 118.129 773.333 120.611 770.392 122.725L791.07 158.705H761.569L744.337 128.653H733.446V158.705H706.564ZM733.446 105.217H750.403C751.506 105.217 752.563 104.803 753.574 103.976C754.584 103.149 755.412 101.954 756.055 100.392C756.79 98.8296 757.158 96.9455 757.158 94.7398C757.158 92.4422 756.744 90.5582 755.917 89.0877C755.182 87.5253 754.217 86.3306 753.022 85.5034C751.919 84.6763 750.816 84.2627 749.714 84.2627H733.446V105.217Z" fill="#003660"/>
<path d="M646.977 159.395C640.635 159.395 634.569 158.292 628.779 156.086C623.081 153.788 618.027 150.48 613.615 146.16C609.204 141.749 605.711 136.464 603.138 130.307C600.657 124.057 599.416 116.935 599.416 108.939C599.416 102.046 600.703 95.6589 603.276 89.777C605.849 83.8951 609.388 78.7485 613.891 74.3371C618.486 69.8338 623.817 66.3414 629.882 63.86C635.948 61.3786 642.519 60.1379 649.596 60.1379C658.419 60.1379 666.414 62.0679 673.583 65.9278C680.751 69.6959 686.082 74.8885 689.574 81.5056L669.585 96.8077C667.655 92.9477 664.76 89.8689 660.9 87.5713C657.04 85.1818 652.95 83.987 648.631 83.987C645.414 83.987 642.473 84.6304 639.808 85.917C637.143 87.2037 634.799 88.9958 632.777 91.2934C630.847 93.591 629.331 96.3482 628.228 99.5648C627.217 102.69 626.712 106.136 626.712 109.904C626.712 113.764 627.263 117.256 628.366 120.381C629.469 123.506 630.985 126.217 632.915 128.515C634.937 130.72 637.327 132.467 640.084 133.753C642.841 134.948 645.92 135.545 649.32 135.545C653.64 135.545 657.775 134.488 661.727 132.375C665.679 130.169 669.263 127.09 672.48 123.138V149.331C665.128 156.04 656.626 159.395 646.977 159.395ZM671.101 125.895H653.042V106.596H693.296V158.705H671.101V125.895Z" fill="#003660"/>
<path d="M539.352 60.8271H569.405L600.56 158.705H573.265L567.337 139.543H541.282L535.492 158.705H508.059L539.352 60.8271ZM563.063 121.622L554.378 87.1577L545.28 121.622H563.063Z" fill="#003660"/>
<path d="M493.362 92.8099C493.362 92.8099 492.581 92.3503 491.019 91.4313C489.456 90.5122 487.388 89.5013 484.815 88.3984C482.242 87.2037 479.439 86.1468 476.406 85.2277C473.373 84.3087 470.386 83.8492 467.445 83.8492C465.148 83.8492 463.264 84.2168 461.793 84.952C460.323 85.6873 459.587 86.928 459.587 88.6742C459.587 90.3284 460.323 91.661 461.793 92.672C463.264 93.6829 465.331 94.602 467.997 95.4291C470.754 96.2563 474.016 97.2672 477.784 98.462C483.85 100.3 489.089 102.414 493.5 104.803C497.911 107.193 501.312 110.272 503.701 114.04C506.091 117.716 507.286 122.633 507.286 128.79C507.286 134.672 506.229 139.635 504.115 143.679C502.001 147.631 499.152 150.802 495.568 153.191C491.984 155.581 487.986 157.327 483.574 158.43C479.163 159.441 474.66 159.946 470.064 159.946C465.377 159.946 460.46 159.486 455.314 158.567C450.259 157.556 445.342 156.224 440.563 154.57C435.784 152.823 431.419 150.801 427.467 148.504L439.047 124.93C439.047 124.93 439.966 125.482 441.804 126.585C443.642 127.688 446.077 128.928 449.11 130.307C452.143 131.685 455.498 132.926 459.174 134.029C462.942 135.132 466.71 135.683 470.478 135.683C473.419 135.683 475.441 135.316 476.544 134.58C477.738 133.753 478.336 132.696 478.336 131.41C478.336 129.48 477.325 128.009 475.303 126.998C473.281 125.895 470.616 124.884 467.307 123.965C464.091 122.954 460.506 121.806 456.555 120.519C450.856 118.589 446.169 116.429 442.493 114.04C438.817 111.558 436.106 108.663 434.36 105.355C432.613 101.954 431.74 97.8646 431.74 93.0856C431.74 85.8251 433.441 79.7594 436.841 74.8885C440.241 70.0176 444.699 66.3414 450.213 63.86C455.819 61.2867 461.839 60 468.272 60C473.051 60 477.647 60.5974 482.058 61.7921C486.561 62.895 490.743 64.2735 494.603 65.9278C498.555 67.5821 502.001 69.1445 504.942 70.6149L493.362 92.8099Z" fill="#003660"/>
<path d="M365.819 60.8271H395.872L427.027 158.705H399.732L393.804 139.543H367.749L361.959 158.705H334.525L365.819 60.8271ZM389.53 121.622L380.845 87.1577L371.747 121.622H389.53Z" fill="#003660"/>
<path d="M244 108.939C244 102.965 245.103 97.1294 247.309 91.4314C249.606 85.6414 252.915 80.4029 257.234 75.7157C261.554 71.0286 266.792 67.3065 272.95 64.5494C279.199 61.7003 286.23 60.2758 294.042 60.2758C303.416 60.2758 311.596 62.2517 318.58 66.2036C325.565 70.0636 330.758 75.2103 334.158 81.6436L313.618 96.2564C312.423 93.0397 310.677 90.5583 308.379 88.8121C306.173 87.0659 303.738 85.8712 301.073 85.2278C298.499 84.4926 295.972 84.125 293.49 84.125C289.631 84.125 286.276 84.9062 283.427 86.4685C280.67 87.939 278.372 89.915 276.534 92.3964C274.788 94.8778 273.455 97.6349 272.536 100.668C271.709 103.701 271.296 106.733 271.296 109.766C271.296 113.167 271.801 116.429 272.812 119.554C273.823 122.679 275.293 125.482 277.223 127.963C279.153 130.353 281.497 132.237 284.254 133.615C287.103 134.994 290.274 135.683 293.766 135.683C296.248 135.683 298.775 135.316 301.348 134.58C303.922 133.753 306.265 132.467 308.379 130.72C310.493 128.974 312.101 126.631 313.204 123.69L335.123 136.786C333.193 141.565 329.977 145.655 325.473 149.055C320.97 152.456 315.869 155.075 310.171 156.913C304.473 158.659 298.821 159.532 293.215 159.532C285.954 159.532 279.291 158.108 273.226 155.259C267.252 152.318 262.059 148.458 257.648 143.679C253.328 138.808 249.974 133.386 247.584 127.412C245.195 121.346 244 115.189 244 108.939Z" fill="#003660"/>
<path d="M1123.14 232.926C1119.3 232.926 1115.81 232.188 1112.66 230.711C1109.55 229.234 1106.87 227.24 1104.61 224.729C1102.39 222.168 1100.67 219.313 1099.44 216.162C1098.21 212.962 1097.59 209.688 1097.59 206.34C1097.59 202.844 1098.23 199.521 1099.51 196.37C1100.84 193.169 1102.64 190.338 1104.9 187.877C1107.22 185.366 1109.92 183.396 1113.02 181.969C1116.18 180.492 1119.62 179.753 1123.36 179.753C1127.16 179.753 1130.6 180.516 1133.7 182.042C1136.85 183.569 1139.54 185.612 1141.75 188.172C1143.97 190.732 1145.69 193.588 1146.92 196.739C1148.15 199.89 1148.77 203.139 1148.77 206.487C1148.77 209.934 1148.13 213.257 1146.85 216.457C1145.57 219.608 1143.77 222.439 1141.46 224.95C1139.19 227.412 1136.49 229.357 1133.33 230.785C1130.23 232.212 1126.84 232.926 1123.14 232.926ZM1107.93 206.34C1107.93 208.604 1108.27 210.795 1108.96 212.912C1109.65 215.029 1110.64 216.925 1111.92 218.599C1113.25 220.224 1114.85 221.528 1116.72 222.513C1118.64 223.449 1120.8 223.916 1123.22 223.916C1125.68 223.916 1127.87 223.424 1129.79 222.439C1131.71 221.405 1133.31 220.051 1134.59 218.377C1135.87 216.654 1136.83 214.759 1137.47 212.691C1138.16 210.574 1138.5 208.457 1138.5 206.34C1138.5 204.075 1138.13 201.909 1137.4 199.841C1136.71 197.724 1135.7 195.853 1134.37 194.228C1133.09 192.554 1131.49 191.249 1129.57 190.314C1127.7 189.329 1125.58 188.837 1123.22 188.837C1120.71 188.837 1118.49 189.354 1116.57 190.388C1114.7 191.372 1113.12 192.702 1111.84 194.376C1110.56 196.05 1109.58 197.921 1108.89 199.988C1108.25 202.056 1107.93 204.173 1107.93 206.34Z" fill="#003660"/>
<path d="M1095.48 189.058H1078.72V232.557H1068.6V189.058H1051.84V180.122H1095.48V189.058Z" fill="#003660"/>
<path d="M1048.32 223.621V232.557H1011.91V180.122H1047.66V189.058H1022.1V201.687H1044.19V209.958H1022.1V223.621H1048.32Z" fill="#003660"/>
<path d="M962.799 232.557V180.122H985.988C988.401 180.122 990.616 180.615 992.635 181.599C994.703 182.584 996.475 183.913 997.952 185.587C999.479 187.261 1000.64 189.132 1001.42 191.2C1002.26 193.268 1002.68 195.385 1002.68 197.551C1002.68 199.767 1002.28 201.908 1001.5 203.976C1000.76 205.995 999.675 207.767 998.248 209.294C996.82 210.82 995.146 212.002 993.226 212.839L1005.19 232.557H993.964L983.182 214.98H972.99V232.557H962.799ZM972.99 206.044H985.767C987.047 206.044 988.179 205.675 989.164 204.936C990.149 204.149 990.936 203.115 991.527 201.835C992.118 200.555 992.413 199.127 992.413 197.551C992.413 195.877 992.069 194.425 991.379 193.194C990.69 191.914 989.804 190.905 988.721 190.166C987.687 189.428 986.554 189.058 985.324 189.058H972.99V206.044Z" fill="#003660"/>
<path d="M908.996 205.97C908.996 202.77 909.562 199.644 910.695 196.591C911.876 193.489 913.575 190.683 915.79 188.172C918.006 185.612 920.714 183.593 923.914 182.116C927.114 180.59 930.758 179.827 934.844 179.827C939.669 179.827 943.829 180.885 947.325 183.002C950.87 185.119 953.504 187.877 955.227 191.274L947.399 196.665C946.513 194.696 945.356 193.145 943.928 192.012C942.5 190.831 940.974 190.018 939.349 189.575C937.724 189.083 936.124 188.837 934.549 188.837C931.989 188.837 929.748 189.354 927.828 190.388C925.957 191.422 924.382 192.775 923.102 194.449C921.822 196.123 920.862 197.994 920.222 200.062C919.631 202.13 919.335 204.198 919.335 206.266C919.335 208.58 919.705 210.82 920.443 212.986C921.182 215.103 922.216 216.999 923.545 218.673C924.923 220.298 926.548 221.602 928.419 222.587C930.339 223.522 932.432 223.99 934.696 223.99C936.321 223.99 937.971 223.719 939.645 223.178C941.319 222.636 942.869 221.775 944.297 220.593C945.725 219.411 946.833 217.885 947.621 216.014L955.966 220.814C954.932 223.424 953.233 225.639 950.87 227.461C948.556 229.283 945.947 230.661 943.042 231.597C940.137 232.532 937.257 233 934.401 233C930.659 233 927.237 232.237 924.136 230.711C921.034 229.135 918.351 227.067 916.086 224.507C913.87 221.898 912.122 218.993 910.842 215.793C909.612 212.543 908.996 209.269 908.996 205.97Z" fill="#003660"/>
<path d="M866.035 198.881V232.557H855.844V180.122H863.967L891.071 214.685V180.196H901.263V232.557H892.77L866.035 198.881Z" fill="#003660"/>
<path d="M822.398 232.926C818.558 232.926 815.062 232.188 811.911 230.711C808.81 229.234 806.126 227.24 803.862 224.729C801.646 222.168 799.923 219.313 798.692 216.162C797.461 212.962 796.846 209.688 796.846 206.34C796.846 202.844 797.486 199.521 798.766 196.37C800.095 193.169 801.892 190.338 804.157 187.877C806.471 185.366 809.179 183.396 812.281 181.969C815.432 180.492 818.878 179.753 822.62 179.753C826.411 179.753 829.857 180.516 832.959 182.042C836.11 183.569 838.793 185.612 841.009 188.172C843.225 190.732 844.948 193.588 846.179 196.739C847.409 199.89 848.025 203.139 848.025 206.487C848.025 209.934 847.385 213.257 846.105 216.457C844.825 219.608 843.028 222.439 840.714 224.95C838.449 227.412 835.741 229.357 832.59 230.785C829.488 232.212 826.091 232.926 822.398 232.926ZM807.185 206.34C807.185 208.604 807.53 210.795 808.219 212.912C808.908 215.029 809.893 216.925 811.173 218.599C812.502 220.224 814.102 221.528 815.973 222.513C817.893 223.449 820.06 223.916 822.472 223.916C824.934 223.916 827.125 223.424 829.045 222.439C830.965 221.405 832.565 220.051 833.845 218.377C835.126 216.654 836.086 214.759 836.726 212.691C837.415 210.574 837.76 208.457 837.76 206.34C837.76 204.075 837.39 201.909 836.652 199.841C835.962 197.724 834.953 195.853 833.624 194.228C832.344 192.554 830.744 191.249 828.823 190.314C826.953 189.329 824.835 188.837 822.472 188.837C819.961 188.837 817.746 189.354 815.826 190.388C813.955 191.372 812.379 192.702 811.099 194.376C809.819 196.05 808.834 197.921 808.145 199.988C807.505 202.056 807.185 204.173 807.185 206.34Z" fill="#003660"/>
<path d="M746.867 205.97C746.867 202.77 747.433 199.644 748.566 196.591C749.747 193.489 751.446 190.683 753.662 188.172C755.877 185.612 758.585 183.593 761.785 182.116C764.985 180.59 768.629 179.827 772.715 179.827C777.54 179.827 781.701 180.885 785.196 183.002C788.741 185.119 791.375 187.877 793.098 191.274L785.27 196.665C784.384 194.696 783.227 193.145 781.799 192.012C780.371 190.831 778.845 190.018 777.22 189.575C775.596 189.083 773.995 188.837 772.42 188.837C769.86 188.837 767.62 189.354 765.699 190.388C763.828 191.422 762.253 192.775 760.973 194.449C759.693 196.123 758.733 197.994 758.093 200.062C757.502 202.13 757.206 204.198 757.206 206.266C757.206 208.58 757.576 210.82 758.314 212.986C759.053 215.103 760.087 216.999 761.416 218.673C762.795 220.298 764.419 221.602 766.29 222.587C768.21 223.522 770.303 223.99 772.568 223.99C774.192 223.99 775.842 223.719 777.516 223.178C779.19 222.636 780.74 221.775 782.168 220.593C783.596 219.411 784.704 217.885 785.492 216.014L793.837 220.814C792.803 223.424 791.104 225.639 788.741 227.461C786.427 229.283 783.818 230.661 780.913 231.597C778.008 232.532 775.128 233 772.272 233C768.53 233 765.109 232.237 762.007 230.711C758.905 229.135 756.222 227.067 753.957 224.507C751.741 221.898 749.994 218.993 748.713 215.793C747.483 212.543 746.867 209.269 746.867 205.97Z" fill="#003660"/>
<path d="M692.195 180.122L705.119 204.789L718.265 180.122H729.269L710.215 214.242V232.557H700.097V214.094L681.117 180.122H692.195Z" fill="#003660"/>
<path d="M638.228 180.122H648.567L667.843 232.557H657.356L652.481 219.485H634.166L629.366 232.557H618.879L638.228 180.122ZM650.635 212.322L643.398 190.683L635.865 212.322H650.635Z" fill="#003660"/>
<path d="M602.844 232.557V180.122H613.035V232.557H602.844Z" fill="#003660"/>
<path d="M556.709 198.881V232.557H546.518V180.122H554.641L581.745 214.685V180.196H591.936V232.557H583.443L556.709 198.881Z" fill="#003660"/>
<path d="M492.713 205.97C492.713 202.77 493.279 199.644 494.411 196.591C495.593 193.489 497.292 190.683 499.507 188.172C501.723 185.612 504.431 183.593 507.631 182.116C510.831 180.59 514.475 179.827 518.561 179.827C523.386 179.827 527.546 180.885 531.042 183.002C534.587 185.119 537.221 187.877 538.944 191.274L531.116 196.665C530.23 194.696 529.073 193.145 527.645 192.012C526.217 190.831 524.691 190.018 523.066 189.575C521.441 189.083 519.841 188.837 518.266 188.837C515.705 188.837 513.465 189.354 511.545 190.388C509.674 191.422 508.099 192.775 506.819 194.449C505.538 196.123 504.578 197.994 503.938 200.062C503.348 202.13 503.052 204.198 503.052 206.266C503.052 208.58 503.421 210.82 504.16 212.986C504.898 215.103 505.932 216.999 507.262 218.673C508.64 220.298 510.265 221.602 512.136 222.587C514.056 223.522 516.148 223.99 518.413 223.99C520.038 223.99 521.687 223.719 523.361 223.178C525.035 222.636 526.586 221.775 528.014 220.593C529.442 219.411 530.55 217.885 531.337 216.014L539.683 220.814C538.649 223.424 536.95 225.639 534.587 227.461C532.273 229.283 529.663 230.661 526.759 231.597C523.854 232.532 520.973 233 518.118 233C514.376 233 510.954 232.237 507.853 230.711C504.751 229.135 502.067 227.067 499.803 224.507C497.587 221.898 495.839 218.993 494.559 215.793C493.328 212.543 492.713 209.269 492.713 205.97Z" fill="#003660"/>
<path d="M488.882 223.621V232.557H452.473V180.122H488.217V189.058H462.664V201.687H484.746V209.958H462.664V223.621H488.882Z" fill="#003660"/>
<path d="M445.963 189.058H429.198V232.557H419.081V189.058H402.316V180.122H445.963V189.058Z" fill="#003660"/>
<path d="M374.602 232.926C370.761 232.926 367.266 232.188 364.115 230.711C361.013 229.234 358.33 227.24 356.065 224.729C353.849 222.168 352.126 219.313 350.895 216.162C349.664 212.962 349.049 209.688 349.049 206.34C349.049 202.844 349.689 199.521 350.969 196.37C352.298 193.169 354.095 190.338 356.36 187.877C358.674 185.366 361.382 183.396 364.484 181.969C367.635 180.492 371.081 179.753 374.823 179.753C378.614 179.753 382.061 180.516 385.162 182.042C388.313 183.569 390.997 185.612 393.212 188.172C395.428 190.732 397.151 193.588 398.382 196.739C399.613 199.89 400.228 203.139 400.228 206.487C400.228 209.934 399.588 213.257 398.308 216.457C397.028 219.608 395.231 222.439 392.917 224.95C390.652 227.412 387.944 229.357 384.793 230.785C381.691 232.212 378.294 232.926 374.602 232.926ZM359.388 206.34C359.388 208.604 359.733 210.795 360.422 212.912C361.111 215.029 362.096 216.925 363.376 218.599C364.705 220.224 366.306 221.528 368.176 222.513C370.097 223.449 372.263 223.916 374.675 223.916C377.137 223.916 379.328 223.424 381.248 222.439C383.168 221.405 384.768 220.051 386.049 218.377C387.329 216.654 388.289 214.759 388.929 212.691C389.618 210.574 389.963 208.457 389.963 206.34C389.963 204.075 389.593 201.909 388.855 199.841C388.166 197.724 387.156 195.853 385.827 194.228C384.547 192.554 382.947 191.249 381.027 190.314C379.156 189.329 377.039 188.837 374.675 188.837C372.164 188.837 369.949 189.354 368.029 190.388C366.158 191.372 364.582 192.702 363.302 194.376C362.022 196.05 361.037 197.921 360.348 199.988C359.708 202.056 359.388 204.173 359.388 206.34Z" fill="#003660"/>
<path d="M345.217 223.621V232.557H308.809V180.122H344.553V189.058H319V201.687H341.082V209.958H319V223.621H345.217Z" fill="#003660"/>
<path d="M277.079 232.926C273.682 232.926 270.457 232.237 267.405 230.858C264.402 229.48 261.743 227.584 259.429 225.172C257.164 222.71 255.392 219.854 254.112 216.605C252.831 213.356 252.191 209.835 252.191 206.044C252.191 202.45 252.831 199.078 254.112 195.927C255.392 192.726 257.189 189.92 259.503 187.507C261.817 185.095 264.525 183.199 267.626 181.821C270.728 180.442 274.101 179.753 277.744 179.753C282.668 179.753 286.877 180.812 290.373 182.929C293.918 184.996 296.576 187.754 298.349 191.2L290.742 196.813C289.413 194.203 287.542 192.209 285.129 190.831C282.766 189.452 280.181 188.763 277.375 188.763C275.159 188.763 273.141 189.231 271.319 190.166C269.497 191.102 267.922 192.382 266.592 194.006C265.263 195.631 264.229 197.502 263.491 199.619C262.801 201.736 262.457 203.976 262.457 206.34C262.457 208.851 262.826 211.165 263.565 213.282C264.352 215.399 265.435 217.245 266.814 218.821C268.242 220.396 269.891 221.652 271.762 222.587C273.633 223.473 275.701 223.916 277.966 223.916C280.624 223.916 283.16 223.227 285.572 221.848C288.034 220.47 290.324 218.451 292.441 215.793V225.836C288.059 230.563 282.938 232.926 277.079 232.926ZM291.702 213.06H281.141V205.601H300.121V232.557H291.702V213.06Z" fill="#003660"/>
<path d="M66.8996 192.634L52.1296 183.187L25.375 200.7V44.6544C39.3126 30.6135 52.3004 15.7423 66.8996 2.30532V192.634Z" fill="#003660"/>
<path d="M0 233L52.737 199.206L88.96 221.956L155.371 179.941L190.41 201.285L190.808 192.009H214.961V216.372L239.92 233H221.803L157.759 192.402L155.844 191.978L90.5738 233H72.4569L78.8903 227.964L52.737 211.594L18.9238 233H0Z" fill="#003660"/>
<path d="M89.9685 207.622L76.127 198.296V0L89.9685 7.69976V207.622Z" fill="#E9BE74"/>
<path d="M94.582 9.22869L108.304 16.6551L108.424 192.862C107.901 195.876 97.3046 200.603 94.582 203.01V9.22869Z" fill="#E9BE74"/>
<path d="M113.039 23.068C117.011 25.3636 125.145 27.6804 128.474 30.146C128.978 30.5179 129.293 30.7624 129.155 31.3788L129.066 179.219C128.474 182.077 116.28 187.2 113.039 189.166V23.068Z" fill="#E9BE74"/>
<path d="M156.874 80.7418V163.785L133.805 177.632V103.135L154.429 82.0264L156.874 80.7418Z" fill="#003660"/>
<path d="M177.633 85.6425V175.327L163.791 166.119V78.4365L177.633 85.6425Z" fill="#E9BE74"/>
<path d="M196.088 177.633H182.246V89.9705C187.088 91.9384 191.887 94.5515 196.088 97.6055V177.623V177.633Z" fill="#E9BE74"/>
<path d="M216.852 108.641V177.633H200.703V101.504C205.908 103.933 211.215 107.072 216.852 108.641Z" fill="#E9BE74"/>
<path d="M166.101 207.623H156.873V216.851H166.101V207.623Z" fill="#003660"/>
<path d="M166.101 221.463H156.873V230.69H166.101V221.463Z" fill="#003660"/>
<path d="M154.565 207.623H147.645V216.851H154.565V207.623Z" fill="#003660"/>
<path d="M154.565 221.463H147.645V230.69H154.565V221.463Z" fill="#003660"/>
<path d="M57.6763 219.157H53.0625V226.078H57.6763V219.157Z" fill="#003660"/>
<path d="M57.6763 226.077H53.0625V230.691H57.6763V226.077Z" fill="#003660"/>
<path d="M50.7506 219.157H46.1367V226.078H50.7506V219.157Z" fill="#003660"/>
<path d="M50.7506 226.077H46.1367V230.691H50.7506V226.077Z" fill="#003660"/>
</svg>
